<?xml version="1.0" encoding="UTF-8" standalone="no"?>
<!DOCTYPE svg PUBLIC "-//W3C//DTD SVG 1.1//EN"
 "http://www.w3.org/Graphics/SVG/1.1/DTD/svg11.dtd">
<!-- Generated by graphviz version 2.28.0 (20121111.0637)
 -->
<!-- Title: controllers_diagram Pages: 1 -->
<svg width="634pt" height="598pt"
 viewBox="0.00 0.00 634.07 598.00" xmlns="http://www.w3.org/2000/svg" xmlns:xlink="http://www.w3.org/1999/xlink">
<g id="graph1" class="graph" transform="scale(1 1) rotate(0) translate(4 594)">
<title>controllers_diagram</title>
<polygon fill="white" stroke="white" points="-4,5 -4,-594 631.066,-594 631.066,5 -4,5"/>
<!-- _diagram_info -->
<g id="node1" class="node"><title>_diagram_info</title>
<text text-anchor="start" x="427.643" y="-573" font-family="Times,serif" font-size="13.00">Controllers diagram</text>
<text text-anchor="start" x="427.643" y="-557.4" font-family="Times,serif" font-size="13.00">Date: Nov 26 2012 &#45; 21:45</text>
<text text-anchor="start" x="427.643" y="-541.8" font-family="Times,serif" font-size="13.00">Migration version: 20121127005511</text>
<text text-anchor="start" x="427.643" y="-526.2" font-family="Times,serif" font-size="13.00">Generated by RailRoady 1.1.0</text>
<text text-anchor="start" x="427.643" y="-510.6" font-family="Times,serif" font-size="13.00">http://railroady.prestonlee.com</text>
</g>
<!-- ApplicationController -->
<g id="node2" class="node"><title>ApplicationController</title>
<polyline fill="none" stroke="black" points="132.795,-242.009 304.43,-242.009 "/>
<path fill="none" stroke="black" d="M304.43,-242.009C310.43,-242.009 316.43,-248.009 316.43,-254.009"/>
<polyline fill="none" stroke="black" points="316.43,-254.009 316.43,-328.409 "/>
<path fill="none" stroke="black" d="M316.43,-328.409C316.43,-334.409 310.43,-340.409 304.43,-340.409"/>
<polyline fill="none" stroke="black" points="304.43,-340.409 132.795,-340.409 "/>
<path fill="none" stroke="black" d="M132.795,-340.409C126.795,-340.409 120.795,-334.409 120.795,-328.409"/>
<polyline fill="none" stroke="black" points="120.795,-328.409 120.795,-254.009 "/>
<path fill="none" stroke="black" d="M120.795,-254.009C120.795,-248.009 126.795,-242.009 132.795,-242.009"/>
<text text-anchor="middle" x="218.612" y="-322.409" font-family="Times,serif" font-size="14.00">ApplicationController</text>
<polyline fill="none" stroke="black" points="120.795,-315.609 316.43,-315.609 "/>
<text text-anchor="start" x="128.795" y="-297.609" font-family="Times,serif" font-size="14.00">_one_time_conditions_valid_8?</text>
<polyline fill="none" stroke="black" points="120.795,-290.809 316.43,-290.809 "/>
<polyline fill="none" stroke="black" points="120.795,-266.809 316.43,-266.809 "/>
<text text-anchor="start" x="128.795" y="-248.809" font-family="Times,serif" font-size="14.00">_layout</text>
</g>
<!-- FoodsController -->
<g id="node3" class="node"><title>FoodsController</title>
<polyline fill="none" stroke="black" points="342.077,-95.4786 425.856,-95.4786 "/>
<path fill="none" stroke="black" d="M425.856,-95.4786C431.856,-95.4786 437.856,-101.479 437.856,-107.479"/>
<polyline fill="none" stroke="black" points="437.856,-107.479 437.856,-282.679 "/>
<path fill="none" stroke="black" d="M437.856,-282.679C437.856,-288.679 431.856,-294.679 425.856,-294.679"/>
<polyline fill="none" stroke="black" points="425.856,-294.679 342.077,-294.679 "/>
<path fill="none" stroke="black" d="M342.077,-294.679C336.077,-294.679 330.077,-288.679 330.077,-282.679"/>
<polyline fill="none" stroke="black" points="330.077,-282.679 330.077,-107.479 "/>
<path fill="none" stroke="black" d="M330.077,-107.479C330.077,-101.479 336.077,-95.4786 342.077,-95.4786"/>
<text text-anchor="middle" x="383.967" y="-276.679" font-family="Times,serif" font-size="14.00">FoodsController</text>
<polyline fill="none" stroke="black" points="330.077,-269.879 437.856,-269.879 "/>
<text text-anchor="start" x="338.077" y="-251.879" font-family="Times,serif" font-size="14.00">create</text>
<text text-anchor="start" x="338.077" y="-235.079" font-family="Times,serif" font-size="14.00">destroy</text>
<text text-anchor="start" x="338.077" y="-218.279" font-family="Times,serif" font-size="14.00">edit</text>
<text text-anchor="start" x="338.077" y="-201.479" font-family="Times,serif" font-size="14.00">index</text>
<text text-anchor="start" x="338.077" y="-184.679" font-family="Times,serif" font-size="14.00">new</text>
<text text-anchor="start" x="338.077" y="-167.879" font-family="Times,serif" font-size="14.00">show</text>
<text text-anchor="start" x="338.077" y="-151.079" font-family="Times,serif" font-size="14.00">update</text>
<polyline fill="none" stroke="black" points="330.077,-144.279 437.856,-144.279 "/>
<polyline fill="none" stroke="black" points="330.077,-120.279 437.856,-120.279 "/>
<text text-anchor="start" x="338.077" y="-102.279" font-family="Times,serif" font-size="14.00">_layout</text>
</g>
<!-- ApplicationController&#45;&gt;FoodsController -->
<g id="edge2" class="edge"><title>ApplicationController&#45;&gt;FoodsController</title>
<path fill="none" stroke="black" d="M303.711,-241.736C312.574,-236.583 321.4,-231.452 329.78,-226.58"/>
</g>
<!-- PostsController -->
<g id="node4" class="node"><title>PostsController</title>
<polyline fill="none" stroke="black" points="128.912,-0.5 307.546,-0.5 "/>
<path fill="none" stroke="black" d="M307.546,-0.5C313.546,-0.5 319.546,-6.5 319.546,-12.5"/>
<polyline fill="none" stroke="black" points="319.546,-12.5 319.546,-187.7 "/>
<path fill="none" stroke="black" d="M319.546,-187.7C319.546,-193.7 313.546,-199.7 307.546,-199.7"/>
<polyline fill="none" stroke="black" points="307.546,-199.7 128.912,-199.7 "/>
<path fill="none" stroke="black" d="M128.912,-199.7C122.912,-199.7 116.912,-193.7 116.912,-187.7"/>
<polyline fill="none" stroke="black" points="116.912,-187.7 116.912,-12.5 "/>
<path fill="none" stroke="black" d="M116.912,-12.5C116.912,-6.5 122.912,-0.5 128.912,-0.5"/>
<text text-anchor="middle" x="218.229" y="-181.7" font-family="Times,serif" font-size="14.00">PostsController</text>
<polyline fill="none" stroke="black" points="116.912,-174.9 319.546,-174.9 "/>
<text text-anchor="start" x="124.912" y="-156.9" font-family="Times,serif" font-size="14.00">_one_time_conditions_valid_80?</text>
<text text-anchor="start" x="124.912" y="-140.1" font-family="Times,serif" font-size="14.00">create</text>
<text text-anchor="start" x="124.912" y="-123.3" font-family="Times,serif" font-size="14.00">destroy</text>
<text text-anchor="start" x="124.912" y="-106.5" font-family="Times,serif" font-size="14.00">edit</text>
<text text-anchor="start" x="124.912" y="-89.7" font-family="Times,serif" font-size="14.00">index</text>
<text text-anchor="start" x="124.912" y="-72.9" font-family="Times,serif" font-size="14.00">load_postable</text>
<text text-anchor="start" x="124.912" y="-56.1" font-family="Times,serif" font-size="14.00">update</text>
<polyline fill="none" stroke="black" points="116.912,-49.3 319.546,-49.3 "/>
<polyline fill="none" stroke="black" points="116.912,-25.3 319.546,-25.3 "/>
<text text-anchor="start" x="124.912" y="-7.3" font-family="Times,serif" font-size="14.00">_layout</text>
</g>
<!-- ApplicationController&#45;&gt;PostsController -->
<g id="edge4" class="edge"><title>ApplicationController&#45;&gt;PostsController</title>
<path fill="none" stroke="black" d="M218.514,-241.994C218.488,-229.054 218.459,-214.619 218.429,-200.047"/>
</g>
<!-- PricesController -->
<g id="node5" class="node"><title>PricesController</title>
<polyline fill="none" stroke="black" points="12.878,-306.722 96.6368,-306.722 "/>
<path fill="none" stroke="black" d="M96.6368,-306.722C102.637,-306.722 108.637,-312.722 108.637,-318.722"/>
<polyline fill="none" stroke="black" points="108.637,-318.722 108.637,-460.322 "/>
<path fill="none" stroke="black" d="M108.637,-460.322C108.637,-466.322 102.637,-472.322 96.6368,-472.322"/>
<polyline fill="none" stroke="black" points="96.6368,-472.322 12.878,-472.322 "/>
<path fill="none" stroke="black" d="M12.878,-472.322C6.87797,-472.322 0.877969,-466.322 0.877969,-460.322"/>
<polyline fill="none" stroke="black" points="0.877969,-460.322 0.877969,-318.722 "/>
<path fill="none" stroke="black" d="M0.877969,-318.722C0.877969,-312.722 6.87797,-306.722 12.878,-306.722"/>
<text text-anchor="middle" x="54.7574" y="-454.322" font-family="Times,serif" font-size="14.00">PricesController</text>
<polyline fill="none" stroke="black" points="0.877969,-447.522 108.637,-447.522 "/>
<text text-anchor="start" x="8.87797" y="-429.522" font-family="Times,serif" font-size="14.00">create</text>
<text text-anchor="start" x="8.87797" y="-412.722" font-family="Times,serif" font-size="14.00">destroy</text>
<text text-anchor="start" x="8.87797" y="-395.922" font-family="Times,serif" font-size="14.00">edit</text>
<text text-anchor="start" x="8.87797" y="-379.122" font-family="Times,serif" font-size="14.00">index</text>
<text text-anchor="start" x="8.87797" y="-362.322" font-family="Times,serif" font-size="14.00">update</text>
<polyline fill="none" stroke="black" points="0.877969,-355.522 108.637,-355.522 "/>
<polyline fill="none" stroke="black" points="0.877969,-331.522 108.637,-331.522 "/>
<text text-anchor="start" x="8.87797" y="-313.522" font-family="Times,serif" font-size="14.00">_layout</text>
</g>
<!-- ApplicationController&#45;&gt;PricesController -->
<g id="edge6" class="edge"><title>ApplicationController&#45;&gt;PricesController</title>
<path fill="none" stroke="black" d="M136.205,-340.654C126.96,-346.2 117.724,-351.742 108.967,-356.997"/>
</g>
<!-- SessionsController -->
<g id="node6" class="node"><title>SessionsController</title>
<polyline fill="none" stroke="black" points="336.43,-319.095 434.209,-319.095 "/>
<path fill="none" stroke="black" d="M434.209,-319.095C440.209,-319.095 446.209,-325.095 446.209,-331.095"/>
<polyline fill="none" stroke="black" points="446.209,-331.095 446.209,-439.095 "/>
<path fill="none" stroke="black" d="M446.209,-439.095C446.209,-445.095 440.209,-451.095 434.209,-451.095"/>
<polyline fill="none" stroke="black" points="434.209,-451.095 336.43,-451.095 "/>
<path fill="none" stroke="black" d="M336.43,-451.095C330.43,-451.095 324.43,-445.095 324.43,-439.095"/>
<polyline fill="none" stroke="black" points="324.43,-439.095 324.43,-331.095 "/>
<path fill="none" stroke="black" d="M324.43,-331.095C324.43,-325.095 330.43,-319.095 336.43,-319.095"/>
<text text-anchor="middle" x="385.319" y="-433.095" font-family="Times,serif" font-size="14.00">SessionsController</text>
<polyline fill="none" stroke="black" points="324.43,-426.295 446.209,-426.295 "/>
<text text-anchor="start" x="332.43" y="-408.295" font-family="Times,serif" font-size="14.00">create</text>
<text text-anchor="start" x="332.43" y="-391.495" font-family="Times,serif" font-size="14.00">destroy</text>
<text text-anchor="start" x="332.43" y="-374.695" font-family="Times,serif" font-size="14.00">new</text>
<polyline fill="none" stroke="black" points="324.43,-367.895 446.209,-367.895 "/>
<polyline fill="none" stroke="black" points="324.43,-343.895 446.209,-343.895 "/>
<text text-anchor="start" x="332.43" y="-325.895" font-family="Times,serif" font-size="14.00">_layout</text>
</g>
<!-- ApplicationController&#45;&gt;SessionsController -->
<g id="edge8" class="edge"><title>ApplicationController&#45;&gt;SessionsController</title>
<path fill="none" stroke="black" d="M306.36,-340.626C312.321,-343.984 318.253,-347.324 324.032,-350.579"/>
</g>
<!-- ShopsController -->
<g id="node7" class="node"><title>ShopsController</title>
<polyline fill="none" stroke="black" points="180.051,-382.812 263.83,-382.812 "/>
<path fill="none" stroke="black" d="M263.83,-382.812C269.83,-382.812 275.83,-388.812 275.83,-394.812"/>
<polyline fill="none" stroke="black" points="275.83,-394.812 275.83,-570.012 "/>
<path fill="none" stroke="black" d="M275.83,-570.012C275.83,-576.012 269.83,-582.012 263.83,-582.012"/>
<polyline fill="none" stroke="black" points="263.83,-582.012 180.051,-582.012 "/>
<path fill="none" stroke="black" d="M180.051,-582.012C174.051,-582.012 168.051,-576.012 168.051,-570.012"/>
<polyline fill="none" stroke="black" points="168.051,-570.012 168.051,-394.812 "/>
<path fill="none" stroke="black" d="M168.051,-394.812C168.051,-388.812 174.051,-382.812 180.051,-382.812"/>
<text text-anchor="middle" x="221.94" y="-564.012" font-family="Times,serif" font-size="14.00">ShopsController</text>
<polyline fill="none" stroke="black" points="168.051,-557.212 275.83,-557.212 "/>
<text text-anchor="start" x="176.051" y="-539.212" font-family="Times,serif" font-size="14.00">create</text>
<text text-anchor="start" x="176.051" y="-522.412" font-family="Times,serif" font-size="14.00">destroy</text>
<text text-anchor="start" x="176.051" y="-505.612" font-family="Times,serif" font-size="14.00">edit</text>
<text text-anchor="start" x="176.051" y="-488.812" font-family="Times,serif" font-size="14.00">index</text>
<text text-anchor="start" x="176.051" y="-472.012" font-family="Times,serif" font-size="14.00">new</text>
<text text-anchor="start" x="176.051" y="-455.212" font-family="Times,serif" font-size="14.00">show</text>
<text text-anchor="start" x="176.051" y="-438.412" font-family="Times,serif" font-size="14.00">update</text>
<polyline fill="none" stroke="black" points="168.051,-431.612 275.83,-431.612 "/>
<polyline fill="none" stroke="black" points="168.051,-407.612 275.83,-407.612 "/>
<text text-anchor="start" x="176.051" y="-389.612" font-family="Times,serif" font-size="14.00">_layout</text>
</g>
<!-- ApplicationController&#45;&gt;ShopsController -->
<g id="edge10" class="edge"><title>ApplicationController&#45;&gt;ShopsController</title>
<path fill="none" stroke="black" d="M219.469,-340.448C219.697,-353.505 219.95,-368.084 220.206,-382.789"/>
</g>
<!-- UsersController -->
<g id="node8" class="node"><title>UsersController</title>
<polyline fill="none" stroke="black" points="11.6431,-97.5351 93.0708,-97.5351 "/>
<path fill="none" stroke="black" d="M93.0708,-97.5351C99.0708,-97.5351 105.071,-103.535 105.071,-109.535"/>
<polyline fill="none" stroke="black" points="105.071,-109.535 105.071,-284.735 "/>
<path fill="none" stroke="black" d="M105.071,-284.735C105.071,-290.735 99.0708,-296.735 93.0708,-296.735"/>
<polyline fill="none" stroke="black" points="93.0708,-296.735 11.6431,-296.735 "/>
<path fill="none" stroke="black" d="M11.6431,-296.735C5.64307,-296.735 -0.356934,-290.735 -0.356934,-284.735"/>
<polyline fill="none" stroke="black" points="-0.356934,-284.735 -0.356934,-109.535 "/>
<path fill="none" stroke="black" d="M-0.356934,-109.535C-0.356934,-103.535 5.64307,-97.5351 11.6431,-97.5351"/>
<text text-anchor="middle" x="52.3569" y="-278.735" font-family="Times,serif" font-size="14.00">UsersController</text>
<polyline fill="none" stroke="black" points="-0.356934,-271.935 105.071,-271.935 "/>
<text text-anchor="start" x="7.64307" y="-253.935" font-family="Times,serif" font-size="14.00">create</text>
<text text-anchor="start" x="7.64307" y="-237.135" font-family="Times,serif" font-size="14.00">destroy</text>
<text text-anchor="start" x="7.64307" y="-220.335" font-family="Times,serif" font-size="14.00">edit</text>
<text text-anchor="start" x="7.64307" y="-203.535" font-family="Times,serif" font-size="14.00">index</text>
<text text-anchor="start" x="7.64307" y="-186.735" font-family="Times,serif" font-size="14.00">new</text>
<text text-anchor="start" x="7.64307" y="-169.935" font-family="Times,serif" font-size="14.00">show</text>
<text text-anchor="start" x="7.64307" y="-153.135" font-family="Times,serif" font-size="14.00">update</text>
<polyline fill="none" stroke="black" points="-0.356934,-146.335 105.071,-146.335 "/>
<polyline fill="none" stroke="black" points="-0.356934,-122.335 105.071,-122.335 "/>
<text text-anchor="start" x="7.64307" y="-104.335" font-family="Times,serif" font-size="14.00">_layout</text>
</g>
<!-- ApplicationController&#45;&gt;UsersController -->
<g id="edge12" class="edge"><title>ApplicationController&#45;&gt;UsersController</title>
<path fill="none" stroke="black" d="M131.589,-241.968C122.633,-236.9 113.737,-231.866 105.318,-227.103"/>
</g>
</g>
</svg>
