<?xml version="1.0" encoding="UTF-8" standalone="no"?>
<!DOCTYPE svg PUBLIC "-//W3C//DTD SVG 1.1//EN"
 "http://www.w3.org/Graphics/SVG/1.1/DTD/svg11.dtd">
<!-- Generated by graphviz version 2.28.0 (20121111.0637)
 -->
<!-- Title: controllers_diagram Pages: 1 -->
<svg width="654pt" height="526pt"
 viewBox="0.00 0.00 653.98 526.15" xmlns="http://www.w3.org/2000/svg" xmlns:xlink="http://www.w3.org/1999/xlink">
<g id="graph1" class="graph" transform="scale(1 1) rotate(0) translate(4 522.152)">
<title>controllers_diagram</title>
<polygon fill="white" stroke="white" points="-4,5 -4,-522.152 650.979,-522.152 650.979,5 -4,5"/>
<!-- _diagram_info -->
<g id="node1" class="node"><title>_diagram_info</title>
<text text-anchor="start" x="447.555" y="-389" font-family="Times,serif" font-size="13.00">Controllers diagram</text>
<text text-anchor="start" x="447.555" y="-373.4" font-family="Times,serif" font-size="13.00">Date: Nov 20 2012 &#45; 10:47</text>
<text text-anchor="start" x="447.555" y="-357.8" font-family="Times,serif" font-size="13.00">Migration version: 20121112182035</text>
<text text-anchor="start" x="447.555" y="-342.2" font-family="Times,serif" font-size="13.00">Generated by RailRoady 1.1.0</text>
<text text-anchor="start" x="447.555" y="-326.6" font-family="Times,serif" font-size="13.00">http://railroady.prestonlee.com</text>
</g>
<!-- ApplicationController -->
<g id="node2" class="node"><title>ApplicationController</title>
<polyline fill="none" stroke="black" points="141.334,-201.908 312.969,-201.908 "/>
<path fill="none" stroke="black" d="M312.969,-201.908C318.969,-201.908 324.969,-207.908 324.969,-213.908"/>
<polyline fill="none" stroke="black" points="324.969,-213.908 324.969,-288.308 "/>
<path fill="none" stroke="black" d="M324.969,-288.308C324.969,-294.308 318.969,-300.308 312.969,-300.308"/>
<polyline fill="none" stroke="black" points="312.969,-300.308 141.334,-300.308 "/>
<path fill="none" stroke="black" d="M141.334,-300.308C135.334,-300.308 129.334,-294.308 129.334,-288.308"/>
<polyline fill="none" stroke="black" points="129.334,-288.308 129.334,-213.908 "/>
<path fill="none" stroke="black" d="M129.334,-213.908C129.334,-207.908 135.334,-201.908 141.334,-201.908"/>
<text text-anchor="middle" x="227.152" y="-282.308" font-family="Times,serif" font-size="14.00">ApplicationController</text>
<polyline fill="none" stroke="black" points="129.334,-275.508 324.969,-275.508 "/>
<text text-anchor="start" x="137.334" y="-257.508" font-family="Times,serif" font-size="14.00">_one_time_conditions_valid_8?</text>
<polyline fill="none" stroke="black" points="129.334,-250.708 324.969,-250.708 "/>
<polyline fill="none" stroke="black" points="129.334,-226.708 324.969,-226.708 "/>
<text text-anchor="start" x="137.334" y="-208.708" font-family="Times,serif" font-size="14.00">_layout</text>
</g>
<!-- FoodsController -->
<g id="node3" class="node"><title>FoodsController</title>
<polyline fill="none" stroke="black" points="353.146,-42.6606 436.925,-42.6606 "/>
<path fill="none" stroke="black" d="M436.925,-42.6606C442.925,-42.6606 448.925,-48.6606 448.925,-54.6606"/>
<polyline fill="none" stroke="black" points="448.925,-54.6606 448.925,-229.861 "/>
<path fill="none" stroke="black" d="M448.925,-229.861C448.925,-235.861 442.925,-241.861 436.925,-241.861"/>
<polyline fill="none" stroke="black" points="436.925,-241.861 353.146,-241.861 "/>
<path fill="none" stroke="black" d="M353.146,-241.861C347.146,-241.861 341.146,-235.861 341.146,-229.861"/>
<polyline fill="none" stroke="black" points="341.146,-229.861 341.146,-54.6606 "/>
<path fill="none" stroke="black" d="M341.146,-54.6606C341.146,-48.6606 347.146,-42.6606 353.146,-42.6606"/>
<text text-anchor="middle" x="395.036" y="-223.861" font-family="Times,serif" font-size="14.00">FoodsController</text>
<polyline fill="none" stroke="black" points="341.146,-217.061 448.925,-217.061 "/>
<text text-anchor="start" x="349.146" y="-199.061" font-family="Times,serif" font-size="14.00">create</text>
<text text-anchor="start" x="349.146" y="-182.261" font-family="Times,serif" font-size="14.00">destroy</text>
<text text-anchor="start" x="349.146" y="-165.461" font-family="Times,serif" font-size="14.00">edit</text>
<text text-anchor="start" x="349.146" y="-148.661" font-family="Times,serif" font-size="14.00">index</text>
<text text-anchor="start" x="349.146" y="-131.861" font-family="Times,serif" font-size="14.00">new</text>
<text text-anchor="start" x="349.146" y="-115.061" font-family="Times,serif" font-size="14.00">show</text>
<text text-anchor="start" x="349.146" y="-98.2606" font-family="Times,serif" font-size="14.00">update</text>
<polyline fill="none" stroke="black" points="341.146,-91.4606 448.925,-91.4606 "/>
<polyline fill="none" stroke="black" points="341.146,-67.4606 448.925,-67.4606 "/>
<text text-anchor="start" x="349.146" y="-49.4606" font-family="Times,serif" font-size="14.00">_layout</text>
</g>
<!-- ApplicationController&#45;&gt;FoodsController -->
<g id="edge2" class="edge"><title>ApplicationController&#45;&gt;FoodsController</title>
<path fill="none" stroke="black" d="M303.234,-201.78C315.901,-193.568 328.808,-185.199 340.789,-177.431"/>
</g>
<!-- PostsController -->
<g id="node4" class="node"><title>PostsController</title>
<polyline fill="none" stroke="black" points="78.9334,-0.5 158.051,-0.5 "/>
<path fill="none" stroke="black" d="M158.051,-0.5C164.051,-0.5 170.051,-6.5 170.051,-12.5"/>
<polyline fill="none" stroke="black" points="170.051,-12.5 170.051,-154.1 "/>
<path fill="none" stroke="black" d="M170.051,-154.1C170.051,-160.1 164.051,-166.1 158.051,-166.1"/>
<polyline fill="none" stroke="black" points="158.051,-166.1 78.9334,-166.1 "/>
<path fill="none" stroke="black" d="M78.9334,-166.1C72.9334,-166.1 66.9334,-160.1 66.9334,-154.1"/>
<polyline fill="none" stroke="black" points="66.9334,-154.1 66.9334,-12.5 "/>
<path fill="none" stroke="black" d="M66.9334,-12.5C66.9334,-6.5 72.9334,-0.5 78.9334,-0.5"/>
<text text-anchor="middle" x="118.492" y="-148.1" font-family="Times,serif" font-size="14.00">PostsController</text>
<polyline fill="none" stroke="black" points="66.9334,-141.3 170.051,-141.3 "/>
<text text-anchor="start" x="74.9334" y="-123.3" font-family="Times,serif" font-size="14.00">create</text>
<text text-anchor="start" x="74.9334" y="-106.5" font-family="Times,serif" font-size="14.00">destroy</text>
<text text-anchor="start" x="74.9334" y="-89.7" font-family="Times,serif" font-size="14.00">edit</text>
<text text-anchor="start" x="74.9334" y="-72.9" font-family="Times,serif" font-size="14.00">index</text>
<text text-anchor="start" x="74.9334" y="-56.1" font-family="Times,serif" font-size="14.00">update</text>
<polyline fill="none" stroke="black" points="66.9334,-49.3 170.051,-49.3 "/>
<polyline fill="none" stroke="black" points="66.9334,-25.3 170.051,-25.3 "/>
<text text-anchor="start" x="74.9334" y="-7.3" font-family="Times,serif" font-size="14.00">_layout</text>
</g>
<!-- ApplicationController&#45;&gt;PostsController -->
<g id="edge4" class="edge"><title>ApplicationController&#45;&gt;PostsController</title>
<path fill="none" stroke="black" d="M195.138,-201.668C187.313,-189.583 178.74,-176.344 170.251,-163.234"/>
</g>
<!-- SessionsController -->
<g id="node5" class="node"><title>SessionsController</title>
<polyline fill="none" stroke="black" points="11.5552,-295.509 109.334,-295.509 "/>
<path fill="none" stroke="black" d="M109.334,-295.509C115.334,-295.509 121.334,-301.509 121.334,-307.509"/>
<polyline fill="none" stroke="black" points="121.334,-307.509 121.334,-415.509 "/>
<path fill="none" stroke="black" d="M121.334,-415.509C121.334,-421.509 115.334,-427.509 109.334,-427.509"/>
<polyline fill="none" stroke="black" points="109.334,-427.509 11.5552,-427.509 "/>
<path fill="none" stroke="black" d="M11.5552,-427.509C5.55518,-427.509 -0.444824,-421.509 -0.444824,-415.509"/>
<polyline fill="none" stroke="black" points="-0.444824,-415.509 -0.444824,-307.509 "/>
<path fill="none" stroke="black" d="M-0.444824,-307.509C-0.444824,-301.509 5.55518,-295.509 11.5552,-295.509"/>
<text text-anchor="middle" x="60.4448" y="-409.509" font-family="Times,serif" font-size="14.00">SessionsController</text>
<polyline fill="none" stroke="black" points="-0.444824,-402.709 121.334,-402.709 "/>
<text text-anchor="start" x="7.55518" y="-384.709" font-family="Times,serif" font-size="14.00">create</text>
<text text-anchor="start" x="7.55518" y="-367.909" font-family="Times,serif" font-size="14.00">destroy</text>
<text text-anchor="start" x="7.55518" y="-351.109" font-family="Times,serif" font-size="14.00">new</text>
<polyline fill="none" stroke="black" points="-0.444824,-344.309 121.334,-344.309 "/>
<polyline fill="none" stroke="black" points="-0.444824,-320.309 121.334,-320.309 "/>
<text text-anchor="start" x="7.55518" y="-302.309" font-family="Times,serif" font-size="14.00">_layout</text>
</g>
<!-- ApplicationController&#45;&gt;SessionsController -->
<g id="edge6" class="edge"><title>ApplicationController&#45;&gt;SessionsController</title>
<path fill="none" stroke="black" d="M152.575,-300.496C142.172,-307.386 131.584,-314.397 121.47,-321.095"/>
</g>
<!-- UsersController -->
<g id="node6" class="node"><title>UsersController</title>
<polyline fill="none" stroke="black" points="296.816,-318.452 378.243,-318.452 "/>
<path fill="none" stroke="black" d="M378.243,-318.452C384.243,-318.452 390.243,-324.452 390.243,-330.452"/>
<polyline fill="none" stroke="black" points="390.243,-330.452 390.243,-505.652 "/>
<path fill="none" stroke="black" d="M390.243,-505.652C390.243,-511.652 384.243,-517.652 378.243,-517.652"/>
<polyline fill="none" stroke="black" points="378.243,-517.652 296.816,-517.652 "/>
<path fill="none" stroke="black" d="M296.816,-517.652C290.816,-517.652 284.816,-511.652 284.816,-505.652"/>
<polyline fill="none" stroke="black" points="284.816,-505.652 284.816,-330.452 "/>
<path fill="none" stroke="black" d="M284.816,-330.452C284.816,-324.452 290.816,-318.452 296.816,-318.452"/>
<text text-anchor="middle" x="337.53" y="-499.652" font-family="Times,serif" font-size="14.00">UsersController</text>
<polyline fill="none" stroke="black" points="284.816,-492.852 390.243,-492.852 "/>
<text text-anchor="start" x="292.816" y="-474.852" font-family="Times,serif" font-size="14.00">create</text>
<text text-anchor="start" x="292.816" y="-458.052" font-family="Times,serif" font-size="14.00">destroy</text>
<text text-anchor="start" x="292.816" y="-441.252" font-family="Times,serif" font-size="14.00">edit</text>
<text text-anchor="start" x="292.816" y="-424.452" font-family="Times,serif" font-size="14.00">index</text>
<text text-anchor="start" x="292.816" y="-407.652" font-family="Times,serif" font-size="14.00">new</text>
<text text-anchor="start" x="292.816" y="-390.852" font-family="Times,serif" font-size="14.00">show</text>
<text text-anchor="start" x="292.816" y="-374.052" font-family="Times,serif" font-size="14.00">update</text>
<polyline fill="none" stroke="black" points="284.816,-367.252 390.243,-367.252 "/>
<polyline fill="none" stroke="black" points="284.816,-343.252 390.243,-343.252 "/>
<text text-anchor="start" x="292.816" y="-325.252" font-family="Times,serif" font-size="14.00">_layout</text>
</g>
<!-- ApplicationController&#45;&gt;UsersController -->
<g id="edge8" class="edge"><title>ApplicationController&#45;&gt;UsersController</title>
<path fill="none" stroke="black" d="M259.97,-300.745C267.786,-312.567 276.323,-325.479 284.784,-338.275"/>
</g>
</g>
</svg>
