<?xml version="1.0" encoding="UTF-8" standalone="no"?>
<!DOCTYPE svg PUBLIC "-//W3C//DTD SVG 1.1//EN"
 "http://www.w3.org/Graphics/SVG/1.1/DTD/svg11.dtd">
<!-- Generated by graphviz version 2.28.0 (20121111.0637)
 -->
<!-- Title: controllers_diagram Pages: 1 -->
<svg width="666pt" height="586pt"
 viewBox="0.00 0.00 665.54 586.00" xmlns="http://www.w3.org/2000/svg" xmlns:xlink="http://www.w3.org/1999/xlink">
<g id="graph1" class="graph" transform="scale(1 1) rotate(0) translate(4 582)">
<title>controllers_diagram</title>
<polygon fill="white" stroke="white" points="-4,5 -4,-582 662.542,-582 662.542,5 -4,5"/>
<!-- _diagram_info -->
<g id="node1" class="node"><title>_diagram_info</title>
<text text-anchor="start" x="458.643" y="-561" font-family="Times,serif" font-size="13.00">Controllers diagram</text>
<text text-anchor="start" x="458.643" y="-545.4" font-family="Times,serif" font-size="13.00">Date: Nov 26 2012 &#45; 17:59</text>
<text text-anchor="start" x="458.643" y="-529.8" font-family="Times,serif" font-size="13.00">Migration version: 20121126235759</text>
<text text-anchor="start" x="458.643" y="-514.2" font-family="Times,serif" font-size="13.00">Generated by RailRoady 1.1.0</text>
<text text-anchor="start" x="458.643" y="-498.6" font-family="Times,serif" font-size="13.00">http://railroady.prestonlee.com</text>
</g>
<!-- ApplicationController -->
<g id="node2" class="node"><title>ApplicationController</title>
<polyline fill="none" stroke="black" points="132.795,-225.209 304.43,-225.209 "/>
<path fill="none" stroke="black" d="M304.43,-225.209C310.43,-225.209 316.43,-231.209 316.43,-237.209"/>
<polyline fill="none" stroke="black" points="316.43,-237.209 316.43,-311.609 "/>
<path fill="none" stroke="black" d="M316.43,-311.609C316.43,-317.609 310.43,-323.609 304.43,-323.609"/>
<polyline fill="none" stroke="black" points="304.43,-323.609 132.795,-323.609 "/>
<path fill="none" stroke="black" d="M132.795,-323.609C126.795,-323.609 120.795,-317.609 120.795,-311.609"/>
<polyline fill="none" stroke="black" points="120.795,-311.609 120.795,-237.209 "/>
<path fill="none" stroke="black" d="M120.795,-237.209C120.795,-231.209 126.795,-225.209 132.795,-225.209"/>
<text text-anchor="middle" x="218.612" y="-305.609" font-family="Times,serif" font-size="14.00">ApplicationController</text>
<polyline fill="none" stroke="black" points="120.795,-298.809 316.43,-298.809 "/>
<text text-anchor="start" x="128.795" y="-280.809" font-family="Times,serif" font-size="14.00">_one_time_conditions_valid_8?</text>
<polyline fill="none" stroke="black" points="120.795,-274.009 316.43,-274.009 "/>
<polyline fill="none" stroke="black" points="120.795,-250.009 316.43,-250.009 "/>
<text text-anchor="start" x="128.795" y="-232.009" font-family="Times,serif" font-size="14.00">_layout</text>
</g>
<!-- FoodsController -->
<g id="node3" class="node"><title>FoodsController</title>
<polyline fill="none" stroke="black" points="342.077,-78.6786 425.856,-78.6786 "/>
<path fill="none" stroke="black" d="M425.856,-78.6786C431.856,-78.6786 437.856,-84.6786 437.856,-90.6786"/>
<polyline fill="none" stroke="black" points="437.856,-90.6786 437.856,-265.879 "/>
<path fill="none" stroke="black" d="M437.856,-265.879C437.856,-271.879 431.856,-277.879 425.856,-277.879"/>
<polyline fill="none" stroke="black" points="425.856,-277.879 342.077,-277.879 "/>
<path fill="none" stroke="black" d="M342.077,-277.879C336.077,-277.879 330.077,-271.879 330.077,-265.879"/>
<polyline fill="none" stroke="black" points="330.077,-265.879 330.077,-90.6786 "/>
<path fill="none" stroke="black" d="M330.077,-90.6786C330.077,-84.6786 336.077,-78.6786 342.077,-78.6786"/>
<text text-anchor="middle" x="383.967" y="-259.879" font-family="Times,serif" font-size="14.00">FoodsController</text>
<polyline fill="none" stroke="black" points="330.077,-253.079 437.856,-253.079 "/>
<text text-anchor="start" x="338.077" y="-235.079" font-family="Times,serif" font-size="14.00">create</text>
<text text-anchor="start" x="338.077" y="-218.279" font-family="Times,serif" font-size="14.00">destroy</text>
<text text-anchor="start" x="338.077" y="-201.479" font-family="Times,serif" font-size="14.00">edit</text>
<text text-anchor="start" x="338.077" y="-184.679" font-family="Times,serif" font-size="14.00">index</text>
<text text-anchor="start" x="338.077" y="-167.879" font-family="Times,serif" font-size="14.00">new</text>
<text text-anchor="start" x="338.077" y="-151.079" font-family="Times,serif" font-size="14.00">show</text>
<text text-anchor="start" x="338.077" y="-134.279" font-family="Times,serif" font-size="14.00">update</text>
<polyline fill="none" stroke="black" points="330.077,-127.479 437.856,-127.479 "/>
<polyline fill="none" stroke="black" points="330.077,-103.479 437.856,-103.479 "/>
<text text-anchor="start" x="338.077" y="-85.4786" font-family="Times,serif" font-size="14.00">_layout</text>
</g>
<!-- ApplicationController&#45;&gt;FoodsController -->
<g id="edge2" class="edge"><title>ApplicationController&#45;&gt;FoodsController</title>
<path fill="none" stroke="black" d="M303.711,-224.936C312.574,-219.783 321.4,-214.652 329.78,-209.78"/>
</g>
<!-- PostsController -->
<g id="node4" class="node"><title>PostsController</title>
<polyline fill="none" stroke="black" points="178.67,-0.5 257.788,-0.5 "/>
<path fill="none" stroke="black" d="M257.788,-0.5C263.788,-0.5 269.788,-6.5 269.788,-12.5"/>
<polyline fill="none" stroke="black" points="269.788,-12.5 269.788,-154.1 "/>
<path fill="none" stroke="black" d="M269.788,-154.1C269.788,-160.1 263.788,-166.1 257.788,-166.1"/>
<polyline fill="none" stroke="black" points="257.788,-166.1 178.67,-166.1 "/>
<path fill="none" stroke="black" d="M178.67,-166.1C172.67,-166.1 166.67,-160.1 166.67,-154.1"/>
<polyline fill="none" stroke="black" points="166.67,-154.1 166.67,-12.5 "/>
<path fill="none" stroke="black" d="M166.67,-12.5C166.67,-6.5 172.67,-0.5 178.67,-0.5"/>
<text text-anchor="middle" x="218.229" y="-148.1" font-family="Times,serif" font-size="14.00">PostsController</text>
<polyline fill="none" stroke="black" points="166.67,-141.3 269.788,-141.3 "/>
<text text-anchor="start" x="174.67" y="-123.3" font-family="Times,serif" font-size="14.00">create</text>
<text text-anchor="start" x="174.67" y="-106.5" font-family="Times,serif" font-size="14.00">destroy</text>
<text text-anchor="start" x="174.67" y="-89.7" font-family="Times,serif" font-size="14.00">edit</text>
<text text-anchor="start" x="174.67" y="-72.9" font-family="Times,serif" font-size="14.00">index</text>
<text text-anchor="start" x="174.67" y="-56.1" font-family="Times,serif" font-size="14.00">update</text>
<polyline fill="none" stroke="black" points="166.67,-49.3 269.788,-49.3 "/>
<polyline fill="none" stroke="black" points="166.67,-25.3 269.788,-25.3 "/>
<text text-anchor="start" x="174.67" y="-7.3" font-family="Times,serif" font-size="14.00">_layout</text>
</g>
<!-- ApplicationController&#45;&gt;PostsController -->
<g id="edge4" class="edge"><title>ApplicationController&#45;&gt;PostsController</title>
<path fill="none" stroke="black" d="M218.514,-225.194C218.478,-207.277 218.436,-186.493 218.396,-166.45"/>
</g>
<!-- PricesController -->
<g id="node5" class="node"><title>PricesController</title>
<polyline fill="none" stroke="black" points="12.878,-289.922 96.6368,-289.922 "/>
<path fill="none" stroke="black" d="M96.6368,-289.922C102.637,-289.922 108.637,-295.922 108.637,-301.922"/>
<polyline fill="none" stroke="black" points="108.637,-301.922 108.637,-443.522 "/>
<path fill="none" stroke="black" d="M108.637,-443.522C108.637,-449.522 102.637,-455.522 96.6368,-455.522"/>
<polyline fill="none" stroke="black" points="96.6368,-455.522 12.878,-455.522 "/>
<path fill="none" stroke="black" d="M12.878,-455.522C6.87797,-455.522 0.877969,-449.522 0.877969,-443.522"/>
<polyline fill="none" stroke="black" points="0.877969,-443.522 0.877969,-301.922 "/>
<path fill="none" stroke="black" d="M0.877969,-301.922C0.877969,-295.922 6.87797,-289.922 12.878,-289.922"/>
<text text-anchor="middle" x="54.7574" y="-437.522" font-family="Times,serif" font-size="14.00">PricesController</text>
<polyline fill="none" stroke="black" points="0.877969,-430.722 108.637,-430.722 "/>
<text text-anchor="start" x="8.87797" y="-412.722" font-family="Times,serif" font-size="14.00">create</text>
<text text-anchor="start" x="8.87797" y="-395.922" font-family="Times,serif" font-size="14.00">destroy</text>
<text text-anchor="start" x="8.87797" y="-379.122" font-family="Times,serif" font-size="14.00">edit</text>
<text text-anchor="start" x="8.87797" y="-362.322" font-family="Times,serif" font-size="14.00">index</text>
<text text-anchor="start" x="8.87797" y="-345.522" font-family="Times,serif" font-size="14.00">update</text>
<polyline fill="none" stroke="black" points="0.877969,-338.722 108.637,-338.722 "/>
<polyline fill="none" stroke="black" points="0.877969,-314.722 108.637,-314.722 "/>
<text text-anchor="start" x="8.87797" y="-296.722" font-family="Times,serif" font-size="14.00">_layout</text>
</g>
<!-- ApplicationController&#45;&gt;PricesController -->
<g id="edge6" class="edge"><title>ApplicationController&#45;&gt;PricesController</title>
<path fill="none" stroke="black" d="M136.205,-323.854C126.96,-329.4 117.724,-334.942 108.967,-340.197"/>
</g>
<!-- SessionsController -->
<g id="node6" class="node"><title>SessionsController</title>
<polyline fill="none" stroke="black" points="336.43,-302.295 434.209,-302.295 "/>
<path fill="none" stroke="black" d="M434.209,-302.295C440.209,-302.295 446.209,-308.295 446.209,-314.295"/>
<polyline fill="none" stroke="black" points="446.209,-314.295 446.209,-422.295 "/>
<path fill="none" stroke="black" d="M446.209,-422.295C446.209,-428.295 440.209,-434.295 434.209,-434.295"/>
<polyline fill="none" stroke="black" points="434.209,-434.295 336.43,-434.295 "/>
<path fill="none" stroke="black" d="M336.43,-434.295C330.43,-434.295 324.43,-428.295 324.43,-422.295"/>
<polyline fill="none" stroke="black" points="324.43,-422.295 324.43,-314.295 "/>
<path fill="none" stroke="black" d="M324.43,-314.295C324.43,-308.295 330.43,-302.295 336.43,-302.295"/>
<text text-anchor="middle" x="385.319" y="-416.295" font-family="Times,serif" font-size="14.00">SessionsController</text>
<polyline fill="none" stroke="black" points="324.43,-409.495 446.209,-409.495 "/>
<text text-anchor="start" x="332.43" y="-391.495" font-family="Times,serif" font-size="14.00">create</text>
<text text-anchor="start" x="332.43" y="-374.695" font-family="Times,serif" font-size="14.00">destroy</text>
<text text-anchor="start" x="332.43" y="-357.895" font-family="Times,serif" font-size="14.00">new</text>
<polyline fill="none" stroke="black" points="324.43,-351.095 446.209,-351.095 "/>
<polyline fill="none" stroke="black" points="324.43,-327.095 446.209,-327.095 "/>
<text text-anchor="start" x="332.43" y="-309.095" font-family="Times,serif" font-size="14.00">_layout</text>
</g>
<!-- ApplicationController&#45;&gt;SessionsController -->
<g id="edge8" class="edge"><title>ApplicationController&#45;&gt;SessionsController</title>
<path fill="none" stroke="black" d="M306.36,-323.826C312.321,-327.184 318.253,-330.524 324.032,-333.779"/>
</g>
<!-- ShopsController -->
<g id="node7" class="node"><title>ShopsController</title>
<polyline fill="none" stroke="black" points="180.051,-366.012 263.83,-366.012 "/>
<path fill="none" stroke="black" d="M263.83,-366.012C269.83,-366.012 275.83,-372.012 275.83,-378.012"/>
<polyline fill="none" stroke="black" points="275.83,-378.012 275.83,-553.212 "/>
<path fill="none" stroke="black" d="M275.83,-553.212C275.83,-559.212 269.83,-565.212 263.83,-565.212"/>
<polyline fill="none" stroke="black" points="263.83,-565.212 180.051,-565.212 "/>
<path fill="none" stroke="black" d="M180.051,-565.212C174.051,-565.212 168.051,-559.212 168.051,-553.212"/>
<polyline fill="none" stroke="black" points="168.051,-553.212 168.051,-378.012 "/>
<path fill="none" stroke="black" d="M168.051,-378.012C168.051,-372.012 174.051,-366.012 180.051,-366.012"/>
<text text-anchor="middle" x="221.94" y="-547.212" font-family="Times,serif" font-size="14.00">ShopsController</text>
<polyline fill="none" stroke="black" points="168.051,-540.412 275.83,-540.412 "/>
<text text-anchor="start" x="176.051" y="-522.412" font-family="Times,serif" font-size="14.00">create</text>
<text text-anchor="start" x="176.051" y="-505.612" font-family="Times,serif" font-size="14.00">destroy</text>
<text text-anchor="start" x="176.051" y="-488.812" font-family="Times,serif" font-size="14.00">edit</text>
<text text-anchor="start" x="176.051" y="-472.012" font-family="Times,serif" font-size="14.00">index</text>
<text text-anchor="start" x="176.051" y="-455.212" font-family="Times,serif" font-size="14.00">new</text>
<text text-anchor="start" x="176.051" y="-438.412" font-family="Times,serif" font-size="14.00">show</text>
<text text-anchor="start" x="176.051" y="-421.612" font-family="Times,serif" font-size="14.00">update</text>
<polyline fill="none" stroke="black" points="168.051,-414.812 275.83,-414.812 "/>
<polyline fill="none" stroke="black" points="168.051,-390.812 275.83,-390.812 "/>
<text text-anchor="start" x="176.051" y="-372.812" font-family="Times,serif" font-size="14.00">_layout</text>
</g>
<!-- ApplicationController&#45;&gt;ShopsController -->
<g id="edge10" class="edge"><title>ApplicationController&#45;&gt;ShopsController</title>
<path fill="none" stroke="black" d="M219.469,-323.648C219.697,-336.705 219.95,-351.284 220.206,-365.989"/>
</g>
<!-- UsersController -->
<g id="node8" class="node"><title>UsersController</title>
<polyline fill="none" stroke="black" points="11.6431,-80.7351 93.0708,-80.7351 "/>
<path fill="none" stroke="black" d="M93.0708,-80.7351C99.0708,-80.7351 105.071,-86.7351 105.071,-92.7351"/>
<polyline fill="none" stroke="black" points="105.071,-92.7351 105.071,-267.935 "/>
<path fill="none" stroke="black" d="M105.071,-267.935C105.071,-273.935 99.0708,-279.935 93.0708,-279.935"/>
<polyline fill="none" stroke="black" points="93.0708,-279.935 11.6431,-279.935 "/>
<path fill="none" stroke="black" d="M11.6431,-279.935C5.64307,-279.935 -0.356934,-273.935 -0.356934,-267.935"/>
<polyline fill="none" stroke="black" points="-0.356934,-267.935 -0.356934,-92.7351 "/>
<path fill="none" stroke="black" d="M-0.356934,-92.7351C-0.356934,-86.7351 5.64307,-80.7351 11.6431,-80.7351"/>
<text text-anchor="middle" x="52.3569" y="-261.935" font-family="Times,serif" font-size="14.00">UsersController</text>
<polyline fill="none" stroke="black" points="-0.356934,-255.135 105.071,-255.135 "/>
<text text-anchor="start" x="7.64307" y="-237.135" font-family="Times,serif" font-size="14.00">create</text>
<text text-anchor="start" x="7.64307" y="-220.335" font-family="Times,serif" font-size="14.00">destroy</text>
<text text-anchor="start" x="7.64307" y="-203.535" font-family="Times,serif" font-size="14.00">edit</text>
<text text-anchor="start" x="7.64307" y="-186.735" font-family="Times,serif" font-size="14.00">index</text>
<text text-anchor="start" x="7.64307" y="-169.935" font-family="Times,serif" font-size="14.00">new</text>
<text text-anchor="start" x="7.64307" y="-153.135" font-family="Times,serif" font-size="14.00">show</text>
<text text-anchor="start" x="7.64307" y="-136.335" font-family="Times,serif" font-size="14.00">update</text>
<polyline fill="none" stroke="black" points="-0.356934,-129.535 105.071,-129.535 "/>
<polyline fill="none" stroke="black" points="-0.356934,-105.535 105.071,-105.535 "/>
<text text-anchor="start" x="7.64307" y="-87.5351" font-family="Times,serif" font-size="14.00">_layout</text>
</g>
<!-- ApplicationController&#45;&gt;UsersController -->
<g id="edge12" class="edge"><title>ApplicationController&#45;&gt;UsersController</title>
<path fill="none" stroke="black" d="M131.589,-225.168C122.633,-220.1 113.737,-215.066 105.318,-210.303"/>
</g>
</g>
</svg>
