<?xml version="1.0" encoding="UTF-8" standalone="no"?>
<!DOCTYPE svg PUBLIC "-//W3C//DTD SVG 1.1//EN"
 "http://www.w3.org/Graphics/SVG/1.1/DTD/svg11.dtd">
<!-- Generated by graphviz version 2.28.0 (20121111.0637)
 -->
<!-- Title: controllers_diagram Pages: 1 -->
<svg width="654pt" height="578pt"
 viewBox="0.00 0.00 654.46 578.00" xmlns="http://www.w3.org/2000/svg" xmlns:xlink="http://www.w3.org/1999/xlink">
<g id="graph1" class="graph" transform="scale(1 1) rotate(0) translate(4 574)">
<title>controllers_diagram</title>
<polygon fill="white" stroke="white" points="-4,5 -4,-574 651.46,-574 651.46,5 -4,5"/>
<!-- _diagram_info -->
<g id="node1" class="node"><title>_diagram_info</title>
<text text-anchor="start" x="447.56" y="-553" font-family="Times,serif" font-size="13.00">Controllers diagram</text>
<text text-anchor="start" x="447.56" y="-537.4" font-family="Times,serif" font-size="13.00">Date: Nov 26 2012 &#45; 17:41</text>
<text text-anchor="start" x="447.56" y="-521.8" font-family="Times,serif" font-size="13.00">Migration version: 20121126233515</text>
<text text-anchor="start" x="447.56" y="-506.2" font-family="Times,serif" font-size="13.00">Generated by RailRoady 1.1.0</text>
<text text-anchor="start" x="447.56" y="-490.6" font-family="Times,serif" font-size="13.00">http://railroady.prestonlee.com</text>
</g>
<!-- ApplicationController -->
<g id="node2" class="node"><title>ApplicationController</title>
<polyline fill="none" stroke="black" points="165.265,-208.7 336.9,-208.7 "/>
<path fill="none" stroke="black" d="M336.9,-208.7C342.9,-208.7 348.9,-214.7 348.9,-220.7"/>
<polyline fill="none" stroke="black" points="348.9,-220.7 348.9,-295.1 "/>
<path fill="none" stroke="black" d="M348.9,-295.1C348.9,-301.1 342.9,-307.1 336.9,-307.1"/>
<polyline fill="none" stroke="black" points="336.9,-307.1 165.265,-307.1 "/>
<path fill="none" stroke="black" d="M165.265,-307.1C159.265,-307.1 153.265,-301.1 153.265,-295.1"/>
<polyline fill="none" stroke="black" points="153.265,-295.1 153.265,-220.7 "/>
<path fill="none" stroke="black" d="M153.265,-220.7C153.265,-214.7 159.265,-208.7 165.265,-208.7"/>
<text text-anchor="middle" x="251.083" y="-289.1" font-family="Times,serif" font-size="14.00">ApplicationController</text>
<polyline fill="none" stroke="black" points="153.265,-282.3 348.9,-282.3 "/>
<text text-anchor="start" x="161.265" y="-264.3" font-family="Times,serif" font-size="14.00">_one_time_conditions_valid_8?</text>
<polyline fill="none" stroke="black" points="153.265,-257.5 348.9,-257.5 "/>
<polyline fill="none" stroke="black" points="153.265,-233.5 348.9,-233.5 "/>
<text text-anchor="start" x="161.265" y="-215.5" font-family="Times,serif" font-size="14.00">_layout</text>
</g>
<!-- FoodsController -->
<g id="node3" class="node"><title>FoodsController</title>
<polyline fill="none" stroke="black" points="340.037,-0.5 423.816,-0.5 "/>
<path fill="none" stroke="black" d="M423.816,-0.5C429.816,-0.5 435.816,-6.5 435.816,-12.5"/>
<polyline fill="none" stroke="black" points="435.816,-12.5 435.816,-187.7 "/>
<path fill="none" stroke="black" d="M435.816,-187.7C435.816,-193.7 429.816,-199.7 423.816,-199.7"/>
<polyline fill="none" stroke="black" points="423.816,-199.7 340.037,-199.7 "/>
<path fill="none" stroke="black" d="M340.037,-199.7C334.037,-199.7 328.037,-193.7 328.037,-187.7"/>
<polyline fill="none" stroke="black" points="328.037,-187.7 328.037,-12.5 "/>
<path fill="none" stroke="black" d="M328.037,-12.5C328.037,-6.5 334.037,-0.5 340.037,-0.5"/>
<text text-anchor="middle" x="381.927" y="-181.7" font-family="Times,serif" font-size="14.00">FoodsController</text>
<polyline fill="none" stroke="black" points="328.037,-174.9 435.816,-174.9 "/>
<text text-anchor="start" x="336.037" y="-156.9" font-family="Times,serif" font-size="14.00">create</text>
<text text-anchor="start" x="336.037" y="-140.1" font-family="Times,serif" font-size="14.00">destroy</text>
<text text-anchor="start" x="336.037" y="-123.3" font-family="Times,serif" font-size="14.00">edit</text>
<text text-anchor="start" x="336.037" y="-106.5" font-family="Times,serif" font-size="14.00">index</text>
<text text-anchor="start" x="336.037" y="-89.7" font-family="Times,serif" font-size="14.00">new</text>
<text text-anchor="start" x="336.037" y="-72.9" font-family="Times,serif" font-size="14.00">show</text>
<text text-anchor="start" x="336.037" y="-56.1" font-family="Times,serif" font-size="14.00">update</text>
<polyline fill="none" stroke="black" points="328.037,-49.3 435.816,-49.3 "/>
<polyline fill="none" stroke="black" points="328.037,-25.3 435.816,-25.3 "/>
<text text-anchor="start" x="336.037" y="-7.3" font-family="Times,serif" font-size="14.00">_layout</text>
</g>
<!-- ApplicationController&#45;&gt;FoodsController -->
<g id="edge2" class="edge"><title>ApplicationController&#45;&gt;FoodsController</title>
<path fill="none" stroke="black" d="M292.124,-208.404C303.44,-194.756 315.893,-179.738 327.827,-165.345"/>
</g>
<!-- PostsController -->
<g id="node4" class="node"><title>PostsController</title>
<polyline fill="none" stroke="black" points="101.13,-2.58622 180.248,-2.58622 "/>
<path fill="none" stroke="black" d="M180.248,-2.58622C186.248,-2.58622 192.248,-8.58622 192.248,-14.5862"/>
<polyline fill="none" stroke="black" points="192.248,-14.5862 192.248,-156.186 "/>
<path fill="none" stroke="black" d="M192.248,-156.186C192.248,-162.186 186.248,-168.186 180.248,-168.186"/>
<polyline fill="none" stroke="black" points="180.248,-168.186 101.13,-168.186 "/>
<path fill="none" stroke="black" d="M101.13,-168.186C95.1303,-168.186 89.1303,-162.186 89.1303,-156.186"/>
<polyline fill="none" stroke="black" points="89.1303,-156.186 89.1303,-14.5862 "/>
<path fill="none" stroke="black" d="M89.1303,-14.5862C89.1303,-8.58622 95.1303,-2.58622 101.13,-2.58622"/>
<text text-anchor="middle" x="140.689" y="-150.186" font-family="Times,serif" font-size="14.00">PostsController</text>
<polyline fill="none" stroke="black" points="89.1303,-143.386 192.248,-143.386 "/>
<text text-anchor="start" x="97.1303" y="-125.386" font-family="Times,serif" font-size="14.00">create</text>
<text text-anchor="start" x="97.1303" y="-108.586" font-family="Times,serif" font-size="14.00">destroy</text>
<text text-anchor="start" x="97.1303" y="-91.7862" font-family="Times,serif" font-size="14.00">edit</text>
<text text-anchor="start" x="97.1303" y="-74.9862" font-family="Times,serif" font-size="14.00">index</text>
<text text-anchor="start" x="97.1303" y="-58.1862" font-family="Times,serif" font-size="14.00">update</text>
<polyline fill="none" stroke="black" points="89.1303,-51.3862 192.248,-51.3862 "/>
<polyline fill="none" stroke="black" points="89.1303,-27.3862 192.248,-27.3862 "/>
<text text-anchor="start" x="97.1303" y="-9.38622" font-family="Times,serif" font-size="14.00">_layout</text>
</g>
<!-- ApplicationController&#45;&gt;PostsController -->
<g id="edge4" class="edge"><title>ApplicationController&#45;&gt;PostsController</title>
<path fill="none" stroke="black" d="M219.448,-208.464C210.974,-195.222 201.588,-180.555 192.336,-166.096"/>
</g>
<!-- PricesController -->
<g id="node5" class="node"><title>PricesController</title>
<polyline fill="none" stroke="black" points="11.5603,-228.949 95.3191,-228.949 "/>
<path fill="none" stroke="black" d="M95.3191,-228.949C101.319,-228.949 107.319,-234.949 107.319,-240.949"/>
<polyline fill="none" stroke="black" points="107.319,-240.949 107.319,-382.549 "/>
<path fill="none" stroke="black" d="M107.319,-382.549C107.319,-388.549 101.319,-394.549 95.3191,-394.549"/>
<polyline fill="none" stroke="black" points="95.3191,-394.549 11.5603,-394.549 "/>
<path fill="none" stroke="black" d="M11.5603,-394.549C5.5603,-394.549 -0.439697,-388.549 -0.439697,-382.549"/>
<polyline fill="none" stroke="black" points="-0.439697,-382.549 -0.439697,-240.949 "/>
<path fill="none" stroke="black" d="M-0.439697,-240.949C-0.439697,-234.949 5.5603,-228.949 11.5603,-228.949"/>
<text text-anchor="middle" x="53.4397" y="-376.549" font-family="Times,serif" font-size="14.00">PricesController</text>
<polyline fill="none" stroke="black" points="-0.439697,-369.749 107.319,-369.749 "/>
<text text-anchor="start" x="7.5603" y="-351.749" font-family="Times,serif" font-size="14.00">create</text>
<text text-anchor="start" x="7.5603" y="-334.949" font-family="Times,serif" font-size="14.00">destroy</text>
<text text-anchor="start" x="7.5603" y="-318.149" font-family="Times,serif" font-size="14.00">edit</text>
<text text-anchor="start" x="7.5603" y="-301.349" font-family="Times,serif" font-size="14.00">index</text>
<text text-anchor="start" x="7.5603" y="-284.549" font-family="Times,serif" font-size="14.00">update</text>
<polyline fill="none" stroke="black" points="-0.439697,-277.749 107.319,-277.749 "/>
<polyline fill="none" stroke="black" points="-0.439697,-253.749 107.319,-253.749 "/>
<text text-anchor="start" x="7.5603" y="-235.749" font-family="Times,serif" font-size="14.00">_layout</text>
</g>
<!-- ApplicationController&#45;&gt;PricesController -->
<g id="edge6" class="edge"><title>ApplicationController&#45;&gt;PricesController</title>
<path fill="none" stroke="black" d="M153.13,-284.588C137.405,-288.872 121.651,-293.165 107.46,-297.031"/>
</g>
<!-- SessionsController -->
<g id="node6" class="node"><title>SessionsController</title>
<polyline fill="none" stroke="black" points="393.403,-266.22 491.182,-266.22 "/>
<path fill="none" stroke="black" d="M491.182,-266.22C497.182,-266.22 503.182,-272.22 503.182,-278.22"/>
<polyline fill="none" stroke="black" points="503.182,-278.22 503.182,-386.22 "/>
<path fill="none" stroke="black" d="M503.182,-386.22C503.182,-392.22 497.182,-398.22 491.182,-398.22"/>
<polyline fill="none" stroke="black" points="491.182,-398.22 393.403,-398.22 "/>
<path fill="none" stroke="black" d="M393.403,-398.22C387.403,-398.22 381.403,-392.22 381.403,-386.22"/>
<polyline fill="none" stroke="black" points="381.403,-386.22 381.403,-278.22 "/>
<path fill="none" stroke="black" d="M381.403,-278.22C381.403,-272.22 387.403,-266.22 393.403,-266.22"/>
<text text-anchor="middle" x="442.293" y="-380.22" font-family="Times,serif" font-size="14.00">SessionsController</text>
<polyline fill="none" stroke="black" points="381.403,-373.42 503.182,-373.42 "/>
<text text-anchor="start" x="389.403" y="-355.42" font-family="Times,serif" font-size="14.00">create</text>
<text text-anchor="start" x="389.403" y="-338.62" font-family="Times,serif" font-size="14.00">destroy</text>
<text text-anchor="start" x="389.403" y="-321.82" font-family="Times,serif" font-size="14.00">new</text>
<polyline fill="none" stroke="black" points="381.403,-315.02 503.182,-315.02 "/>
<polyline fill="none" stroke="black" points="381.403,-291.02 503.182,-291.02 "/>
<text text-anchor="start" x="389.403" y="-273.02" font-family="Times,serif" font-size="14.00">_layout</text>
</g>
<!-- ApplicationController&#45;&gt;SessionsController -->
<g id="edge8" class="edge"><title>ApplicationController&#45;&gt;SessionsController</title>
<path fill="none" stroke="black" d="M348.928,-295.931C359.954,-300.216 370.941,-304.486 381.3,-308.513"/>
</g>
<!-- UsersController -->
<g id="node7" class="node"><title>UsersController</title>
<polyline fill="none" stroke="black" points="200.704,-363.125 282.132,-363.125 "/>
<path fill="none" stroke="black" d="M282.132,-363.125C288.132,-363.125 294.132,-369.125 294.132,-375.125"/>
<polyline fill="none" stroke="black" points="294.132,-375.125 294.132,-550.325 "/>
<path fill="none" stroke="black" d="M294.132,-550.325C294.132,-556.325 288.132,-562.325 282.132,-562.325"/>
<polyline fill="none" stroke="black" points="282.132,-562.325 200.704,-562.325 "/>
<path fill="none" stroke="black" d="M200.704,-562.325C194.704,-562.325 188.704,-556.325 188.704,-550.325"/>
<polyline fill="none" stroke="black" points="188.704,-550.325 188.704,-375.125 "/>
<path fill="none" stroke="black" d="M188.704,-375.125C188.704,-369.125 194.704,-363.125 200.704,-363.125"/>
<text text-anchor="middle" x="241.418" y="-544.325" font-family="Times,serif" font-size="14.00">UsersController</text>
<polyline fill="none" stroke="black" points="188.704,-537.525 294.132,-537.525 "/>
<text text-anchor="start" x="196.704" y="-519.525" font-family="Times,serif" font-size="14.00">create</text>
<text text-anchor="start" x="196.704" y="-502.725" font-family="Times,serif" font-size="14.00">destroy</text>
<text text-anchor="start" x="196.704" y="-485.925" font-family="Times,serif" font-size="14.00">edit</text>
<text text-anchor="start" x="196.704" y="-469.125" font-family="Times,serif" font-size="14.00">index</text>
<text text-anchor="start" x="196.704" y="-452.325" font-family="Times,serif" font-size="14.00">new</text>
<text text-anchor="start" x="196.704" y="-435.525" font-family="Times,serif" font-size="14.00">show</text>
<text text-anchor="start" x="196.704" y="-418.725" font-family="Times,serif" font-size="14.00">update</text>
<polyline fill="none" stroke="black" points="188.704,-411.925 294.132,-411.925 "/>
<polyline fill="none" stroke="black" points="188.704,-387.925 294.132,-387.925 "/>
<text text-anchor="start" x="196.704" y="-369.925" font-family="Times,serif" font-size="14.00">_layout</text>
</g>
<!-- ApplicationController&#45;&gt;UsersController -->
<g id="edge10" class="edge"><title>ApplicationController&#45;&gt;UsersController</title>
<path fill="none" stroke="black" d="M248.756,-307.221C247.962,-324.03 247.045,-343.477 246.133,-362.805"/>
</g>
</g>
</svg>
