<?xml version="1.0" encoding="UTF-8" standalone="no"?>
<!DOCTYPE svg PUBLIC "-//W3C//DTD SVG 1.1//EN"
 "http://www.w3.org/Graphics/SVG/1.1/DTD/svg11.dtd">
<!-- Generated by graphviz version 2.28.0 (20121111.0637)
 -->
<!-- Title: models_diagram Pages: 1 -->
<svg width="511pt" height="310pt"
 viewBox="0.00 0.00 511.00 310.00" xmlns="http://www.w3.org/2000/svg" xmlns:xlink="http://www.w3.org/1999/xlink">
<g id="graph1" class="graph" transform="scale(1 1) rotate(0) translate(4 306)">
<title>models_diagram</title>
<polygon fill="white" stroke="white" points="-4,5 -4,-306 508,-306 508,5 -4,5"/>
<!-- _diagram_info -->
<g id="node1" class="node"><title>_diagram_info</title>
<text text-anchor="start" x="7.78833" y="-285" font-family="Times,serif" font-size="13.00">Models diagram</text>
<text text-anchor="start" x="7.78833" y="-269.4" font-family="Times,serif" font-size="13.00">Date: Nov 26 2012 &#45; 19:01</text>
<text text-anchor="start" x="7.78833" y="-253.8" font-family="Times,serif" font-size="13.00">Migration version: 20121127005511</text>
<text text-anchor="start" x="7.78833" y="-238.2" font-family="Times,serif" font-size="13.00">Generated by RailRoady 1.1.0</text>
<text text-anchor="start" x="7.78833" y="-222.6" font-family="Times,serif" font-size="13.00">http://railroady.prestonlee.com</text>
</g>
<!-- Category -->
<g id="node2" class="node"><title>Category</title>
<ellipse fill="none" stroke="black" cx="271" cy="-259" rx="46.1519" ry="18"/>
<text text-anchor="middle" x="271" y="-253.4" font-family="Times,serif" font-size="14.00">Category</text>
</g>
<!-- Food -->
<g id="node3" class="node"><title>Food</title>
<ellipse fill="none" stroke="black" cx="274" cy="-162" rx="30.3409" ry="18"/>
<text text-anchor="middle" x="274" y="-156.4" font-family="Times,serif" font-size="14.00">Food</text>
</g>
<!-- Category&#45;&gt;Food -->
<g id="edge2" class="edge"><title>Category&#45;&gt;Food</title>
<path fill="none" stroke="#e3e465" d="M271.808,-232.414C272.215,-219.518 272.71,-203.862 273.126,-190.685"/>
<ellipse fill="none" stroke="#e3e465" cx="271.677" cy="-236.578" rx="4" ry="4"/>
<polygon fill="#e3e465" stroke="#e3e465" points="273.138,-190.309 277.951,-180.456 273.295,-185.312 273.453,-180.314 273.453,-180.314 273.453,-180.314 273.295,-185.312 268.955,-180.172 273.138,-190.309 273.138,-190.309"/>
</g>
<!-- Post -->
<g id="node5" class="node"><title>Post</title>
<ellipse fill="none" stroke="black" cx="354" cy="-18" rx="27.5142" ry="18"/>
<text text-anchor="middle" x="354" y="-12.4" font-family="Times,serif" font-size="14.00">Post</text>
</g>
<!-- Food&#45;&gt;Post -->
<g id="edge4" class="edge"><title>Food&#45;&gt;Post</title>
<path fill="none" stroke="#33fea8" d="M253.112,-140.149C237.044,-121.493 219.793,-93.8059 234,-72 252.325,-43.8733 289.33,-30.5655 317.429,-24.3364"/>
<ellipse fill="none" stroke="#33fea8" cx="255.795" cy="-143.133" rx="4.00002" ry="4.00002"/>
<polygon fill="#33fea8" stroke="#33fea8" points="317.523,-24.3175 328.214,-26.7592 322.425,-23.3325 327.327,-22.3474 327.327,-22.3474 327.327,-22.3474 322.425,-23.3325 326.441,-17.9356 317.523,-24.3175 317.523,-24.3175"/>
</g>
<!-- Price -->
<g id="node6" class="node"><title>Price</title>
<ellipse fill="none" stroke="black" cx="274" cy="-90" rx="30.32" ry="18"/>
<text text-anchor="middle" x="274" y="-84.4" font-family="Times,serif" font-size="14.00">Price</text>
</g>
<!-- Food&#45;&gt;Price -->
<g id="edge6" class="edge"><title>Food&#45;&gt;Price</title>
<path fill="none" stroke="#2b1646" d="M274,-135.64C274,-130.063 274,-124.132 274,-118.476"/>
<ellipse fill="none" stroke="#2b1646" cx="274" cy="-139.697" rx="4" ry="4"/>
<polygon fill="#2b1646" stroke="#2b1646" points="274,-118.104 278.5,-108.104 274,-113.104 274,-108.104 274,-108.104 274,-108.104 274,-113.104 269.5,-108.104 274,-118.104 274,-118.104"/>
</g>
<!-- Shop -->
<g id="node7" class="node"><title>Shop</title>
<ellipse fill="none" stroke="black" cx="354" cy="-90" rx="30.3409" ry="18"/>
<text text-anchor="middle" x="354" y="-84.4" font-family="Times,serif" font-size="14.00">Shop</text>
</g>
<!-- Food&#45;&gt;Shop -->
<g id="edge8" class="edge"><title>Food&#45;&gt;Shop</title>
<path fill="none" stroke="#1cebf7" d="M298.154,-139.865C308.256,-131.026 319.966,-120.78 330.046,-111.96"/>
<polygon fill="#1cebf7" stroke="#1cebf7" points="298.102,-139.911 287.613,-143.109 294.339,-143.203 290.576,-146.496 290.576,-146.496 290.576,-146.496 294.339,-143.203 293.539,-149.883 298.102,-139.911 298.102,-139.911"/>
<polygon fill="#1cebf7" stroke="#1cebf7" points="330.193,-111.831 340.682,-108.633 333.956,-108.538 337.719,-105.246 337.719,-105.246 337.719,-105.246 333.956,-108.538 334.756,-101.859 330.193,-111.831 330.193,-111.831"/>
</g>
<!-- Location -->
<g id="node4" class="node"><title>Location</title>
<ellipse fill="none" stroke="black" cx="458" cy="-259" rx="45.0398" ry="18"/>
<text text-anchor="middle" x="458" y="-253.4" font-family="Times,serif" font-size="14.00">Location</text>
</g>
<!-- Shop&#45;&gt;Post -->
<g id="edge10" class="edge"><title>Shop&#45;&gt;Post</title>
<path fill="none" stroke="#106ba7" d="M354,-63.6398C354,-58.0629 354,-52.1319 354,-46.4761"/>
<ellipse fill="none" stroke="#106ba7" cx="354" cy="-67.6966" rx="4" ry="4"/>
<polygon fill="#106ba7" stroke="#106ba7" points="354,-46.1043 358.5,-36.1043 354,-41.1043 354,-36.1043 354,-36.1043 354,-36.1043 354,-41.1043 349.5,-36.1044 354,-46.1043 354,-46.1043"/>
</g>
<!-- User -->
<g id="node8" class="node"><title>User</title>
<ellipse fill="none" stroke="black" cx="365" cy="-259" rx="28.9087" ry="18"/>
<text text-anchor="middle" x="365" y="-253.4" font-family="Times,serif" font-size="14.00">User</text>
</g>
<!-- User&#45;&gt;Food -->
<g id="edge12" class="edge"><title>User&#45;&gt;Food</title>
<path fill="none" stroke="#370d58" d="M345.553,-236.83C339.344,-230.132 332.417,-222.723 326,-216 316.308,-205.846 305.453,-194.741 296.178,-185.332"/>
<ellipse fill="none" stroke="#370d58" cx="348.304" cy="-239.805" rx="4.00002" ry="4.00002"/>
<polygon fill="#370d58" stroke="#370d58" points="296.159,-185.312 292.332,-175.036 292.645,-181.756 289.131,-178.199 289.131,-178.199 289.131,-178.199 292.645,-181.756 285.929,-181.362 296.159,-185.312 296.159,-185.312"/>
</g>
<!-- User&#45;&gt;Post -->
<g id="edge16" class="edge"><title>User&#45;&gt;Post</title>
<path fill="none" stroke="#d2a60c" d="M375.59,-233.816C389.847,-197.75 411.417,-128.103 393,-72 389.29,-60.6981 382.146,-49.8219 374.975,-40.8949"/>
<ellipse fill="none" stroke="#d2a60c" cx="374.01" cy="-237.698" rx="4.00001" ry="4.00001"/>
<polygon fill="#d2a60c" stroke="#d2a60c" points="374.974,-40.8931 371.902,-30.3661 371.727,-37.0907 368.48,-33.2882 368.48,-33.2882 368.48,-33.2882 371.727,-37.0907 365.058,-36.2104 374.974,-40.8931 374.974,-40.8931"/>
</g>
<!-- User&#45;&gt;Shop -->
<g id="edge14" class="edge"><title>User&#45;&gt;Shop</title>
<path fill="none" stroke="#b2307a" d="M363.329,-232.628C361.307,-201.933 357.915,-150.44 355.826,-118.726"/>
<ellipse fill="none" stroke="#b2307a" cx="363.601" cy="-236.766" rx="4" ry="4"/>
<polygon fill="#b2307a" stroke="#b2307a" points="355.803,-118.378 359.636,-108.104 355.475,-113.389 355.146,-108.399 355.146,-108.399 355.146,-108.399 355.475,-113.389 350.656,-108.695 355.803,-118.378 355.803,-118.378"/>
</g>
</g>
</svg>
