<?xml version="1.0" encoding="UTF-8" standalone="no"?>
<!DOCTYPE svg PUBLIC "-//W3C//DTD SVG 1.1//EN"
 "http://www.w3.org/Graphics/SVG/1.1/DTD/svg11.dtd">
<!-- Generated by graphviz version 2.28.0 (20121111.0637)
 -->
<!-- Title: models_diagram Pages: 1 -->
<svg width="293pt" height="166pt"
 viewBox="0.00 0.00 293.00 166.00" xmlns="http://www.w3.org/2000/svg" xmlns:xlink="http://www.w3.org/1999/xlink">
<g id="graph1" class="graph" transform="scale(1 1) rotate(0) translate(4 162)">
<title>models_diagram</title>
<polygon fill="white" stroke="white" points="-4,5 -4,-162 290,-162 290,5 -4,5"/>
<!-- _diagram_info -->
<g id="node1" class="node"><title>_diagram_info</title>
<text text-anchor="start" x="7.55029" y="-141" font-family="Times,serif" font-size="13.00">Models diagram</text>
<text text-anchor="start" x="7.55029" y="-125.4" font-family="Times,serif" font-size="13.00">Date: Nov 11 2012 &#45; 00:49</text>
<text text-anchor="start" x="7.55029" y="-109.8" font-family="Times,serif" font-size="13.00">Migration version: 20121107210148</text>
<text text-anchor="start" x="7.55029" y="-94.2" font-family="Times,serif" font-size="13.00">Generated by RailRoady 1.1.0</text>
<text text-anchor="start" x="7.55029" y="-78.6" font-family="Times,serif" font-size="13.00">http://railroady.prestonlee.com</text>
</g>
<!-- Food -->
<g id="node2" class="node"><title>Food</title>
<ellipse fill="none" stroke="black" cx="255" cy="-115" rx="30.3409" ry="18"/>
<text text-anchor="middle" x="255" y="-109.4" font-family="Times,serif" font-size="14.00">Food</text>
</g>
<!-- Post -->
<g id="node3" class="node"><title>Post</title>
<ellipse fill="none" stroke="black" cx="255" cy="-18" rx="27.5142" ry="18"/>
<text text-anchor="middle" x="255" y="-12.4" font-family="Times,serif" font-size="14.00">Post</text>
</g>
<!-- Food&#45;&gt;Post -->
<g id="edge2" class="edge"><title>Food&#45;&gt;Post</title>
<path fill="none" stroke="#3bc8ee" d="M255,-88.4138C255,-75.5178 255,-59.8618 255,-46.6847"/>
<ellipse fill="none" stroke="#3bc8ee" cx="255" cy="-92.5755" rx="4" ry="4"/>
<polygon fill="#3bc8ee" stroke="#3bc8ee" points="255,-46.314 259.5,-36.314 255,-41.314 255,-36.314 255,-36.314 255,-36.314 255,-41.314 250.5,-36.314 255,-46.314 255,-46.314"/>
</g>
</g>
</svg>
