<?xml version="1.0" encoding="UTF-8" standalone="no"?>
<!DOCTYPE svg PUBLIC "-//W3C//DTD SVG 1.1//EN"
 "http://www.w3.org/Graphics/SVG/1.1/DTD/svg11.dtd">
<!-- Generated by graphviz version 2.28.0 (20121111.0637)
 -->
<!-- Title: models_diagram Pages: 1 -->
<svg width="511pt" height="238pt"
 viewBox="0.00 0.00 511.00 238.00" xmlns="http://www.w3.org/2000/svg" xmlns:xlink="http://www.w3.org/1999/xlink">
<g id="graph1" class="graph" transform="scale(1 1) rotate(0) translate(4 234)">
<title>models_diagram</title>
<polygon fill="white" stroke="white" points="-4,5 -4,-234 508,-234 508,5 -4,5"/>
<!-- _diagram_info -->
<g id="node1" class="node"><title>_diagram_info</title>
<text text-anchor="start" x="7.55029" y="-213" font-family="Times,serif" font-size="13.00">Models diagram</text>
<text text-anchor="start" x="7.55029" y="-197.4" font-family="Times,serif" font-size="13.00">Date: Nov 26 2012 &#45; 18:09</text>
<text text-anchor="start" x="7.55029" y="-181.8" font-family="Times,serif" font-size="13.00">Migration version: 20121127000641</text>
<text text-anchor="start" x="7.55029" y="-166.2" font-family="Times,serif" font-size="13.00">Generated by RailRoady 1.1.0</text>
<text text-anchor="start" x="7.55029" y="-150.6" font-family="Times,serif" font-size="13.00">http://railroady.prestonlee.com</text>
</g>
<!-- Category -->
<g id="node2" class="node"><title>Category</title>
<ellipse fill="none" stroke="black" cx="271" cy="-187" rx="46.1519" ry="18"/>
<text text-anchor="middle" x="271" y="-181.4" font-family="Times,serif" font-size="14.00">Category</text>
</g>
<!-- Food -->
<g id="node3" class="node"><title>Food</title>
<ellipse fill="none" stroke="black" cx="285" cy="-90" rx="30.3409" ry="18"/>
<text text-anchor="middle" x="285" y="-84.4" font-family="Times,serif" font-size="14.00">Food</text>
</g>
<!-- Category&#45;&gt;Food -->
<g id="edge2" class="edge"><title>Category&#45;&gt;Food</title>
<path fill="none" stroke="#85e88f" d="M274.712,-160.813C276.645,-147.694 279.011,-131.639 280.987,-118.233"/>
<ellipse fill="none" stroke="#85e88f" cx="274.086" cy="-165.059" rx="4.00001" ry="4.00001"/>
<polygon fill="#85e88f" stroke="#85e88f" points="281.014,-118.051 286.923,-108.813 281.743,-113.104 282.472,-108.157 282.472,-108.157 282.472,-108.157 281.743,-113.104 278.02,-107.501 281.014,-118.051 281.014,-118.051"/>
</g>
<!-- Post -->
<g id="node5" class="node"><title>Post</title>
<ellipse fill="none" stroke="black" cx="208" cy="-18" rx="27.5142" ry="18"/>
<text text-anchor="middle" x="208" y="-12.4" font-family="Times,serif" font-size="14.00">Post</text>
</g>
<!-- Food&#45;&gt;Post -->
<g id="edge4" class="edge"><title>Food&#45;&gt;Post</title>
<path fill="none" stroke="#0757b0" d="M263.094,-69.0859C253.095,-59.9954 241.249,-49.226 231.108,-40.0071"/>
<ellipse fill="none" stroke="#0757b0" cx="266.086" cy="-71.8052" rx="4.00002" ry="4.00002"/>
<polygon fill="#0757b0" stroke="#0757b0" points="230.808,-39.7346 226.436,-29.6781 227.108,-36.3712 223.409,-33.0078 223.409,-33.0078 223.409,-33.0078 227.108,-36.3712 220.382,-36.3375 230.808,-39.7346 230.808,-39.7346"/>
</g>
<!-- Price -->
<g id="node6" class="node"><title>Price</title>
<ellipse fill="none" stroke="black" cx="285" cy="-18" rx="30.32" ry="18"/>
<text text-anchor="middle" x="285" y="-12.4" font-family="Times,serif" font-size="14.00">Price</text>
</g>
<!-- Food&#45;&gt;Price -->
<g id="edge6" class="edge"><title>Food&#45;&gt;Price</title>
<path fill="none" stroke="#804c10" d="M285,-63.6398C285,-58.0629 285,-52.1319 285,-46.4761"/>
<ellipse fill="none" stroke="#804c10" cx="285" cy="-67.6966" rx="4" ry="4"/>
<polygon fill="#804c10" stroke="#804c10" points="285,-46.1043 289.5,-36.1043 285,-41.1043 285,-36.1043 285,-36.1043 285,-36.1043 285,-41.1043 280.5,-36.1044 285,-46.1043 285,-46.1043"/>
</g>
<!-- Shop -->
<g id="node7" class="node"><title>Shop</title>
<ellipse fill="none" stroke="black" cx="365" cy="-18" rx="30.3409" ry="18"/>
<text text-anchor="middle" x="365" y="-12.4" font-family="Times,serif" font-size="14.00">Shop</text>
</g>
<!-- Food&#45;&gt;Shop -->
<g id="edge8" class="edge"><title>Food&#45;&gt;Shop</title>
<path fill="none" stroke="#9acc9b" d="M309.154,-67.8649C319.256,-59.026 330.966,-48.7799 341.046,-39.9597"/>
<polygon fill="#9acc9b" stroke="#9acc9b" points="309.102,-67.9109 298.613,-71.1093 305.339,-71.2034 301.576,-74.496 301.576,-74.496 301.576,-74.496 305.339,-71.2034 304.539,-77.8826 309.102,-67.9109 309.102,-67.9109"/>
<polygon fill="#9acc9b" stroke="#9acc9b" points="341.193,-39.831 351.682,-36.6326 344.956,-36.5385 348.719,-33.246 348.719,-33.246 348.719,-33.246 344.956,-36.5385 345.756,-29.8594 341.193,-39.831 341.193,-39.831"/>
</g>
<!-- Location -->
<g id="node4" class="node"><title>Location</title>
<ellipse fill="none" stroke="black" cx="458" cy="-187" rx="45.0398" ry="18"/>
<text text-anchor="middle" x="458" y="-181.4" font-family="Times,serif" font-size="14.00">Location</text>
</g>
<!-- User -->
<g id="node8" class="node"><title>User</title>
<ellipse fill="none" stroke="black" cx="365" cy="-187" rx="28.9087" ry="18"/>
<text text-anchor="middle" x="365" y="-181.4" font-family="Times,serif" font-size="14.00">User</text>
</g>
<!-- User&#45;&gt;Food -->
<g id="edge10" class="edge"><title>User&#45;&gt;Food</title>
<path fill="none" stroke="#7b38e4" d="M346.963,-164.581C334.428,-149.696 317.722,-129.858 304.816,-114.532"/>
<ellipse fill="none" stroke="#7b38e4" cx="349.57" cy="-167.677" rx="4.00002" ry="4.00002"/>
<polygon fill="#7b38e4" stroke="#7b38e4" points="304.529,-114.19 301.529,-103.642 301.308,-110.366 298.087,-106.541 298.087,-106.541 298.087,-106.541 301.308,-110.366 294.645,-109.44 304.529,-114.19 304.529,-114.19"/>
</g>
<!-- User&#45;&gt;Shop -->
<g id="edge12" class="edge"><title>User&#45;&gt;Shop</title>
<path fill="none" stroke="#36c874" d="M365,-160.628C365,-129.933 365,-78.4404 365,-46.7258"/>
<ellipse fill="none" stroke="#36c874" cx="365" cy="-164.757" rx="4" ry="4"/>
<polygon fill="#36c874" stroke="#36c874" points="365,-46.3993 369.5,-36.3993 365,-41.3993 365,-36.3993 365,-36.3993 365,-36.3993 365,-41.3993 360.5,-36.3994 365,-46.3993 365,-46.3993"/>
</g>
</g>
</svg>
