<?xml version="1.0" encoding="UTF-8" standalone="no"?>
<!DOCTYPE svg PUBLIC "-//W3C//DTD SVG 1.1//EN"
 "http://www.w3.org/Graphics/SVG/1.1/DTD/svg11.dtd">
<!-- Generated by graphviz version 2.28.0 (20121111.0637)
 -->
<!-- Title: models_diagram Pages: 1 -->
<svg width="685pt" height="792pt"
 viewBox="0.00 0.00 685.00 792.00" xmlns="http://www.w3.org/2000/svg" xmlns:xlink="http://www.w3.org/1999/xlink">
<g id="graph1" class="graph" transform="scale(1 1) rotate(0) translate(4 788)">
<title>models_diagram</title>
<polygon fill="white" stroke="white" points="-4,5 -4,-788 682,-788 682,5 -4,5"/>
<!-- _diagram_info -->
<g id="node1" class="node"><title>_diagram_info</title>
<text text-anchor="start" x="7.78833" y="-717" font-family="Times,serif" font-size="13.00">Models diagram</text>
<text text-anchor="start" x="7.78833" y="-701.4" font-family="Times,serif" font-size="13.00">Date: Nov 26 2012 &#45; 21:45</text>
<text text-anchor="start" x="7.78833" y="-685.8" font-family="Times,serif" font-size="13.00">Migration version: 20121127005511</text>
<text text-anchor="start" x="7.78833" y="-670.2" font-family="Times,serif" font-size="13.00">Generated by RailRoady 1.1.0</text>
<text text-anchor="start" x="7.78833" y="-654.6" font-family="Times,serif" font-size="13.00">http://railroady.prestonlee.com</text>
</g>
<!-- Category -->
<g id="node2" class="node"><title>Category</title>
<polyline fill="none" stroke="black" points="235.933,-641 348.067,-641 "/>
<path fill="none" stroke="black" d="M348.067,-641C354.067,-641 360.067,-647 360.067,-653"/>
<polyline fill="none" stroke="black" points="360.067,-653 360.067,-729 "/>
<path fill="none" stroke="black" d="M360.067,-729C360.067,-735 354.067,-741 348.067,-741"/>
<polyline fill="none" stroke="black" points="348.067,-741 235.933,-741 "/>
<path fill="none" stroke="black" d="M235.933,-741C229.933,-741 223.933,-735 223.933,-729"/>
<polyline fill="none" stroke="black" points="223.933,-729 223.933,-653 "/>
<path fill="none" stroke="black" d="M223.933,-653C223.933,-647 229.933,-641 235.933,-641"/>
<text text-anchor="middle" x="292" y="-723" font-family="Times,serif" font-size="14.00">Category</text>
<polyline fill="none" stroke="black" points="223.933,-716.2 360.067,-716.2 "/>
<text text-anchor="start" x="231.933" y="-698.2" font-family="Times,serif" font-size="14.00">id :integer</text>
<text text-anchor="start" x="231.933" y="-681.4" font-family="Times,serif" font-size="14.00">food_category :string</text>
<text text-anchor="start" x="231.933" y="-664.6" font-family="Times,serif" font-size="14.00">created_at :datetime</text>
<text text-anchor="start" x="231.933" y="-647.8" font-family="Times,serif" font-size="14.00">updated_at :datetime</text>
</g>
<!-- Food -->
<g id="node3" class="node"><title>Food</title>
<polyline fill="none" stroke="black" points="239.495,-394.4 348.505,-394.4 "/>
<path fill="none" stroke="black" d="M348.505,-394.4C354.505,-394.4 360.505,-400.4 360.505,-406.4"/>
<polyline fill="none" stroke="black" points="360.505,-406.4 360.505,-549.6 "/>
<path fill="none" stroke="black" d="M360.505,-549.6C360.505,-555.6 354.505,-561.6 348.505,-561.6"/>
<polyline fill="none" stroke="black" points="348.505,-561.6 239.495,-561.6 "/>
<path fill="none" stroke="black" d="M239.495,-561.6C233.495,-561.6 227.495,-555.6 227.495,-549.6"/>
<polyline fill="none" stroke="black" points="227.495,-549.6 227.495,-406.4 "/>
<path fill="none" stroke="black" d="M227.495,-406.4C227.495,-400.4 233.495,-394.4 239.495,-394.4"/>
<text text-anchor="middle" x="294" y="-543.6" font-family="Times,serif" font-size="14.00">Food</text>
<polyline fill="none" stroke="black" points="227.495,-536.8 360.505,-536.8 "/>
<text text-anchor="start" x="235.495" y="-518.8" font-family="Times,serif" font-size="14.00">id :integer</text>
<text text-anchor="start" x="235.495" y="-502" font-family="Times,serif" font-size="14.00">name :string</text>
<text text-anchor="start" x="235.495" y="-485.2" font-family="Times,serif" font-size="14.00">picture :string</text>
<text text-anchor="start" x="235.495" y="-468.4" font-family="Times,serif" font-size="14.00">category_id :integer</text>
<text text-anchor="start" x="235.495" y="-451.6" font-family="Times,serif" font-size="14.00">created_at :datetime</text>
<text text-anchor="start" x="235.495" y="-434.8" font-family="Times,serif" font-size="14.00">updated_at :datetime</text>
<text text-anchor="start" x="235.495" y="-418" font-family="Times,serif" font-size="14.00">user_id :integer</text>
<text text-anchor="start" x="235.495" y="-401.2" font-family="Times,serif" font-size="14.00">price_id :integer</text>
</g>
<!-- Category&#45;&gt;Food -->
<g id="edge2" class="edge"><title>Category&#45;&gt;Food</title>
<path fill="none" stroke="#2c7f5c" d="M292.544,-632.617C292.722,-613.869 292.924,-592.54 293.12,-571.869"/>
<ellipse fill="none" stroke="#2c7f5c" cx="292.504" cy="-636.796" rx="4" ry="4"/>
<polygon fill="#2c7f5c" stroke="#2c7f5c" points="293.12,-571.787 297.715,-561.83 293.168,-566.788 293.215,-561.788 293.215,-561.788 293.215,-561.788 293.168,-566.788 288.715,-561.745 293.12,-571.787 293.12,-571.787"/>
</g>
<!-- Post -->
<g id="node5" class="node"><title>Post</title>
<polyline fill="none" stroke="black" points="390.481,-1 499.519,-1 "/>
<path fill="none" stroke="black" d="M499.519,-1C505.519,-1 511.519,-7 511.519,-13"/>
<polyline fill="none" stroke="black" points="511.519,-13 511.519,-173 "/>
<path fill="none" stroke="black" d="M511.519,-173C511.519,-179 505.519,-185 499.519,-185"/>
<polyline fill="none" stroke="black" points="499.519,-185 390.481,-185 "/>
<path fill="none" stroke="black" d="M390.481,-185C384.481,-185 378.481,-179 378.481,-173"/>
<polyline fill="none" stroke="black" points="378.481,-173 378.481,-13 "/>
<path fill="none" stroke="black" d="M378.481,-13C378.481,-7 384.481,-1 390.481,-1"/>
<text text-anchor="middle" x="445" y="-167" font-family="Times,serif" font-size="14.00">Post</text>
<polyline fill="none" stroke="black" points="378.481,-160.2 511.519,-160.2 "/>
<text text-anchor="start" x="386.481" y="-142.2" font-family="Times,serif" font-size="14.00">id :integer</text>
<text text-anchor="start" x="386.481" y="-125.4" font-family="Times,serif" font-size="14.00">note :text</text>
<text text-anchor="start" x="386.481" y="-108.6" font-family="Times,serif" font-size="14.00">rating :integer</text>
<text text-anchor="start" x="386.481" y="-91.8" font-family="Times,serif" font-size="14.00">picture :string</text>
<text text-anchor="start" x="386.481" y="-75" font-family="Times,serif" font-size="14.00">postable_id :integer</text>
<text text-anchor="start" x="386.481" y="-58.2" font-family="Times,serif" font-size="14.00">created_at :datetime</text>
<text text-anchor="start" x="386.481" y="-41.4" font-family="Times,serif" font-size="14.00">updated_at :datetime</text>
<text text-anchor="start" x="386.481" y="-24.6" font-family="Times,serif" font-size="14.00">user_id :integer</text>
<text text-anchor="start" x="386.481" y="-7.8" font-family="Times,serif" font-size="14.00">postable_type :string</text>
</g>
<!-- Food&#45;&gt;Post -->
<g id="edge4" class="edge"><title>Food&#45;&gt;Post</title>
<path fill="none" stroke="#55482f" d="M229.463,-387.164C224.841,-377.649 220.875,-367.844 218,-358 201.053,-299.98 187.512,-274.192 218,-222 250.279,-166.742 316.187,-133.471 368.709,-114.759"/>
<ellipse fill="none" stroke="#55482f" cx="231.311" cy="-390.812" rx="4.00002" ry="4.00002"/>
<polygon fill="#55482f" stroke="#55482f" points="368.896,-114.694 379.817,-115.686 373.622,-113.063 378.349,-111.432 378.349,-111.432 378.349,-111.432 373.622,-113.063 376.881,-107.178 368.896,-114.694 368.896,-114.694"/>
</g>
<!-- Price -->
<g id="node6" class="node"><title>Price</title>
<polyline fill="none" stroke="black" points="239.495,-231.6 348.505,-231.6 "/>
<path fill="none" stroke="black" d="M348.505,-231.6C354.505,-231.6 360.505,-237.6 360.505,-243.6"/>
<polyline fill="none" stroke="black" points="360.505,-243.6 360.505,-336.4 "/>
<path fill="none" stroke="black" d="M360.505,-336.4C360.505,-342.4 354.505,-348.4 348.505,-348.4"/>
<polyline fill="none" stroke="black" points="348.505,-348.4 239.495,-348.4 "/>
<path fill="none" stroke="black" d="M239.495,-348.4C233.495,-348.4 227.495,-342.4 227.495,-336.4"/>
<polyline fill="none" stroke="black" points="227.495,-336.4 227.495,-243.6 "/>
<path fill="none" stroke="black" d="M227.495,-243.6C227.495,-237.6 233.495,-231.6 239.495,-231.6"/>
<text text-anchor="middle" x="294" y="-330.4" font-family="Times,serif" font-size="14.00">Price</text>
<polyline fill="none" stroke="black" points="227.495,-323.6 360.505,-323.6 "/>
<text text-anchor="start" x="235.495" y="-305.6" font-family="Times,serif" font-size="14.00">id :integer</text>
<text text-anchor="start" x="235.495" y="-288.8" font-family="Times,serif" font-size="14.00">price :decimal</text>
<text text-anchor="start" x="235.495" y="-272" font-family="Times,serif" font-size="14.00">created_at :datetime</text>
<text text-anchor="start" x="235.495" y="-255.2" font-family="Times,serif" font-size="14.00">updated_at :datetime</text>
<text text-anchor="start" x="235.495" y="-238.4" font-family="Times,serif" font-size="14.00">food_id :integer</text>
</g>
<!-- Food&#45;&gt;Price -->
<g id="edge6" class="edge"><title>Food&#45;&gt;Price</title>
<path fill="none" stroke="#ad9d4a" d="M294,-385.991C294,-376.847 294,-367.677 294,-358.836"/>
<ellipse fill="none" stroke="#ad9d4a" cx="294" cy="-390.335" rx="4" ry="4"/>
<polygon fill="#ad9d4a" stroke="#ad9d4a" points="294,-358.628 298.5,-348.628 294,-353.628 294,-348.628 294,-348.628 294,-348.628 294,-353.628 289.5,-348.628 294,-358.628 294,-358.628"/>
</g>
<!-- Shop -->
<g id="node7" class="node"><title>Shop</title>
<polyline fill="none" stroke="black" points="390.495,-223.2 499.505,-223.2 "/>
<path fill="none" stroke="black" d="M499.505,-223.2C505.505,-223.2 511.505,-229.2 511.505,-235.2"/>
<polyline fill="none" stroke="black" points="511.505,-235.2 511.505,-344.8 "/>
<path fill="none" stroke="black" d="M511.505,-344.8C511.505,-350.8 505.505,-356.8 499.505,-356.8"/>
<polyline fill="none" stroke="black" points="499.505,-356.8 390.495,-356.8 "/>
<path fill="none" stroke="black" d="M390.495,-356.8C384.495,-356.8 378.495,-350.8 378.495,-344.8"/>
<polyline fill="none" stroke="black" points="378.495,-344.8 378.495,-235.2 "/>
<path fill="none" stroke="black" d="M378.495,-235.2C378.495,-229.2 384.495,-223.2 390.495,-223.2"/>
<text text-anchor="middle" x="445" y="-338.8" font-family="Times,serif" font-size="14.00">Shop</text>
<polyline fill="none" stroke="black" points="378.495,-332 511.505,-332 "/>
<text text-anchor="start" x="386.495" y="-314" font-family="Times,serif" font-size="14.00">id :integer</text>
<text text-anchor="start" x="386.495" y="-297.2" font-family="Times,serif" font-size="14.00">name :string</text>
<text text-anchor="start" x="386.495" y="-280.4" font-family="Times,serif" font-size="14.00">address :string</text>
<text text-anchor="start" x="386.495" y="-263.6" font-family="Times,serif" font-size="14.00">created_at :datetime</text>
<text text-anchor="start" x="386.495" y="-246.8" font-family="Times,serif" font-size="14.00">updated_at :datetime</text>
<text text-anchor="start" x="386.495" y="-230" font-family="Times,serif" font-size="14.00">user_id :integer</text>
</g>
<!-- Food&#45;&gt;Shop -->
<g id="edge8" class="edge"><title>Food&#45;&gt;Shop</title>
<path fill="none" stroke="#86e3d3" d="M367.192,-386.843C373.178,-379.47 379.183,-372.073 385.056,-364.838"/>
<polygon fill="#86e3d3" stroke="#86e3d3" points="366.973,-387.113 357.177,-392.04 363.822,-390.994 360.67,-394.876 360.67,-394.876 360.67,-394.876 363.822,-390.994 364.164,-397.713 366.973,-387.113 366.973,-387.113"/>
<polygon fill="#86e3d3" stroke="#86e3d3" points="385.068,-364.823 394.865,-359.896 388.22,-360.941 391.371,-357.059 391.371,-357.059 391.371,-357.059 388.22,-360.941 387.877,-354.223 385.068,-364.823 385.068,-364.823"/>
</g>
<!-- Location -->
<g id="node4" class="node"><title>Location</title>
<polyline fill="none" stroke="black" points="556.495,-632.6 665.505,-632.6 "/>
<path fill="none" stroke="black" d="M665.505,-632.6C671.505,-632.6 677.505,-638.6 677.505,-644.6"/>
<polyline fill="none" stroke="black" points="677.505,-644.6 677.505,-737.4 "/>
<path fill="none" stroke="black" d="M677.505,-737.4C677.505,-743.4 671.505,-749.4 665.505,-749.4"/>
<polyline fill="none" stroke="black" points="665.505,-749.4 556.495,-749.4 "/>
<path fill="none" stroke="black" d="M556.495,-749.4C550.495,-749.4 544.495,-743.4 544.495,-737.4"/>
<polyline fill="none" stroke="black" points="544.495,-737.4 544.495,-644.6 "/>
<path fill="none" stroke="black" d="M544.495,-644.6C544.495,-638.6 550.495,-632.6 556.495,-632.6"/>
<text text-anchor="middle" x="611" y="-731.4" font-family="Times,serif" font-size="14.00">Location</text>
<polyline fill="none" stroke="black" points="544.495,-724.6 677.505,-724.6 "/>
<text text-anchor="start" x="552.495" y="-706.6" font-family="Times,serif" font-size="14.00">id :integer</text>
<text text-anchor="start" x="552.495" y="-689.8" font-family="Times,serif" font-size="14.00">food_id :integer</text>
<text text-anchor="start" x="552.495" y="-673" font-family="Times,serif" font-size="14.00">shop_id :integer</text>
<text text-anchor="start" x="552.495" y="-656.2" font-family="Times,serif" font-size="14.00">created_at :datetime</text>
<text text-anchor="start" x="552.495" y="-639.4" font-family="Times,serif" font-size="14.00">updated_at :datetime</text>
</g>
<!-- Shop&#45;&gt;Post -->
<g id="edge10" class="edge"><title>Shop&#45;&gt;Post</title>
<path fill="none" stroke="#7426d4" d="M445,-214.91C445,-208.536 445,-202.021 445,-195.481"/>
<ellipse fill="none" stroke="#7426d4" cx="445" cy="-218.982" rx="4" ry="4"/>
<polygon fill="#7426d4" stroke="#7426d4" points="445,-195.202 449.5,-185.202 445,-190.202 445,-185.202 445,-185.202 445,-185.202 445,-190.202 440.5,-185.202 445,-195.202 445,-195.202"/>
</g>
<!-- User -->
<g id="node8" class="node"><title>User</title>
<polyline fill="none" stroke="black" points="389.698,-599 514.302,-599 "/>
<path fill="none" stroke="black" d="M514.302,-599C520.302,-599 526.302,-605 526.302,-611"/>
<polyline fill="none" stroke="black" points="526.302,-611 526.302,-771 "/>
<path fill="none" stroke="black" d="M526.302,-771C526.302,-777 520.302,-783 514.302,-783"/>
<polyline fill="none" stroke="black" points="514.302,-783 389.698,-783 "/>
<path fill="none" stroke="black" d="M389.698,-783C383.698,-783 377.698,-777 377.698,-771"/>
<polyline fill="none" stroke="black" points="377.698,-771 377.698,-611 "/>
<path fill="none" stroke="black" d="M377.698,-611C377.698,-605 383.698,-599 389.698,-599"/>
<text text-anchor="middle" x="452" y="-765" font-family="Times,serif" font-size="14.00">User</text>
<polyline fill="none" stroke="black" points="377.698,-758.2 526.302,-758.2 "/>
<text text-anchor="start" x="385.698" y="-740.2" font-family="Times,serif" font-size="14.00">id :integer</text>
<text text-anchor="start" x="385.698" y="-723.4" font-family="Times,serif" font-size="14.00">fname :string</text>
<text text-anchor="start" x="385.698" y="-706.6" font-family="Times,serif" font-size="14.00">lname :string</text>
<text text-anchor="start" x="385.698" y="-689.8" font-family="Times,serif" font-size="14.00">email :string</text>
<text text-anchor="start" x="385.698" y="-673" font-family="Times,serif" font-size="14.00">password_digest :string</text>
<text text-anchor="start" x="385.698" y="-656.2" font-family="Times,serif" font-size="14.00">created_at :datetime</text>
<text text-anchor="start" x="385.698" y="-639.4" font-family="Times,serif" font-size="14.00">updated_at :datetime</text>
<text text-anchor="start" x="385.698" y="-622.6" font-family="Times,serif" font-size="14.00">food_id :integer</text>
<text text-anchor="start" x="385.698" y="-605.8" font-family="Times,serif" font-size="14.00">shop_id :integer</text>
</g>
<!-- User&#45;&gt;Food -->
<g id="edge12" class="edge"><title>User&#45;&gt;Food</title>
<path fill="none" stroke="#314488" d="M379.052,-592.582C373.381,-585.008 367.668,-577.379 362.031,-569.851"/>
<ellipse fill="none" stroke="#314488" cx="381.45" cy="-595.784" rx="4.00002" ry="4.00002"/>
<polygon fill="#314488" stroke="#314488" points="361.943,-569.734 359.551,-559.033 358.946,-565.732 355.949,-561.73 355.949,-561.73 355.949,-561.73 358.946,-565.732 352.347,-564.427 361.943,-569.734 361.943,-569.734"/>
</g>
<!-- User&#45;&gt;Post -->
<g id="edge16" class="edge"><title>User&#45;&gt;Post</title>
<path fill="none" stroke="#8f05f4" d="M489.362,-591.306C520.227,-495.611 553.918,-346.979 520,-222 517.497,-212.776 514.143,-203.536 510.238,-194.479"/>
<ellipse fill="none" stroke="#8f05f4" cx="488.104" cy="-595.16" rx="4.00001" ry="4.00001"/>
<polygon fill="#8f05f4" stroke="#8f05f4" points="510.12,-194.22 510.079,-183.254 508.051,-189.668 505.982,-185.116 505.982,-185.116 505.982,-185.116 508.051,-189.668 501.886,-186.978 510.12,-194.22 510.12,-194.22"/>
</g>
<!-- User&#45;&gt;Shop -->
<g id="edge14" class="edge"><title>User&#45;&gt;Shop</title>
<path fill="none" stroke="#ce2d5c" d="M450.257,-590.641C449.045,-521.563 447.454,-430.86 446.341,-367.415"/>
<ellipse fill="none" stroke="#ce2d5c" cx="450.333" cy="-594.962" rx="4" ry="4"/>
<polygon fill="#ce2d5c" stroke="#ce2d5c" points="446.335,-367.08 450.659,-357.002 446.247,-362.08 446.159,-357.081 446.159,-357.081 446.159,-357.081 446.247,-362.08 441.66,-357.16 446.335,-367.08 446.335,-367.08"/>
</g>
</g>
</svg>
