<?xml version="1.0" encoding="UTF-8" standalone="no"?>
<!DOCTYPE svg PUBLIC "-//W3C//DTD SVG 1.1//EN"
 "http://www.w3.org/Graphics/SVG/1.1/DTD/svg11.dtd">
<!-- Generated by graphviz version 2.28.0 (20121111.0637)
 -->
<!-- Title: models_diagram Pages: 1 -->
<svg width="481pt" height="238pt"
 viewBox="0.00 0.00 481.00 238.00" xmlns="http://www.w3.org/2000/svg" xmlns:xlink="http://www.w3.org/1999/xlink">
<g id="graph1" class="graph" transform="scale(1 1) rotate(0) translate(4 234)">
<title>models_diagram</title>
<polygon fill="white" stroke="white" points="-4,5 -4,-234 478,-234 478,5 -4,5"/>
<!-- _diagram_info -->
<g id="node1" class="node"><title>_diagram_info</title>
<text text-anchor="start" x="7.55029" y="-213" font-family="Times,serif" font-size="13.00">Models diagram</text>
<text text-anchor="start" x="7.55029" y="-197.4" font-family="Times,serif" font-size="13.00">Date: Nov 26 2012 &#45; 17:59</text>
<text text-anchor="start" x="7.55029" y="-181.8" font-family="Times,serif" font-size="13.00">Migration version: 20121126235759</text>
<text text-anchor="start" x="7.55029" y="-166.2" font-family="Times,serif" font-size="13.00">Generated by RailRoady 1.1.0</text>
<text text-anchor="start" x="7.55029" y="-150.6" font-family="Times,serif" font-size="13.00">http://railroady.prestonlee.com</text>
</g>
<!-- Category -->
<g id="node2" class="node"><title>Category</title>
<ellipse fill="none" stroke="black" cx="271" cy="-187" rx="46.1519" ry="18"/>
<text text-anchor="middle" x="271" y="-181.4" font-family="Times,serif" font-size="14.00">Category</text>
</g>
<!-- Food -->
<g id="node3" class="node"><title>Food</title>
<ellipse fill="none" stroke="black" cx="318" cy="-90" rx="30.3409" ry="18"/>
<text text-anchor="middle" x="318" y="-84.4" font-family="Times,serif" font-size="14.00">Food</text>
</g>
<!-- Category&#45;&gt;Food -->
<g id="edge2" class="edge"><title>Category&#45;&gt;Food</title>
<path fill="none" stroke="#452544" d="M283.058,-161.627C289.883,-147.833 298.41,-130.597 305.332,-116.605"/>
<ellipse fill="none" stroke="#452544" cx="281.176" cy="-165.431" rx="4.00002" ry="4.00002"/>
<polygon fill="#452544" stroke="#452544" points="305.393,-116.482 313.861,-109.514 307.61,-112 309.827,-107.519 309.827,-107.519 309.827,-107.519 307.61,-112 305.794,-105.523 305.393,-116.482 305.393,-116.482"/>
</g>
<!-- Post -->
<g id="node4" class="node"><title>Post</title>
<ellipse fill="none" stroke="black" cx="280" cy="-18" rx="27.5142" ry="18"/>
<text text-anchor="middle" x="280" y="-12.4" font-family="Times,serif" font-size="14.00">Post</text>
</g>
<!-- Food&#45;&gt;Post -->
<g id="edge4" class="edge"><title>Food&#45;&gt;Post</title>
<path fill="none" stroke="#a9eb3c" d="M305.23,-65.4765C301.51,-58.6233 297.431,-51.1101 293.658,-44.1603"/>
<ellipse fill="none" stroke="#a9eb3c" cx="307.278" cy="-69.2492" rx="4.00002" ry="4.00002"/>
<polygon fill="#a9eb3c" stroke="#a9eb3c" points="293.537,-43.9359 292.721,-33.0004 291.151,-39.5416 288.766,-35.1473 288.766,-35.1473 288.766,-35.1473 291.151,-39.5416 284.811,-37.2942 293.537,-43.9359 293.537,-43.9359"/>
</g>
<!-- Price -->
<g id="node5" class="node"><title>Price</title>
<ellipse fill="none" stroke="black" cx="357" cy="-18" rx="30.32" ry="18"/>
<text text-anchor="middle" x="357" y="-12.4" font-family="Times,serif" font-size="14.00">Price</text>
</g>
<!-- Food&#45;&gt;Price -->
<g id="edge6" class="edge"><title>Food&#45;&gt;Price</title>
<path fill="none" stroke="#da8a52" d="M331.045,-65.5853C334.805,-58.837 338.926,-51.441 342.754,-44.5692"/>
<ellipse fill="none" stroke="#da8a52" cx="328.992" cy="-69.2704" rx="4.00002" ry="4.00002"/>
<polygon fill="#da8a52" stroke="#da8a52" points="342.866,-44.3691 351.664,-37.8236 345.299,-40.0012 347.733,-35.6334 347.733,-35.6334 347.733,-35.6334 345.299,-40.0012 343.802,-33.4432 342.866,-44.3691 342.866,-44.3691"/>
</g>
<!-- Shop -->
<g id="node6" class="node"><title>Shop</title>
<ellipse fill="none" stroke="black" cx="443" cy="-187" rx="30.3409" ry="18"/>
<text text-anchor="middle" x="443" y="-181.4" font-family="Times,serif" font-size="14.00">Shop</text>
</g>
<!-- User -->
<g id="node7" class="node"><title>User</title>
<ellipse fill="none" stroke="black" cx="365" cy="-187" rx="28.9087" ry="18"/>
<text text-anchor="middle" x="365" y="-181.4" font-family="Times,serif" font-size="14.00">User</text>
</g>
<!-- User&#45;&gt;Food -->
<g id="edge8" class="edge"><title>User&#45;&gt;Food</title>
<path fill="none" stroke="#554bba" d="M353.141,-162.03C346.272,-148.145 337.627,-130.672 330.631,-116.531"/>
<ellipse fill="none" stroke="#554bba" cx="355.039" cy="-165.867" rx="4.00002" ry="4.00002"/>
<polygon fill="#554bba" stroke="#554bba" points="330.527,-116.321 330.126,-105.363 328.31,-111.84 326.093,-107.358 326.093,-107.358 326.093,-107.358 328.31,-111.84 322.06,-109.354 330.527,-116.321 330.527,-116.321"/>
</g>
</g>
</svg>
