<?xml version="1.0" encoding="UTF-8" standalone="no"?>
<!DOCTYPE svg PUBLIC "-//W3C//DTD SVG 1.1//EN"
 "http://www.w3.org/Graphics/SVG/1.1/DTD/svg11.dtd">
<!-- Generated by graphviz version 2.28.0 (20121111.0637)
 -->
<!-- Title: models_diagram Pages: 1 -->
<svg width="511pt" height="238pt"
 viewBox="0.00 0.00 511.00 238.00" xmlns="http://www.w3.org/2000/svg" xmlns:xlink="http://www.w3.org/1999/xlink">
<g id="graph1" class="graph" transform="scale(1 1) rotate(0) translate(4 234)">
<title>models_diagram</title>
<polygon fill="white" stroke="white" points="-4,5 -4,-234 508,-234 508,5 -4,5"/>
<!-- _diagram_info -->
<g id="node1" class="node"><title>_diagram_info</title>
<text text-anchor="start" x="7.55029" y="-213" font-family="Times,serif" font-size="13.00">Models diagram</text>
<text text-anchor="start" x="7.55029" y="-197.4" font-family="Times,serif" font-size="13.00">Date: Nov 26 2012 &#45; 18:45</text>
<text text-anchor="start" x="7.55029" y="-181.8" font-family="Times,serif" font-size="13.00">Migration version: 20121127004201</text>
<text text-anchor="start" x="7.55029" y="-166.2" font-family="Times,serif" font-size="13.00">Generated by RailRoady 1.1.0</text>
<text text-anchor="start" x="7.55029" y="-150.6" font-family="Times,serif" font-size="13.00">http://railroady.prestonlee.com</text>
</g>
<!-- Category -->
<g id="node2" class="node"><title>Category</title>
<ellipse fill="none" stroke="black" cx="271" cy="-187" rx="46.1519" ry="18"/>
<text text-anchor="middle" x="271" y="-181.4" font-family="Times,serif" font-size="14.00">Category</text>
</g>
<!-- Food -->
<g id="node3" class="node"><title>Food</title>
<ellipse fill="none" stroke="black" cx="288" cy="-90" rx="30.3409" ry="18"/>
<text text-anchor="middle" x="288" y="-84.4" font-family="Times,serif" font-size="14.00">Food</text>
</g>
<!-- Category&#45;&gt;Food -->
<g id="edge2" class="edge"><title>Category&#45;&gt;Food</title>
<path fill="none" stroke="#cd0b7b" d="M275.507,-160.813C277.855,-147.694 280.728,-131.639 283.127,-118.233"/>
<ellipse fill="none" stroke="#cd0b7b" cx="274.744" cy="-165.078" rx="4.00001" ry="4.00001"/>
<polygon fill="#cd0b7b" stroke="#cd0b7b" points="283.168,-118.001 289.359,-108.95 284.049,-113.079 284.93,-108.157 284.93,-108.157 284.93,-108.157 284.049,-113.079 280.5,-107.365 283.168,-118.001 283.168,-118.001"/>
</g>
<!-- Post -->
<g id="node5" class="node"><title>Post</title>
<ellipse fill="none" stroke="black" cx="385" cy="-18" rx="27.5142" ry="18"/>
<text text-anchor="middle" x="385" y="-12.4" font-family="Times,serif" font-size="14.00">Post</text>
</g>
<!-- Food&#45;&gt;Post -->
<g id="edge4" class="edge"><title>Food&#45;&gt;Post</title>
<path fill="none" stroke="#029d8a" d="M313.63,-70.5039C327.653,-60.3847 344.983,-47.8786 359.054,-37.724"/>
<ellipse fill="none" stroke="#029d8a" cx="309.946" cy="-73.1625" rx="4.00002" ry="4.00002"/>
<polygon fill="#029d8a" stroke="#029d8a" points="359.227,-37.5994 369.969,-35.3966 363.281,-34.6735 367.336,-31.7475 367.336,-31.7475 367.336,-31.7475 363.281,-34.6735 364.702,-28.0985 359.227,-37.5994 359.227,-37.5994"/>
</g>
<!-- Price -->
<g id="node6" class="node"><title>Price</title>
<ellipse fill="none" stroke="black" cx="228" cy="-18" rx="30.32" ry="18"/>
<text text-anchor="middle" x="228" y="-12.4" font-family="Times,serif" font-size="14.00">Price</text>
</g>
<!-- Food&#45;&gt;Price -->
<g id="edge6" class="edge"><title>Food&#45;&gt;Price</title>
<path fill="none" stroke="#7af160" d="M269.276,-67.1552C262.467,-59.2111 254.75,-50.2087 247.847,-42.155"/>
<ellipse fill="none" stroke="#7af160" cx="272.081" cy="-70.4277" rx="4.00002" ry="4.00002"/>
<polygon fill="#7af160" stroke="#7af160" points="247.787,-42.0844 244.695,-31.5633 244.533,-38.2881 241.279,-34.4918 241.279,-34.4918 241.279,-34.4918 244.533,-38.2881 237.862,-37.4204 247.787,-42.0844 247.787,-42.0844"/>
</g>
<!-- Shop -->
<g id="node7" class="node"><title>Shop</title>
<ellipse fill="none" stroke="black" cx="308" cy="-18" rx="30.3409" ry="18"/>
<text text-anchor="middle" x="308" y="-12.4" font-family="Times,serif" font-size="14.00">Shop</text>
</g>
<!-- Food&#45;&gt;Shop -->
<g id="edge8" class="edge"><title>Food&#45;&gt;Shop</title>
<path fill="none" stroke="#c7f8c6" d="M295.593,-62.4259C297.149,-56.9771 298.789,-51.2387 300.348,-45.7826"/>
<polygon fill="#c7f8c6" stroke="#c7f8c6" points="295.589,-62.4397 288.515,-70.8187 294.215,-67.2473 292.841,-72.055 292.841,-72.055 292.841,-72.055 294.215,-67.2473 297.168,-73.2912 295.589,-62.4397 295.589,-62.4397"/>
<polygon fill="#c7f8c6" stroke="#c7f8c6" points="300.456,-45.4042 307.53,-37.0253 301.83,-40.5966 303.203,-35.789 303.203,-35.789 303.203,-35.789 301.83,-40.5966 298.876,-34.5527 300.456,-45.4042 300.456,-45.4042"/>
</g>
<!-- Location -->
<g id="node4" class="node"><title>Location</title>
<ellipse fill="none" stroke="black" cx="458" cy="-187" rx="45.0398" ry="18"/>
<text text-anchor="middle" x="458" y="-181.4" font-family="Times,serif" font-size="14.00">Location</text>
</g>
<!-- User -->
<g id="node8" class="node"><title>User</title>
<ellipse fill="none" stroke="black" cx="365" cy="-187" rx="28.9087" ry="18"/>
<text text-anchor="middle" x="365" y="-181.4" font-family="Times,serif" font-size="14.00">User</text>
</g>
<!-- User&#45;&gt;Food -->
<g id="edge10" class="edge"><title>User&#45;&gt;Food</title>
<path fill="none" stroke="#b51cfc" d="M346.937,-163.715C334.963,-148.941 319.274,-129.585 307.094,-114.557"/>
<ellipse fill="none" stroke="#b51cfc" cx="349.766" cy="-167.205" rx="4.00002" ry="4.00002"/>
<polygon fill="#b51cfc" stroke="#b51cfc" points="307.031,-114.479 304.23,-103.877 303.882,-110.595 300.734,-106.711 300.734,-106.711 300.734,-106.711 303.882,-110.595 297.238,-109.544 307.031,-114.479 307.031,-114.479"/>
</g>
<!-- User&#45;&gt;Post -->
<g id="edge14" class="edge"><title>User&#45;&gt;Post</title>
<path fill="none" stroke="#6487fa" d="M368.039,-160.628C371.715,-129.933 377.881,-78.4404 381.68,-46.7258"/>
<ellipse fill="none" stroke="#6487fa" cx="367.541" cy="-164.785" rx="4.00001" ry="4.00001"/>
<polygon fill="#6487fa" stroke="#6487fa" points="381.727,-46.3284 387.384,-36.9345 382.322,-41.3638 382.916,-36.3993 382.916,-36.3993 382.916,-36.3993 382.322,-41.3638 378.448,-35.8642 381.727,-46.3284 381.727,-46.3284"/>
</g>
<!-- User&#45;&gt;Shop -->
<g id="edge12" class="edge"><title>User&#45;&gt;Shop</title>
<path fill="none" stroke="#f4f666" d="M356.953,-161.328C349.369,-138.201 337.614,-102.688 327,-72 323.969,-63.2356 320.575,-53.688 317.503,-45.1415"/>
<ellipse fill="none" stroke="#f4f666" cx="358.209" cy="-165.162" rx="4.00001" ry="4.00001"/>
<polygon fill="#f4f666" stroke="#f4f666" points="317.481,-45.0815 318.319,-34.1476 315.784,-40.3784 314.086,-35.6754 314.086,-35.6754 314.086,-35.6754 315.784,-40.3784 309.854,-37.2032 317.481,-45.0815 317.481,-45.0815"/>
</g>
</g>
</svg>
