<?xml version="1.0" encoding="UTF-8" standalone="no"?>
<!DOCTYPE svg PUBLIC "-//W3C//DTD SVG 1.1//EN"
 "http://www.w3.org/Graphics/SVG/1.1/DTD/svg11.dtd">
<!-- Generated by graphviz version 2.28.0 (20121111.0637)
 -->
<!-- Title: models_diagram Pages: 1 -->
<svg width="365pt" height="348pt"
 viewBox="0.00 0.00 365.00 348.00" xmlns="http://www.w3.org/2000/svg" xmlns:xlink="http://www.w3.org/1999/xlink">
<g id="graph1" class="graph" transform="scale(1 1) rotate(0) translate(4 344)">
<title>models_diagram</title>
<polygon fill="white" stroke="white" points="-4,5 -4,-344 362,-344 362,5 -4,5"/>
<!-- _diagram_info -->
<g id="node1" class="node"><title>_diagram_info</title>
<text text-anchor="start" x="7.55029" y="-290" font-family="Times,serif" font-size="13.00">Models diagram</text>
<text text-anchor="start" x="7.55029" y="-274.4" font-family="Times,serif" font-size="13.00">Date: Nov 11 2012 &#45; 00:49</text>
<text text-anchor="start" x="7.55029" y="-258.8" font-family="Times,serif" font-size="13.00">Migration version: 20121107210148</text>
<text text-anchor="start" x="7.55029" y="-243.2" font-family="Times,serif" font-size="13.00">Generated by RailRoady 1.1.0</text>
<text text-anchor="start" x="7.55029" y="-227.6" font-family="Times,serif" font-size="13.00">http://railroady.prestonlee.com</text>
</g>
<!-- Food -->
<g id="node2" class="node"><title>Food</title>
<polyline fill="none" stroke="black" points="236.495,-188.8 345.505,-188.8 "/>
<path fill="none" stroke="black" d="M345.505,-188.8C351.505,-188.8 357.505,-194.8 357.505,-200.8"/>
<polyline fill="none" stroke="black" points="357.505,-200.8 357.505,-327.2 "/>
<path fill="none" stroke="black" d="M357.505,-327.2C357.505,-333.2 351.505,-339.2 345.505,-339.2"/>
<polyline fill="none" stroke="black" points="345.505,-339.2 236.495,-339.2 "/>
<path fill="none" stroke="black" d="M236.495,-339.2C230.495,-339.2 224.495,-333.2 224.495,-327.2"/>
<polyline fill="none" stroke="black" points="224.495,-327.2 224.495,-200.8 "/>
<path fill="none" stroke="black" d="M224.495,-200.8C224.495,-194.8 230.495,-188.8 236.495,-188.8"/>
<text text-anchor="middle" x="291" y="-321.2" font-family="Times,serif" font-size="14.00">Food</text>
<polyline fill="none" stroke="black" points="224.495,-314.4 357.505,-314.4 "/>
<text text-anchor="start" x="232.495" y="-296.4" font-family="Times,serif" font-size="14.00">id :integer</text>
<text text-anchor="start" x="232.495" y="-279.6" font-family="Times,serif" font-size="14.00">name :string</text>
<text text-anchor="start" x="232.495" y="-262.8" font-family="Times,serif" font-size="14.00">price :decimal</text>
<text text-anchor="start" x="232.495" y="-246" font-family="Times,serif" font-size="14.00">picture :string</text>
<text text-anchor="start" x="232.495" y="-229.2" font-family="Times,serif" font-size="14.00">category_id :integer</text>
<text text-anchor="start" x="232.495" y="-212.4" font-family="Times,serif" font-size="14.00">created_at :datetime</text>
<text text-anchor="start" x="232.495" y="-195.6" font-family="Times,serif" font-size="14.00">updated_at :datetime</text>
</g>
<!-- Post -->
<g id="node3" class="node"><title>Post</title>
<polyline fill="none" stroke="black" points="236.495,-0.8 345.505,-0.8 "/>
<path fill="none" stroke="black" d="M345.505,-0.8C351.505,-0.8 357.505,-6.8 357.505,-12.8"/>
<polyline fill="none" stroke="black" points="357.505,-12.8 357.505,-139.2 "/>
<path fill="none" stroke="black" d="M357.505,-139.2C357.505,-145.2 351.505,-151.2 345.505,-151.2"/>
<polyline fill="none" stroke="black" points="345.505,-151.2 236.495,-151.2 "/>
<path fill="none" stroke="black" d="M236.495,-151.2C230.495,-151.2 224.495,-145.2 224.495,-139.2"/>
<polyline fill="none" stroke="black" points="224.495,-139.2 224.495,-12.8 "/>
<path fill="none" stroke="black" d="M224.495,-12.8C224.495,-6.8 230.495,-0.8 236.495,-0.8"/>
<text text-anchor="middle" x="291" y="-133.2" font-family="Times,serif" font-size="14.00">Post</text>
<polyline fill="none" stroke="black" points="224.495,-126.4 357.505,-126.4 "/>
<text text-anchor="start" x="232.495" y="-108.4" font-family="Times,serif" font-size="14.00">id :integer</text>
<text text-anchor="start" x="232.495" y="-91.6" font-family="Times,serif" font-size="14.00">note :text</text>
<text text-anchor="start" x="232.495" y="-74.8" font-family="Times,serif" font-size="14.00">rating :integer</text>
<text text-anchor="start" x="232.495" y="-58" font-family="Times,serif" font-size="14.00">picture :string</text>
<text text-anchor="start" x="232.495" y="-41.2" font-family="Times,serif" font-size="14.00">food_id :integer</text>
<text text-anchor="start" x="232.495" y="-24.4" font-family="Times,serif" font-size="14.00">created_at :datetime</text>
<text text-anchor="start" x="232.495" y="-7.6" font-family="Times,serif" font-size="14.00">updated_at :datetime</text>
</g>
<!-- Food&#45;&gt;Post -->
<g id="edge2" class="edge"><title>Food&#45;&gt;Post</title>
<path fill="none" stroke="#01dea6" d="M291,-180.596C291,-174.391 291,-168.122 291,-161.902"/>
<ellipse fill="none" stroke="#01dea6" cx="291" cy="-184.686" rx="4" ry="4"/>
<polygon fill="#01dea6" stroke="#01dea6" points="291,-161.5 295.5,-151.499 291,-156.5 291,-151.5 291,-151.5 291,-151.5 291,-156.5 286.5,-151.5 291,-161.5 291,-161.5"/>
</g>
</g>
</svg>
