<?xml version="1.0" encoding="UTF-8" standalone="no"?>
<!DOCTYPE svg PUBLIC "-//W3C//DTD SVG 1.1//EN"
 "http://www.w3.org/Graphics/SVG/1.1/DTD/svg11.dtd">
<!-- Generated by graphviz version 2.28.0 (20121111.0637)
 -->
<!-- Title: models_diagram Pages: 1 -->
<svg width="535pt" height="552pt"
 viewBox="0.00 0.00 535.00 552.00" xmlns="http://www.w3.org/2000/svg" xmlns:xlink="http://www.w3.org/1999/xlink">
<g id="graph1" class="graph" transform="scale(1 1) rotate(0) translate(4 548)">
<title>models_diagram</title>
<polygon fill="white" stroke="white" points="-4,5 -4,-548 532,-548 532,5 -4,5"/>
<!-- _diagram_info -->
<g id="node1" class="node"><title>_diagram_info</title>
<text text-anchor="start" x="7.55029" y="-494" font-family="Times,serif" font-size="13.00">Models diagram</text>
<text text-anchor="start" x="7.55029" y="-478.4" font-family="Times,serif" font-size="13.00">Date: Nov 26 2012 &#45; 17:41</text>
<text text-anchor="start" x="7.55029" y="-462.8" font-family="Times,serif" font-size="13.00">Migration version: 20121126233515</text>
<text text-anchor="start" x="7.55029" y="-447.2" font-family="Times,serif" font-size="13.00">Generated by RailRoady 1.1.0</text>
<text text-anchor="start" x="7.55029" y="-431.6" font-family="Times,serif" font-size="13.00">http://railroady.prestonlee.com</text>
</g>
<!-- Category -->
<g id="node2" class="node"><title>Category</title>
<polyline fill="none" stroke="black" points="236.933,-418 349.067,-418 "/>
<path fill="none" stroke="black" d="M349.067,-418C355.067,-418 361.067,-424 361.067,-430"/>
<polyline fill="none" stroke="black" points="361.067,-430 361.067,-506 "/>
<path fill="none" stroke="black" d="M361.067,-506C361.067,-512 355.067,-518 349.067,-518"/>
<polyline fill="none" stroke="black" points="349.067,-518 236.933,-518 "/>
<path fill="none" stroke="black" d="M236.933,-518C230.933,-518 224.933,-512 224.933,-506"/>
<polyline fill="none" stroke="black" points="224.933,-506 224.933,-430 "/>
<path fill="none" stroke="black" d="M224.933,-430C224.933,-424 230.933,-418 236.933,-418"/>
<text text-anchor="middle" x="293" y="-500" font-family="Times,serif" font-size="14.00">Category</text>
<polyline fill="none" stroke="black" points="224.933,-493.2 361.067,-493.2 "/>
<text text-anchor="start" x="232.933" y="-475.2" font-family="Times,serif" font-size="14.00">id :integer</text>
<text text-anchor="start" x="232.933" y="-458.4" font-family="Times,serif" font-size="14.00">food_category :string</text>
<text text-anchor="start" x="232.933" y="-441.6" font-family="Times,serif" font-size="14.00">created_at :datetime</text>
<text text-anchor="start" x="232.933" y="-424.8" font-family="Times,serif" font-size="14.00">updated_at :datetime</text>
</g>
<!-- Food -->
<g id="node3" class="node"><title>Food</title>
<polyline fill="none" stroke="black" points="318.495,-188.4 427.505,-188.4 "/>
<path fill="none" stroke="black" d="M427.505,-188.4C433.505,-188.4 439.505,-194.4 439.505,-200.4"/>
<polyline fill="none" stroke="black" points="439.505,-200.4 439.505,-343.6 "/>
<path fill="none" stroke="black" d="M439.505,-343.6C439.505,-349.6 433.505,-355.6 427.505,-355.6"/>
<polyline fill="none" stroke="black" points="427.505,-355.6 318.495,-355.6 "/>
<path fill="none" stroke="black" d="M318.495,-355.6C312.495,-355.6 306.495,-349.6 306.495,-343.6"/>
<polyline fill="none" stroke="black" points="306.495,-343.6 306.495,-200.4 "/>
<path fill="none" stroke="black" d="M306.495,-200.4C306.495,-194.4 312.495,-188.4 318.495,-188.4"/>
<text text-anchor="middle" x="373" y="-337.6" font-family="Times,serif" font-size="14.00">Food</text>
<polyline fill="none" stroke="black" points="306.495,-330.8 439.505,-330.8 "/>
<text text-anchor="start" x="314.495" y="-312.8" font-family="Times,serif" font-size="14.00">id :integer</text>
<text text-anchor="start" x="314.495" y="-296" font-family="Times,serif" font-size="14.00">name :string</text>
<text text-anchor="start" x="314.495" y="-279.2" font-family="Times,serif" font-size="14.00">picture :string</text>
<text text-anchor="start" x="314.495" y="-262.4" font-family="Times,serif" font-size="14.00">category_id :integer</text>
<text text-anchor="start" x="314.495" y="-245.6" font-family="Times,serif" font-size="14.00">created_at :datetime</text>
<text text-anchor="start" x="314.495" y="-228.8" font-family="Times,serif" font-size="14.00">updated_at :datetime</text>
<text text-anchor="start" x="314.495" y="-212" font-family="Times,serif" font-size="14.00">user_id :integer</text>
<text text-anchor="start" x="314.495" y="-195.2" font-family="Times,serif" font-size="14.00">price_id :integer</text>
</g>
<!-- Category&#45;&gt;Food -->
<g id="edge2" class="edge"><title>Category&#45;&gt;Food</title>
<path fill="none" stroke="#3e93cf" d="M316.456,-410.12C322.272,-396.017 328.654,-380.539 334.971,-365.221"/>
<ellipse fill="none" stroke="#3e93cf" cx="314.816" cy="-414.097" rx="4.00001" ry="4.00001"/>
<polygon fill="#3e93cf" stroke="#3e93cf" points="335.077,-364.962 343.05,-357.433 336.984,-360.34 338.89,-355.717 338.89,-355.717 338.89,-355.717 336.984,-360.34 334.73,-354.002 335.077,-364.962 335.077,-364.962"/>
</g>
<!-- Post -->
<g id="node4" class="node"><title>Post</title>
<polyline fill="none" stroke="black" points="243.495,-0.8 352.505,-0.8 "/>
<path fill="none" stroke="black" d="M352.505,-0.8C358.505,-0.8 364.505,-6.8 364.505,-12.8"/>
<polyline fill="none" stroke="black" points="364.505,-12.8 364.505,-139.2 "/>
<path fill="none" stroke="black" d="M364.505,-139.2C364.505,-145.2 358.505,-151.2 352.505,-151.2"/>
<polyline fill="none" stroke="black" points="352.505,-151.2 243.495,-151.2 "/>
<path fill="none" stroke="black" d="M243.495,-151.2C237.495,-151.2 231.495,-145.2 231.495,-139.2"/>
<polyline fill="none" stroke="black" points="231.495,-139.2 231.495,-12.8 "/>
<path fill="none" stroke="black" d="M231.495,-12.8C231.495,-6.8 237.495,-0.8 243.495,-0.8"/>
<text text-anchor="middle" x="298" y="-133.2" font-family="Times,serif" font-size="14.00">Post</text>
<polyline fill="none" stroke="black" points="231.495,-126.4 364.505,-126.4 "/>
<text text-anchor="start" x="239.495" y="-108.4" font-family="Times,serif" font-size="14.00">id :integer</text>
<text text-anchor="start" x="239.495" y="-91.6" font-family="Times,serif" font-size="14.00">note :text</text>
<text text-anchor="start" x="239.495" y="-74.8" font-family="Times,serif" font-size="14.00">rating :integer</text>
<text text-anchor="start" x="239.495" y="-58" font-family="Times,serif" font-size="14.00">picture :string</text>
<text text-anchor="start" x="239.495" y="-41.2" font-family="Times,serif" font-size="14.00">food_id :integer</text>
<text text-anchor="start" x="239.495" y="-24.4" font-family="Times,serif" font-size="14.00">created_at :datetime</text>
<text text-anchor="start" x="239.495" y="-7.6" font-family="Times,serif" font-size="14.00">updated_at :datetime</text>
</g>
<!-- Food&#45;&gt;Post -->
<g id="edge4" class="edge"><title>Food&#45;&gt;Post</title>
<path fill="none" stroke="#f5cca8" d="M338.076,-180.664C335.521,-174.054 332.949,-167.401 330.409,-160.831"/>
<ellipse fill="none" stroke="#f5cca8" cx="339.533" cy="-184.433" rx="4.00001" ry="4.00001"/>
<polygon fill="#f5cca8" stroke="#f5cca8" points="330.322,-160.606 330.913,-149.656 328.519,-155.942 326.716,-151.278 326.716,-151.278 326.716,-151.278 328.519,-155.942 322.519,-152.901 330.322,-160.606 330.322,-160.606"/>
</g>
<!-- Price -->
<g id="node5" class="node"><title>Price</title>
<polyline fill="none" stroke="black" points="394.495,-17.6 503.505,-17.6 "/>
<path fill="none" stroke="black" d="M503.505,-17.6C509.505,-17.6 515.505,-23.6 515.505,-29.6"/>
<polyline fill="none" stroke="black" points="515.505,-29.6 515.505,-122.4 "/>
<path fill="none" stroke="black" d="M515.505,-122.4C515.505,-128.4 509.505,-134.4 503.505,-134.4"/>
<polyline fill="none" stroke="black" points="503.505,-134.4 394.495,-134.4 "/>
<path fill="none" stroke="black" d="M394.495,-134.4C388.495,-134.4 382.495,-128.4 382.495,-122.4"/>
<polyline fill="none" stroke="black" points="382.495,-122.4 382.495,-29.6 "/>
<path fill="none" stroke="black" d="M382.495,-29.6C382.495,-23.6 388.495,-17.6 394.495,-17.6"/>
<text text-anchor="middle" x="449" y="-116.4" font-family="Times,serif" font-size="14.00">Price</text>
<polyline fill="none" stroke="black" points="382.495,-109.6 515.505,-109.6 "/>
<text text-anchor="start" x="390.495" y="-91.6" font-family="Times,serif" font-size="14.00">id :integer</text>
<text text-anchor="start" x="390.495" y="-74.8" font-family="Times,serif" font-size="14.00">price :decimal</text>
<text text-anchor="start" x="390.495" y="-58" font-family="Times,serif" font-size="14.00">created_at :datetime</text>
<text text-anchor="start" x="390.495" y="-41.2" font-family="Times,serif" font-size="14.00">updated_at :datetime</text>
<text text-anchor="start" x="390.495" y="-24.4" font-family="Times,serif" font-size="14.00">food_id :integer</text>
</g>
<!-- Food&#45;&gt;Price -->
<g id="edge6" class="edge"><title>Food&#45;&gt;Price</title>
<path fill="none" stroke="#a7eea3" d="M408.443,-180.528C413.219,-168.336 418.049,-156.006 422.63,-144.313"/>
<ellipse fill="none" stroke="#a7eea3" cx="406.91" cy="-184.439" rx="4.00001" ry="4.00001"/>
<polygon fill="#a7eea3" stroke="#a7eea3" points="422.765,-143.969 430.602,-136.299 424.589,-139.313 426.412,-134.658 426.412,-134.658 426.412,-134.658 424.589,-139.313 422.223,-133.016 422.765,-143.969 422.765,-143.969"/>
</g>
<!-- User -->
<g id="node6" class="node"><title>User</title>
<polyline fill="none" stroke="black" points="390.698,-392.8 515.302,-392.8 "/>
<path fill="none" stroke="black" d="M515.302,-392.8C521.302,-392.8 527.302,-398.8 527.302,-404.8"/>
<polyline fill="none" stroke="black" points="527.302,-404.8 527.302,-531.2 "/>
<path fill="none" stroke="black" d="M527.302,-531.2C527.302,-537.2 521.302,-543.2 515.302,-543.2"/>
<polyline fill="none" stroke="black" points="515.302,-543.2 390.698,-543.2 "/>
<path fill="none" stroke="black" d="M390.698,-543.2C384.698,-543.2 378.698,-537.2 378.698,-531.2"/>
<polyline fill="none" stroke="black" points="378.698,-531.2 378.698,-404.8 "/>
<path fill="none" stroke="black" d="M378.698,-404.8C378.698,-398.8 384.698,-392.8 390.698,-392.8"/>
<text text-anchor="middle" x="453" y="-525.2" font-family="Times,serif" font-size="14.00">User</text>
<polyline fill="none" stroke="black" points="378.698,-518.4 527.302,-518.4 "/>
<text text-anchor="start" x="386.698" y="-500.4" font-family="Times,serif" font-size="14.00">id :integer</text>
<text text-anchor="start" x="386.698" y="-483.6" font-family="Times,serif" font-size="14.00">fname :string</text>
<text text-anchor="start" x="386.698" y="-466.8" font-family="Times,serif" font-size="14.00">lname :string</text>
<text text-anchor="start" x="386.698" y="-450" font-family="Times,serif" font-size="14.00">email :string</text>
<text text-anchor="start" x="386.698" y="-433.2" font-family="Times,serif" font-size="14.00">password_digest :string</text>
<text text-anchor="start" x="386.698" y="-416.4" font-family="Times,serif" font-size="14.00">created_at :datetime</text>
<text text-anchor="start" x="386.698" y="-399.6" font-family="Times,serif" font-size="14.00">updated_at :datetime</text>
</g>
<!-- User&#45;&gt;Food -->
<g id="edge8" class="edge"><title>User&#45;&gt;Food</title>
<path fill="none" stroke="#a19c77" d="M419.242,-385.137C416.539,-378.583 413.798,-371.934 411.068,-365.315"/>
<ellipse fill="none" stroke="#a19c77" cx="420.774" cy="-388.851" rx="4.00002" ry="4.00002"/>
<polygon fill="#a19c77" stroke="#a19c77" points="410.895,-364.896 411.243,-353.936 408.989,-360.274 407.083,-355.651 407.083,-355.651 407.083,-355.651 408.989,-360.274 402.923,-357.367 410.895,-364.896 410.895,-364.896"/>
</g>
</g>
</svg>
