<?xml version="1.0" encoding="UTF-8" standalone="no"?>
<!DOCTYPE svg PUBLIC "-//W3C//DTD SVG 1.1//EN"
 "http://www.w3.org/Graphics/SVG/1.1/DTD/svg11.dtd">
<!-- Generated by graphviz version 2.28.0 (20121111.0637)
 -->
<!-- Title: models_diagram Pages: 1 -->
<svg width="686pt" height="586pt"
 viewBox="0.00 0.00 686.00 586.00" xmlns="http://www.w3.org/2000/svg" xmlns:xlink="http://www.w3.org/1999/xlink">
<g id="graph1" class="graph" transform="scale(1 1) rotate(0) translate(4 582)">
<title>models_diagram</title>
<polygon fill="white" stroke="white" points="-4,5 -4,-582 683,-582 683,5 -4,5"/>
<!-- _diagram_info -->
<g id="node1" class="node"><title>_diagram_info</title>
<text text-anchor="start" x="7.55029" y="-511" font-family="Times,serif" font-size="13.00">Models diagram</text>
<text text-anchor="start" x="7.55029" y="-495.4" font-family="Times,serif" font-size="13.00">Date: Nov 26 2012 &#45; 18:04</text>
<text text-anchor="start" x="7.55029" y="-479.8" font-family="Times,serif" font-size="13.00">Migration version: 20121127000024</text>
<text text-anchor="start" x="7.55029" y="-464.2" font-family="Times,serif" font-size="13.00">Generated by RailRoady 1.1.0</text>
<text text-anchor="start" x="7.55029" y="-448.6" font-family="Times,serif" font-size="13.00">http://railroady.prestonlee.com</text>
</g>
<!-- Category -->
<g id="node2" class="node"><title>Category</title>
<polyline fill="none" stroke="black" points="236.933,-435 349.067,-435 "/>
<path fill="none" stroke="black" d="M349.067,-435C355.067,-435 361.067,-441 361.067,-447"/>
<polyline fill="none" stroke="black" points="361.067,-447 361.067,-523 "/>
<path fill="none" stroke="black" d="M361.067,-523C361.067,-529 355.067,-535 349.067,-535"/>
<polyline fill="none" stroke="black" points="349.067,-535 236.933,-535 "/>
<path fill="none" stroke="black" d="M236.933,-535C230.933,-535 224.933,-529 224.933,-523"/>
<polyline fill="none" stroke="black" points="224.933,-523 224.933,-447 "/>
<path fill="none" stroke="black" d="M224.933,-447C224.933,-441 230.933,-435 236.933,-435"/>
<text text-anchor="middle" x="293" y="-517" font-family="Times,serif" font-size="14.00">Category</text>
<polyline fill="none" stroke="black" points="224.933,-510.2 361.067,-510.2 "/>
<text text-anchor="start" x="232.933" y="-492.2" font-family="Times,serif" font-size="14.00">id :integer</text>
<text text-anchor="start" x="232.933" y="-475.4" font-family="Times,serif" font-size="14.00">food_category :string</text>
<text text-anchor="start" x="232.933" y="-458.6" font-family="Times,serif" font-size="14.00">created_at :datetime</text>
<text text-anchor="start" x="232.933" y="-441.8" font-family="Times,serif" font-size="14.00">updated_at :datetime</text>
</g>
<!-- Food -->
<g id="node3" class="node"><title>Food</title>
<polyline fill="none" stroke="black" points="318.495,-188.4 427.505,-188.4 "/>
<path fill="none" stroke="black" d="M427.505,-188.4C433.505,-188.4 439.505,-194.4 439.505,-200.4"/>
<polyline fill="none" stroke="black" points="439.505,-200.4 439.505,-343.6 "/>
<path fill="none" stroke="black" d="M439.505,-343.6C439.505,-349.6 433.505,-355.6 427.505,-355.6"/>
<polyline fill="none" stroke="black" points="427.505,-355.6 318.495,-355.6 "/>
<path fill="none" stroke="black" d="M318.495,-355.6C312.495,-355.6 306.495,-349.6 306.495,-343.6"/>
<polyline fill="none" stroke="black" points="306.495,-343.6 306.495,-200.4 "/>
<path fill="none" stroke="black" d="M306.495,-200.4C306.495,-194.4 312.495,-188.4 318.495,-188.4"/>
<text text-anchor="middle" x="373" y="-337.6" font-family="Times,serif" font-size="14.00">Food</text>
<polyline fill="none" stroke="black" points="306.495,-330.8 439.505,-330.8 "/>
<text text-anchor="start" x="314.495" y="-312.8" font-family="Times,serif" font-size="14.00">id :integer</text>
<text text-anchor="start" x="314.495" y="-296" font-family="Times,serif" font-size="14.00">name :string</text>
<text text-anchor="start" x="314.495" y="-279.2" font-family="Times,serif" font-size="14.00">picture :string</text>
<text text-anchor="start" x="314.495" y="-262.4" font-family="Times,serif" font-size="14.00">category_id :integer</text>
<text text-anchor="start" x="314.495" y="-245.6" font-family="Times,serif" font-size="14.00">created_at :datetime</text>
<text text-anchor="start" x="314.495" y="-228.8" font-family="Times,serif" font-size="14.00">updated_at :datetime</text>
<text text-anchor="start" x="314.495" y="-212" font-family="Times,serif" font-size="14.00">user_id :integer</text>
<text text-anchor="start" x="314.495" y="-195.2" font-family="Times,serif" font-size="14.00">price_id :integer</text>
</g>
<!-- Category&#45;&gt;Food -->
<g id="edge2" class="edge"><title>Category&#45;&gt;Food</title>
<path fill="none" stroke="#95d2d0" d="M314.538,-427.192C321.754,-408.161 329.996,-386.422 337.971,-365.39"/>
<ellipse fill="none" stroke="#95d2d0" cx="313.074" cy="-431.056" rx="4.00001" ry="4.00001"/>
<polygon fill="#95d2d0" stroke="#95d2d0" points="338.066,-365.138 345.819,-357.383 339.839,-360.463 341.611,-355.788 341.611,-355.788 341.611,-355.788 339.839,-360.463 337.404,-354.192 338.066,-365.138 338.066,-365.138"/>
</g>
<!-- Post -->
<g id="node5" class="node"><title>Post</title>
<polyline fill="none" stroke="black" points="167.495,-0.8 276.505,-0.8 "/>
<path fill="none" stroke="black" d="M276.505,-0.8C282.505,-0.8 288.505,-6.8 288.505,-12.8"/>
<polyline fill="none" stroke="black" points="288.505,-12.8 288.505,-139.2 "/>
<path fill="none" stroke="black" d="M288.505,-139.2C288.505,-145.2 282.505,-151.2 276.505,-151.2"/>
<polyline fill="none" stroke="black" points="276.505,-151.2 167.495,-151.2 "/>
<path fill="none" stroke="black" d="M167.495,-151.2C161.495,-151.2 155.495,-145.2 155.495,-139.2"/>
<polyline fill="none" stroke="black" points="155.495,-139.2 155.495,-12.8 "/>
<path fill="none" stroke="black" d="M155.495,-12.8C155.495,-6.8 161.495,-0.8 167.495,-0.8"/>
<text text-anchor="middle" x="222" y="-133.2" font-family="Times,serif" font-size="14.00">Post</text>
<polyline fill="none" stroke="black" points="155.495,-126.4 288.505,-126.4 "/>
<text text-anchor="start" x="163.495" y="-108.4" font-family="Times,serif" font-size="14.00">id :integer</text>
<text text-anchor="start" x="163.495" y="-91.6" font-family="Times,serif" font-size="14.00">note :text</text>
<text text-anchor="start" x="163.495" y="-74.8" font-family="Times,serif" font-size="14.00">rating :integer</text>
<text text-anchor="start" x="163.495" y="-58" font-family="Times,serif" font-size="14.00">picture :string</text>
<text text-anchor="start" x="163.495" y="-41.2" font-family="Times,serif" font-size="14.00">food_id :integer</text>
<text text-anchor="start" x="163.495" y="-24.4" font-family="Times,serif" font-size="14.00">created_at :datetime</text>
<text text-anchor="start" x="163.495" y="-7.6" font-family="Times,serif" font-size="14.00">updated_at :datetime</text>
</g>
<!-- Food&#45;&gt;Post -->
<g id="edge4" class="edge"><title>Food&#45;&gt;Post</title>
<path fill="none" stroke="#0457fd" d="M303.588,-181.821C297.748,-174.318 291.859,-166.752 286.062,-159.305"/>
<ellipse fill="none" stroke="#0457fd" cx="306.068" cy="-185.007" rx="4.00002" ry="4.00002"/>
<polygon fill="#0457fd" stroke="#0457fd" points="285.957,-159.17 283.366,-148.514 282.886,-155.224 279.815,-151.278 279.815,-151.278 279.815,-151.278 282.886,-155.224 276.264,-154.042 285.957,-159.17 285.957,-159.17"/>
</g>
<!-- Price -->
<g id="node6" class="node"><title>Price</title>
<polyline fill="none" stroke="black" points="318.495,-17.6 427.505,-17.6 "/>
<path fill="none" stroke="black" d="M427.505,-17.6C433.505,-17.6 439.505,-23.6 439.505,-29.6"/>
<polyline fill="none" stroke="black" points="439.505,-29.6 439.505,-122.4 "/>
<path fill="none" stroke="black" d="M439.505,-122.4C439.505,-128.4 433.505,-134.4 427.505,-134.4"/>
<polyline fill="none" stroke="black" points="427.505,-134.4 318.495,-134.4 "/>
<path fill="none" stroke="black" d="M318.495,-134.4C312.495,-134.4 306.495,-128.4 306.495,-122.4"/>
<polyline fill="none" stroke="black" points="306.495,-122.4 306.495,-29.6 "/>
<path fill="none" stroke="black" d="M306.495,-29.6C306.495,-23.6 312.495,-17.6 318.495,-17.6"/>
<text text-anchor="middle" x="373" y="-116.4" font-family="Times,serif" font-size="14.00">Price</text>
<polyline fill="none" stroke="black" points="306.495,-109.6 439.505,-109.6 "/>
<text text-anchor="start" x="314.495" y="-91.6" font-family="Times,serif" font-size="14.00">id :integer</text>
<text text-anchor="start" x="314.495" y="-74.8" font-family="Times,serif" font-size="14.00">price :decimal</text>
<text text-anchor="start" x="314.495" y="-58" font-family="Times,serif" font-size="14.00">created_at :datetime</text>
<text text-anchor="start" x="314.495" y="-41.2" font-family="Times,serif" font-size="14.00">updated_at :datetime</text>
<text text-anchor="start" x="314.495" y="-24.4" font-family="Times,serif" font-size="14.00">food_id :integer</text>
</g>
<!-- Food&#45;&gt;Price -->
<g id="edge6" class="edge"><title>Food&#45;&gt;Price</title>
<path fill="none" stroke="#7256a8" d="M373,-180.102C373,-168.26 373,-156.296 373,-144.919"/>
<ellipse fill="none" stroke="#7256a8" cx="373" cy="-184.164" rx="4" ry="4"/>
<polygon fill="#7256a8" stroke="#7256a8" points="373,-144.658 377.5,-134.658 373,-139.658 373,-134.658 373,-134.658 373,-134.658 373,-139.658 368.5,-134.658 373,-144.658 373,-144.658"/>
</g>
<!-- Shop -->
<g id="node7" class="node"><title>Shop</title>
<polyline fill="none" stroke="black" points="469.495,-17.6 578.505,-17.6 "/>
<path fill="none" stroke="black" d="M578.505,-17.6C584.505,-17.6 590.505,-23.6 590.505,-29.6"/>
<polyline fill="none" stroke="black" points="590.505,-29.6 590.505,-122.4 "/>
<path fill="none" stroke="black" d="M590.505,-122.4C590.505,-128.4 584.505,-134.4 578.505,-134.4"/>
<polyline fill="none" stroke="black" points="578.505,-134.4 469.495,-134.4 "/>
<path fill="none" stroke="black" d="M469.495,-134.4C463.495,-134.4 457.495,-128.4 457.495,-122.4"/>
<polyline fill="none" stroke="black" points="457.495,-122.4 457.495,-29.6 "/>
<path fill="none" stroke="black" d="M457.495,-29.6C457.495,-23.6 463.495,-17.6 469.495,-17.6"/>
<text text-anchor="middle" x="524" y="-116.4" font-family="Times,serif" font-size="14.00">Shop</text>
<polyline fill="none" stroke="black" points="457.495,-109.6 590.505,-109.6 "/>
<text text-anchor="start" x="465.495" y="-91.6" font-family="Times,serif" font-size="14.00">id :integer</text>
<text text-anchor="start" x="465.495" y="-74.8" font-family="Times,serif" font-size="14.00">name :string</text>
<text text-anchor="start" x="465.495" y="-58" font-family="Times,serif" font-size="14.00">address :string</text>
<text text-anchor="start" x="465.495" y="-41.2" font-family="Times,serif" font-size="14.00">created_at :datetime</text>
<text text-anchor="start" x="465.495" y="-24.4" font-family="Times,serif" font-size="14.00">updated_at :datetime</text>
</g>
<!-- Food&#45;&gt;Shop -->
<g id="edge8" class="edge"><title>Food&#45;&gt;Shop</title>
<path fill="none" stroke="#d584e9" d="M443.75,-180.102C453.532,-167.535 463.421,-154.83 472.756,-142.837"/>
<polygon fill="#d584e9" stroke="#d584e9" points="443.618,-180.272 433.924,-185.4 440.547,-184.218 437.476,-188.164 437.476,-188.164 437.476,-188.164 440.547,-184.218 441.027,-190.928 443.618,-180.272 443.618,-180.272"/>
<polygon fill="#d584e9" stroke="#d584e9" points="472.98,-142.549 482.673,-137.422 476.051,-138.603 479.122,-134.658 479.122,-134.658 479.122,-134.658 476.051,-138.603 475.571,-131.894 472.98,-142.549 472.98,-142.549"/>
</g>
<!-- Location -->
<g id="node4" class="node"><title>Location</title>
<polyline fill="none" stroke="black" points="557.495,-426.6 666.505,-426.6 "/>
<path fill="none" stroke="black" d="M666.505,-426.6C672.505,-426.6 678.505,-432.6 678.505,-438.6"/>
<polyline fill="none" stroke="black" points="678.505,-438.6 678.505,-531.4 "/>
<path fill="none" stroke="black" d="M678.505,-531.4C678.505,-537.4 672.505,-543.4 666.505,-543.4"/>
<polyline fill="none" stroke="black" points="666.505,-543.4 557.495,-543.4 "/>
<path fill="none" stroke="black" d="M557.495,-543.4C551.495,-543.4 545.495,-537.4 545.495,-531.4"/>
<polyline fill="none" stroke="black" points="545.495,-531.4 545.495,-438.6 "/>
<path fill="none" stroke="black" d="M545.495,-438.6C545.495,-432.6 551.495,-426.6 557.495,-426.6"/>
<text text-anchor="middle" x="612" y="-525.4" font-family="Times,serif" font-size="14.00">Location</text>
<polyline fill="none" stroke="black" points="545.495,-518.6 678.505,-518.6 "/>
<text text-anchor="start" x="553.495" y="-500.6" font-family="Times,serif" font-size="14.00">id :integer</text>
<text text-anchor="start" x="553.495" y="-483.8" font-family="Times,serif" font-size="14.00">food_id :integer</text>
<text text-anchor="start" x="553.495" y="-467" font-family="Times,serif" font-size="14.00">shop_id :integer</text>
<text text-anchor="start" x="553.495" y="-450.2" font-family="Times,serif" font-size="14.00">created_at :datetime</text>
<text text-anchor="start" x="553.495" y="-433.4" font-family="Times,serif" font-size="14.00">updated_at :datetime</text>
</g>
<!-- User -->
<g id="node8" class="node"><title>User</title>
<polyline fill="none" stroke="black" points="390.698,-393 515.302,-393 "/>
<path fill="none" stroke="black" d="M515.302,-393C521.302,-393 527.302,-399 527.302,-405"/>
<polyline fill="none" stroke="black" points="527.302,-405 527.302,-565 "/>
<path fill="none" stroke="black" d="M527.302,-565C527.302,-571 521.302,-577 515.302,-577"/>
<polyline fill="none" stroke="black" points="515.302,-577 390.698,-577 "/>
<path fill="none" stroke="black" d="M390.698,-577C384.698,-577 378.698,-571 378.698,-565"/>
<polyline fill="none" stroke="black" points="378.698,-565 378.698,-405 "/>
<path fill="none" stroke="black" d="M378.698,-405C378.698,-399 384.698,-393 390.698,-393"/>
<text text-anchor="middle" x="453" y="-559" font-family="Times,serif" font-size="14.00">User</text>
<polyline fill="none" stroke="black" points="378.698,-552.2 527.302,-552.2 "/>
<text text-anchor="start" x="386.698" y="-534.2" font-family="Times,serif" font-size="14.00">id :integer</text>
<text text-anchor="start" x="386.698" y="-517.4" font-family="Times,serif" font-size="14.00">fname :string</text>
<text text-anchor="start" x="386.698" y="-500.6" font-family="Times,serif" font-size="14.00">lname :string</text>
<text text-anchor="start" x="386.698" y="-483.8" font-family="Times,serif" font-size="14.00">email :string</text>
<text text-anchor="start" x="386.698" y="-467" font-family="Times,serif" font-size="14.00">password_digest :string</text>
<text text-anchor="start" x="386.698" y="-450.2" font-family="Times,serif" font-size="14.00">created_at :datetime</text>
<text text-anchor="start" x="386.698" y="-433.4" font-family="Times,serif" font-size="14.00">updated_at :datetime</text>
<text text-anchor="start" x="386.698" y="-416.6" font-family="Times,serif" font-size="14.00">food_id :integer</text>
<text text-anchor="start" x="386.698" y="-399.8" font-family="Times,serif" font-size="14.00">shop_id :integer</text>
</g>
<!-- User&#45;&gt;Food -->
<g id="edge10" class="edge"><title>User&#45;&gt;Food</title>
<path fill="none" stroke="#d63b6f" d="M415.621,-385.414C413.092,-378.742 410.548,-372.033 408.031,-365.394"/>
<ellipse fill="none" stroke="#d63b6f" cx="417.074" cy="-389.246" rx="4.00001" ry="4.00001"/>
<polygon fill="#d63b6f" stroke="#d63b6f" points="407.912,-365.08 408.574,-354.134 406.139,-360.405 404.367,-355.73 404.367,-355.73 404.367,-355.73 406.139,-360.405 400.159,-357.325 407.912,-365.08 407.912,-365.08"/>
</g>
</g>
</svg>
