<?xml version="1.0" encoding="UTF-8" standalone="no"?>
<!DOCTYPE svg PUBLIC "-//W3C//DTD SVG 1.1//EN"
 "http://www.w3.org/Graphics/SVG/1.1/DTD/svg11.dtd">
<!-- Generated by graphviz version 2.28.0 (20121111.0637)
 -->
<!-- Title: models_diagram Pages: 1 -->
<svg width="511pt" height="238pt"
 viewBox="0.00 0.00 511.00 238.00" xmlns="http://www.w3.org/2000/svg" xmlns:xlink="http://www.w3.org/1999/xlink">
<g id="graph1" class="graph" transform="scale(1 1) rotate(0) translate(4 234)">
<title>models_diagram</title>
<polygon fill="white" stroke="white" points="-4,5 -4,-234 508,-234 508,5 -4,5"/>
<!-- _diagram_info -->
<g id="node1" class="node"><title>_diagram_info</title>
<text text-anchor="start" x="7.55029" y="-213" font-family="Times,serif" font-size="13.00">Models diagram</text>
<text text-anchor="start" x="7.55029" y="-197.4" font-family="Times,serif" font-size="13.00">Date: Nov 26 2012 &#45; 18:04</text>
<text text-anchor="start" x="7.55029" y="-181.8" font-family="Times,serif" font-size="13.00">Migration version: 20121127000024</text>
<text text-anchor="start" x="7.55029" y="-166.2" font-family="Times,serif" font-size="13.00">Generated by RailRoady 1.1.0</text>
<text text-anchor="start" x="7.55029" y="-150.6" font-family="Times,serif" font-size="13.00">http://railroady.prestonlee.com</text>
</g>
<!-- Category -->
<g id="node2" class="node"><title>Category</title>
<ellipse fill="none" stroke="black" cx="271" cy="-187" rx="46.1519" ry="18"/>
<text text-anchor="middle" x="271" y="-181.4" font-family="Times,serif" font-size="14.00">Category</text>
</g>
<!-- Food -->
<g id="node3" class="node"><title>Food</title>
<ellipse fill="none" stroke="black" cx="318" cy="-90" rx="30.3409" ry="18"/>
<text text-anchor="middle" x="318" y="-84.4" font-family="Times,serif" font-size="14.00">Food</text>
</g>
<!-- Category&#45;&gt;Food -->
<g id="edge2" class="edge"><title>Category&#45;&gt;Food</title>
<path fill="none" stroke="#409c41" d="M283.058,-161.627C289.883,-147.833 298.41,-130.597 305.332,-116.605"/>
<ellipse fill="none" stroke="#409c41" cx="281.176" cy="-165.431" rx="4.00002" ry="4.00002"/>
<polygon fill="#409c41" stroke="#409c41" points="305.393,-116.482 313.861,-109.514 307.61,-112 309.827,-107.519 309.827,-107.519 309.827,-107.519 307.61,-112 305.794,-105.523 305.393,-116.482 305.393,-116.482"/>
</g>
<!-- Post -->
<g id="node5" class="node"><title>Post</title>
<ellipse fill="none" stroke="black" cx="241" cy="-18" rx="27.5142" ry="18"/>
<text text-anchor="middle" x="241" y="-12.4" font-family="Times,serif" font-size="14.00">Post</text>
</g>
<!-- Food&#45;&gt;Post -->
<g id="edge4" class="edge"><title>Food&#45;&gt;Post</title>
<path fill="none" stroke="#26150f" d="M296.094,-69.0859C286.095,-59.9954 274.249,-49.226 264.108,-40.0071"/>
<ellipse fill="none" stroke="#26150f" cx="299.086" cy="-71.8052" rx="4.00002" ry="4.00002"/>
<polygon fill="#26150f" stroke="#26150f" points="263.808,-39.7346 259.436,-29.6781 260.108,-36.3712 256.409,-33.0078 256.409,-33.0078 256.409,-33.0078 260.108,-36.3712 253.382,-36.3375 263.808,-39.7346 263.808,-39.7346"/>
</g>
<!-- Price -->
<g id="node6" class="node"><title>Price</title>
<ellipse fill="none" stroke="black" cx="318" cy="-18" rx="30.32" ry="18"/>
<text text-anchor="middle" x="318" y="-12.4" font-family="Times,serif" font-size="14.00">Price</text>
</g>
<!-- Food&#45;&gt;Price -->
<g id="edge6" class="edge"><title>Food&#45;&gt;Price</title>
<path fill="none" stroke="#f8b70d" d="M318,-63.6398C318,-58.0629 318,-52.1319 318,-46.4761"/>
<ellipse fill="none" stroke="#f8b70d" cx="318" cy="-67.6966" rx="4" ry="4"/>
<polygon fill="#f8b70d" stroke="#f8b70d" points="318,-46.1043 322.5,-36.1043 318,-41.1043 318,-36.1043 318,-36.1043 318,-36.1043 318,-41.1043 313.5,-36.1044 318,-46.1043 318,-46.1043"/>
</g>
<!-- Shop -->
<g id="node7" class="node"><title>Shop</title>
<ellipse fill="none" stroke="black" cx="398" cy="-18" rx="30.3409" ry="18"/>
<text text-anchor="middle" x="398" y="-12.4" font-family="Times,serif" font-size="14.00">Shop</text>
</g>
<!-- Food&#45;&gt;Shop -->
<g id="edge8" class="edge"><title>Food&#45;&gt;Shop</title>
<path fill="none" stroke="#19e732" d="M342.154,-67.8649C352.256,-59.026 363.966,-48.7799 374.046,-39.9597"/>
<polygon fill="#19e732" stroke="#19e732" points="342.102,-67.9109 331.613,-71.1093 338.339,-71.2034 334.576,-74.496 334.576,-74.496 334.576,-74.496 338.339,-71.2034 337.539,-77.8826 342.102,-67.9109 342.102,-67.9109"/>
<polygon fill="#19e732" stroke="#19e732" points="374.193,-39.831 384.682,-36.6326 377.956,-36.5385 381.719,-33.246 381.719,-33.246 381.719,-33.246 377.956,-36.5385 378.756,-29.8594 374.193,-39.831 374.193,-39.831"/>
</g>
<!-- Location -->
<g id="node4" class="node"><title>Location</title>
<ellipse fill="none" stroke="black" cx="458" cy="-187" rx="45.0398" ry="18"/>
<text text-anchor="middle" x="458" y="-181.4" font-family="Times,serif" font-size="14.00">Location</text>
</g>
<!-- User -->
<g id="node8" class="node"><title>User</title>
<ellipse fill="none" stroke="black" cx="365" cy="-187" rx="28.9087" ry="18"/>
<text text-anchor="middle" x="365" y="-181.4" font-family="Times,serif" font-size="14.00">User</text>
</g>
<!-- User&#45;&gt;Food -->
<g id="edge10" class="edge"><title>User&#45;&gt;Food</title>
<path fill="none" stroke="#a3f291" d="M353.141,-162.03C346.272,-148.145 337.627,-130.672 330.631,-116.531"/>
<ellipse fill="none" stroke="#a3f291" cx="355.039" cy="-165.867" rx="4.00002" ry="4.00002"/>
<polygon fill="#a3f291" stroke="#a3f291" points="330.527,-116.321 330.126,-105.363 328.31,-111.84 326.093,-107.358 326.093,-107.358 326.093,-107.358 328.31,-111.84 322.06,-109.354 330.527,-116.321 330.527,-116.321"/>
</g>
</g>
</svg>
