<?xml version="1.0" encoding="UTF-8" standalone="no"?>
<!DOCTYPE svg PUBLIC "-//W3C//DTD SVG 1.1//EN"
 "http://www.w3.org/Graphics/SVG/1.1/DTD/svg11.dtd">
<!-- Generated by graphviz version 2.28.0 (20121111.0637)
 -->
<!-- Title: models_diagram Pages: 1 -->
<svg width="686pt" height="586pt"
 viewBox="0.00 0.00 686.00 586.00" xmlns="http://www.w3.org/2000/svg" xmlns:xlink="http://www.w3.org/1999/xlink">
<g id="graph1" class="graph" transform="scale(1 1) rotate(0) translate(4 582)">
<title>models_diagram</title>
<polygon fill="white" stroke="white" points="-4,5 -4,-582 683,-582 683,5 -4,5"/>
<!-- _diagram_info -->
<g id="node1" class="node"><title>_diagram_info</title>
<text text-anchor="start" x="7.55029" y="-511" font-family="Times,serif" font-size="13.00">Models diagram</text>
<text text-anchor="start" x="7.55029" y="-495.4" font-family="Times,serif" font-size="13.00">Date: Nov 26 2012 &#45; 17:58</text>
<text text-anchor="start" x="7.55029" y="-479.8" font-family="Times,serif" font-size="13.00">Migration version: 20121126235759</text>
<text text-anchor="start" x="7.55029" y="-464.2" font-family="Times,serif" font-size="13.00">Generated by RailRoady 1.1.0</text>
<text text-anchor="start" x="7.55029" y="-448.6" font-family="Times,serif" font-size="13.00">http://railroady.prestonlee.com</text>
</g>
<!-- Category -->
<g id="node2" class="node"><title>Category</title>
<polyline fill="none" stroke="black" points="236.933,-435 349.067,-435 "/>
<path fill="none" stroke="black" d="M349.067,-435C355.067,-435 361.067,-441 361.067,-447"/>
<polyline fill="none" stroke="black" points="361.067,-447 361.067,-523 "/>
<path fill="none" stroke="black" d="M361.067,-523C361.067,-529 355.067,-535 349.067,-535"/>
<polyline fill="none" stroke="black" points="349.067,-535 236.933,-535 "/>
<path fill="none" stroke="black" d="M236.933,-535C230.933,-535 224.933,-529 224.933,-523"/>
<polyline fill="none" stroke="black" points="224.933,-523 224.933,-447 "/>
<path fill="none" stroke="black" d="M224.933,-447C224.933,-441 230.933,-435 236.933,-435"/>
<text text-anchor="middle" x="293" y="-517" font-family="Times,serif" font-size="14.00">Category</text>
<polyline fill="none" stroke="black" points="224.933,-510.2 361.067,-510.2 "/>
<text text-anchor="start" x="232.933" y="-492.2" font-family="Times,serif" font-size="14.00">id :integer</text>
<text text-anchor="start" x="232.933" y="-475.4" font-family="Times,serif" font-size="14.00">food_category :string</text>
<text text-anchor="start" x="232.933" y="-458.6" font-family="Times,serif" font-size="14.00">created_at :datetime</text>
<text text-anchor="start" x="232.933" y="-441.8" font-family="Times,serif" font-size="14.00">updated_at :datetime</text>
</g>
<!-- Food -->
<g id="node3" class="node"><title>Food</title>
<polyline fill="none" stroke="black" points="318.495,-188.4 427.505,-188.4 "/>
<path fill="none" stroke="black" d="M427.505,-188.4C433.505,-188.4 439.505,-194.4 439.505,-200.4"/>
<polyline fill="none" stroke="black" points="439.505,-200.4 439.505,-343.6 "/>
<path fill="none" stroke="black" d="M439.505,-343.6C439.505,-349.6 433.505,-355.6 427.505,-355.6"/>
<polyline fill="none" stroke="black" points="427.505,-355.6 318.495,-355.6 "/>
<path fill="none" stroke="black" d="M318.495,-355.6C312.495,-355.6 306.495,-349.6 306.495,-343.6"/>
<polyline fill="none" stroke="black" points="306.495,-343.6 306.495,-200.4 "/>
<path fill="none" stroke="black" d="M306.495,-200.4C306.495,-194.4 312.495,-188.4 318.495,-188.4"/>
<text text-anchor="middle" x="373" y="-337.6" font-family="Times,serif" font-size="14.00">Food</text>
<polyline fill="none" stroke="black" points="306.495,-330.8 439.505,-330.8 "/>
<text text-anchor="start" x="314.495" y="-312.8" font-family="Times,serif" font-size="14.00">id :integer</text>
<text text-anchor="start" x="314.495" y="-296" font-family="Times,serif" font-size="14.00">name :string</text>
<text text-anchor="start" x="314.495" y="-279.2" font-family="Times,serif" font-size="14.00">picture :string</text>
<text text-anchor="start" x="314.495" y="-262.4" font-family="Times,serif" font-size="14.00">category_id :integer</text>
<text text-anchor="start" x="314.495" y="-245.6" font-family="Times,serif" font-size="14.00">created_at :datetime</text>
<text text-anchor="start" x="314.495" y="-228.8" font-family="Times,serif" font-size="14.00">updated_at :datetime</text>
<text text-anchor="start" x="314.495" y="-212" font-family="Times,serif" font-size="14.00">user_id :integer</text>
<text text-anchor="start" x="314.495" y="-195.2" font-family="Times,serif" font-size="14.00">price_id :integer</text>
</g>
<!-- Category&#45;&gt;Food -->
<g id="edge2" class="edge"><title>Category&#45;&gt;Food</title>
<path fill="none" stroke="#f1b2af" d="M314.538,-427.192C321.754,-408.161 329.996,-386.422 337.971,-365.39"/>
<ellipse fill="none" stroke="#f1b2af" cx="313.074" cy="-431.056" rx="4.00001" ry="4.00001"/>
<polygon fill="#f1b2af" stroke="#f1b2af" points="338.066,-365.138 345.819,-357.383 339.839,-360.463 341.611,-355.788 341.611,-355.788 341.611,-355.788 339.839,-360.463 337.404,-354.192 338.066,-365.138 338.066,-365.138"/>
</g>
<!-- Post -->
<g id="node4" class="node"><title>Post</title>
<polyline fill="none" stroke="black" points="243.495,-0.8 352.505,-0.8 "/>
<path fill="none" stroke="black" d="M352.505,-0.8C358.505,-0.8 364.505,-6.8 364.505,-12.8"/>
<polyline fill="none" stroke="black" points="364.505,-12.8 364.505,-139.2 "/>
<path fill="none" stroke="black" d="M364.505,-139.2C364.505,-145.2 358.505,-151.2 352.505,-151.2"/>
<polyline fill="none" stroke="black" points="352.505,-151.2 243.495,-151.2 "/>
<path fill="none" stroke="black" d="M243.495,-151.2C237.495,-151.2 231.495,-145.2 231.495,-139.2"/>
<polyline fill="none" stroke="black" points="231.495,-139.2 231.495,-12.8 "/>
<path fill="none" stroke="black" d="M231.495,-12.8C231.495,-6.8 237.495,-0.8 243.495,-0.8"/>
<text text-anchor="middle" x="298" y="-133.2" font-family="Times,serif" font-size="14.00">Post</text>
<polyline fill="none" stroke="black" points="231.495,-126.4 364.505,-126.4 "/>
<text text-anchor="start" x="239.495" y="-108.4" font-family="Times,serif" font-size="14.00">id :integer</text>
<text text-anchor="start" x="239.495" y="-91.6" font-family="Times,serif" font-size="14.00">note :text</text>
<text text-anchor="start" x="239.495" y="-74.8" font-family="Times,serif" font-size="14.00">rating :integer</text>
<text text-anchor="start" x="239.495" y="-58" font-family="Times,serif" font-size="14.00">picture :string</text>
<text text-anchor="start" x="239.495" y="-41.2" font-family="Times,serif" font-size="14.00">food_id :integer</text>
<text text-anchor="start" x="239.495" y="-24.4" font-family="Times,serif" font-size="14.00">created_at :datetime</text>
<text text-anchor="start" x="239.495" y="-7.6" font-family="Times,serif" font-size="14.00">updated_at :datetime</text>
</g>
<!-- Food&#45;&gt;Post -->
<g id="edge4" class="edge"><title>Food&#45;&gt;Post</title>
<path fill="none" stroke="#7bdc69" d="M338.076,-180.664C335.521,-174.054 332.949,-167.401 330.409,-160.831"/>
<ellipse fill="none" stroke="#7bdc69" cx="339.533" cy="-184.433" rx="4.00001" ry="4.00001"/>
<polygon fill="#7bdc69" stroke="#7bdc69" points="330.322,-160.606 330.913,-149.656 328.519,-155.942 326.716,-151.278 326.716,-151.278 326.716,-151.278 328.519,-155.942 322.519,-152.901 330.322,-160.606 330.322,-160.606"/>
</g>
<!-- Price -->
<g id="node5" class="node"><title>Price</title>
<polyline fill="none" stroke="black" points="394.495,-17.6 503.505,-17.6 "/>
<path fill="none" stroke="black" d="M503.505,-17.6C509.505,-17.6 515.505,-23.6 515.505,-29.6"/>
<polyline fill="none" stroke="black" points="515.505,-29.6 515.505,-122.4 "/>
<path fill="none" stroke="black" d="M515.505,-122.4C515.505,-128.4 509.505,-134.4 503.505,-134.4"/>
<polyline fill="none" stroke="black" points="503.505,-134.4 394.495,-134.4 "/>
<path fill="none" stroke="black" d="M394.495,-134.4C388.495,-134.4 382.495,-128.4 382.495,-122.4"/>
<polyline fill="none" stroke="black" points="382.495,-122.4 382.495,-29.6 "/>
<path fill="none" stroke="black" d="M382.495,-29.6C382.495,-23.6 388.495,-17.6 394.495,-17.6"/>
<text text-anchor="middle" x="449" y="-116.4" font-family="Times,serif" font-size="14.00">Price</text>
<polyline fill="none" stroke="black" points="382.495,-109.6 515.505,-109.6 "/>
<text text-anchor="start" x="390.495" y="-91.6" font-family="Times,serif" font-size="14.00">id :integer</text>
<text text-anchor="start" x="390.495" y="-74.8" font-family="Times,serif" font-size="14.00">price :decimal</text>
<text text-anchor="start" x="390.495" y="-58" font-family="Times,serif" font-size="14.00">created_at :datetime</text>
<text text-anchor="start" x="390.495" y="-41.2" font-family="Times,serif" font-size="14.00">updated_at :datetime</text>
<text text-anchor="start" x="390.495" y="-24.4" font-family="Times,serif" font-size="14.00">food_id :integer</text>
</g>
<!-- Food&#45;&gt;Price -->
<g id="edge6" class="edge"><title>Food&#45;&gt;Price</title>
<path fill="none" stroke="#307f10" d="M408.443,-180.528C413.219,-168.336 418.049,-156.006 422.63,-144.313"/>
<ellipse fill="none" stroke="#307f10" cx="406.91" cy="-184.439" rx="4.00001" ry="4.00001"/>
<polygon fill="#307f10" stroke="#307f10" points="422.765,-143.969 430.602,-136.299 424.589,-139.313 426.412,-134.658 426.412,-134.658 426.412,-134.658 424.589,-139.313 422.223,-133.016 422.765,-143.969 422.765,-143.969"/>
</g>
<!-- Shop -->
<g id="node6" class="node"><title>Shop</title>
<polyline fill="none" stroke="black" points="557.495,-426.6 666.505,-426.6 "/>
<path fill="none" stroke="black" d="M666.505,-426.6C672.505,-426.6 678.505,-432.6 678.505,-438.6"/>
<polyline fill="none" stroke="black" points="678.505,-438.6 678.505,-531.4 "/>
<path fill="none" stroke="black" d="M678.505,-531.4C678.505,-537.4 672.505,-543.4 666.505,-543.4"/>
<polyline fill="none" stroke="black" points="666.505,-543.4 557.495,-543.4 "/>
<path fill="none" stroke="black" d="M557.495,-543.4C551.495,-543.4 545.495,-537.4 545.495,-531.4"/>
<polyline fill="none" stroke="black" points="545.495,-531.4 545.495,-438.6 "/>
<path fill="none" stroke="black" d="M545.495,-438.6C545.495,-432.6 551.495,-426.6 557.495,-426.6"/>
<text text-anchor="middle" x="612" y="-525.4" font-family="Times,serif" font-size="14.00">Shop</text>
<polyline fill="none" stroke="black" points="545.495,-518.6 678.505,-518.6 "/>
<text text-anchor="start" x="553.495" y="-500.6" font-family="Times,serif" font-size="14.00">id :integer</text>
<text text-anchor="start" x="553.495" y="-483.8" font-family="Times,serif" font-size="14.00">name :string</text>
<text text-anchor="start" x="553.495" y="-467" font-family="Times,serif" font-size="14.00">address :string</text>
<text text-anchor="start" x="553.495" y="-450.2" font-family="Times,serif" font-size="14.00">created_at :datetime</text>
<text text-anchor="start" x="553.495" y="-433.4" font-family="Times,serif" font-size="14.00">updated_at :datetime</text>
</g>
<!-- User -->
<g id="node7" class="node"><title>User</title>
<polyline fill="none" stroke="black" points="390.698,-393 515.302,-393 "/>
<path fill="none" stroke="black" d="M515.302,-393C521.302,-393 527.302,-399 527.302,-405"/>
<polyline fill="none" stroke="black" points="527.302,-405 527.302,-565 "/>
<path fill="none" stroke="black" d="M527.302,-565C527.302,-571 521.302,-577 515.302,-577"/>
<polyline fill="none" stroke="black" points="515.302,-577 390.698,-577 "/>
<path fill="none" stroke="black" d="M390.698,-577C384.698,-577 378.698,-571 378.698,-565"/>
<polyline fill="none" stroke="black" points="378.698,-565 378.698,-405 "/>
<path fill="none" stroke="black" d="M378.698,-405C378.698,-399 384.698,-393 390.698,-393"/>
<text text-anchor="middle" x="453" y="-559" font-family="Times,serif" font-size="14.00">User</text>
<polyline fill="none" stroke="black" points="378.698,-552.2 527.302,-552.2 "/>
<text text-anchor="start" x="386.698" y="-534.2" font-family="Times,serif" font-size="14.00">id :integer</text>
<text text-anchor="start" x="386.698" y="-517.4" font-family="Times,serif" font-size="14.00">fname :string</text>
<text text-anchor="start" x="386.698" y="-500.6" font-family="Times,serif" font-size="14.00">lname :string</text>
<text text-anchor="start" x="386.698" y="-483.8" font-family="Times,serif" font-size="14.00">email :string</text>
<text text-anchor="start" x="386.698" y="-467" font-family="Times,serif" font-size="14.00">password_digest :string</text>
<text text-anchor="start" x="386.698" y="-450.2" font-family="Times,serif" font-size="14.00">created_at :datetime</text>
<text text-anchor="start" x="386.698" y="-433.4" font-family="Times,serif" font-size="14.00">updated_at :datetime</text>
<text text-anchor="start" x="386.698" y="-416.6" font-family="Times,serif" font-size="14.00">food_id :integer</text>
<text text-anchor="start" x="386.698" y="-399.8" font-family="Times,serif" font-size="14.00">shop_id :integer</text>
</g>
<!-- User&#45;&gt;Food -->
<g id="edge8" class="edge"><title>User&#45;&gt;Food</title>
<path fill="none" stroke="#154f81" d="M415.621,-385.414C413.092,-378.742 410.548,-372.033 408.031,-365.394"/>
<ellipse fill="none" stroke="#154f81" cx="417.074" cy="-389.246" rx="4.00001" ry="4.00001"/>
<polygon fill="#154f81" stroke="#154f81" points="407.912,-365.08 408.574,-354.134 406.139,-360.405 404.367,-355.73 404.367,-355.73 404.367,-355.73 406.139,-360.405 400.159,-357.325 407.912,-365.08 407.912,-365.08"/>
</g>
</g>
</svg>
