<?xml version="1.0" encoding="UTF-8" standalone="no"?>
<!DOCTYPE svg PUBLIC "-//W3C//DTD SVG 1.1//EN"
 "http://www.w3.org/Graphics/SVG/1.1/DTD/svg11.dtd">
<!-- Generated by graphviz version 2.28.0 (20121111.0637)
 -->
<!-- Title: models_diagram Pages: 1 -->
<svg width="686pt" height="602pt"
 viewBox="0.00 0.00 686.00 602.00" xmlns="http://www.w3.org/2000/svg" xmlns:xlink="http://www.w3.org/1999/xlink">
<g id="graph1" class="graph" transform="scale(1 1) rotate(0) translate(4 598)">
<title>models_diagram</title>
<polygon fill="white" stroke="white" points="-4,5 -4,-598 683,-598 683,5 -4,5"/>
<!-- _diagram_info -->
<g id="node1" class="node"><title>_diagram_info</title>
<text text-anchor="start" x="7.55029" y="-527" font-family="Times,serif" font-size="13.00">Models diagram</text>
<text text-anchor="start" x="7.55029" y="-511.4" font-family="Times,serif" font-size="13.00">Date: Nov 26 2012 &#45; 18:45</text>
<text text-anchor="start" x="7.55029" y="-495.8" font-family="Times,serif" font-size="13.00">Migration version: 20121127004201</text>
<text text-anchor="start" x="7.55029" y="-480.2" font-family="Times,serif" font-size="13.00">Generated by RailRoady 1.1.0</text>
<text text-anchor="start" x="7.55029" y="-464.6" font-family="Times,serif" font-size="13.00">http://railroady.prestonlee.com</text>
</g>
<!-- Category -->
<g id="node2" class="node"><title>Category</title>
<polyline fill="none" stroke="black" points="236.933,-451 349.067,-451 "/>
<path fill="none" stroke="black" d="M349.067,-451C355.067,-451 361.067,-457 361.067,-463"/>
<polyline fill="none" stroke="black" points="361.067,-463 361.067,-539 "/>
<path fill="none" stroke="black" d="M361.067,-539C361.067,-545 355.067,-551 349.067,-551"/>
<polyline fill="none" stroke="black" points="349.067,-551 236.933,-551 "/>
<path fill="none" stroke="black" d="M236.933,-551C230.933,-551 224.933,-545 224.933,-539"/>
<polyline fill="none" stroke="black" points="224.933,-539 224.933,-463 "/>
<path fill="none" stroke="black" d="M224.933,-463C224.933,-457 230.933,-451 236.933,-451"/>
<text text-anchor="middle" x="293" y="-533" font-family="Times,serif" font-size="14.00">Category</text>
<polyline fill="none" stroke="black" points="224.933,-526.2 361.067,-526.2 "/>
<text text-anchor="start" x="232.933" y="-508.2" font-family="Times,serif" font-size="14.00">id :integer</text>
<text text-anchor="start" x="232.933" y="-491.4" font-family="Times,serif" font-size="14.00">food_category :string</text>
<text text-anchor="start" x="232.933" y="-474.6" font-family="Times,serif" font-size="14.00">created_at :datetime</text>
<text text-anchor="start" x="232.933" y="-457.8" font-family="Times,serif" font-size="14.00">updated_at :datetime</text>
</g>
<!-- Food -->
<g id="node3" class="node"><title>Food</title>
<polyline fill="none" stroke="black" points="277.495,-204.4 386.505,-204.4 "/>
<path fill="none" stroke="black" d="M386.505,-204.4C392.505,-204.4 398.505,-210.4 398.505,-216.4"/>
<polyline fill="none" stroke="black" points="398.505,-216.4 398.505,-359.6 "/>
<path fill="none" stroke="black" d="M398.505,-359.6C398.505,-365.6 392.505,-371.6 386.505,-371.6"/>
<polyline fill="none" stroke="black" points="386.505,-371.6 277.495,-371.6 "/>
<path fill="none" stroke="black" d="M277.495,-371.6C271.495,-371.6 265.495,-365.6 265.495,-359.6"/>
<polyline fill="none" stroke="black" points="265.495,-359.6 265.495,-216.4 "/>
<path fill="none" stroke="black" d="M265.495,-216.4C265.495,-210.4 271.495,-204.4 277.495,-204.4"/>
<text text-anchor="middle" x="332" y="-353.6" font-family="Times,serif" font-size="14.00">Food</text>
<polyline fill="none" stroke="black" points="265.495,-346.8 398.505,-346.8 "/>
<text text-anchor="start" x="273.495" y="-328.8" font-family="Times,serif" font-size="14.00">id :integer</text>
<text text-anchor="start" x="273.495" y="-312" font-family="Times,serif" font-size="14.00">name :string</text>
<text text-anchor="start" x="273.495" y="-295.2" font-family="Times,serif" font-size="14.00">picture :string</text>
<text text-anchor="start" x="273.495" y="-278.4" font-family="Times,serif" font-size="14.00">category_id :integer</text>
<text text-anchor="start" x="273.495" y="-261.6" font-family="Times,serif" font-size="14.00">created_at :datetime</text>
<text text-anchor="start" x="273.495" y="-244.8" font-family="Times,serif" font-size="14.00">updated_at :datetime</text>
<text text-anchor="start" x="273.495" y="-228" font-family="Times,serif" font-size="14.00">user_id :integer</text>
<text text-anchor="start" x="273.495" y="-211.2" font-family="Times,serif" font-size="14.00">price_id :integer</text>
</g>
<!-- Category&#45;&gt;Food -->
<g id="edge2" class="edge"><title>Category&#45;&gt;Food</title>
<path fill="none" stroke="#75d489" d="M303.553,-442.905C307.045,-424.015 311.025,-402.482 314.879,-381.63"/>
<ellipse fill="none" stroke="#75d489" cx="302.822" cy="-446.863" rx="4.00001" ry="4.00001"/>
<polygon fill="#75d489" stroke="#75d489" points="314.88,-381.621 321.123,-372.606 315.789,-376.705 316.698,-371.788 316.698,-371.788 316.698,-371.788 315.789,-376.705 312.273,-370.97 314.88,-381.621 314.88,-381.621"/>
</g>
<!-- Post -->
<g id="node5" class="node"><title>Post</title>
<polyline fill="none" stroke="black" points="428.495,-0.4 537.505,-0.4 "/>
<path fill="none" stroke="black" d="M537.505,-0.4C543.505,-0.4 549.505,-6.4 549.505,-12.4"/>
<polyline fill="none" stroke="black" points="549.505,-12.4 549.505,-155.6 "/>
<path fill="none" stroke="black" d="M549.505,-155.6C549.505,-161.6 543.505,-167.6 537.505,-167.6"/>
<polyline fill="none" stroke="black" points="537.505,-167.6 428.495,-167.6 "/>
<path fill="none" stroke="black" d="M428.495,-167.6C422.495,-167.6 416.495,-161.6 416.495,-155.6"/>
<polyline fill="none" stroke="black" points="416.495,-155.6 416.495,-12.4 "/>
<path fill="none" stroke="black" d="M416.495,-12.4C416.495,-6.4 422.495,-0.4 428.495,-0.4"/>
<text text-anchor="middle" x="483" y="-149.6" font-family="Times,serif" font-size="14.00">Post</text>
<polyline fill="none" stroke="black" points="416.495,-142.8 549.505,-142.8 "/>
<text text-anchor="start" x="424.495" y="-124.8" font-family="Times,serif" font-size="14.00">id :integer</text>
<text text-anchor="start" x="424.495" y="-108" font-family="Times,serif" font-size="14.00">note :text</text>
<text text-anchor="start" x="424.495" y="-91.2" font-family="Times,serif" font-size="14.00">rating :integer</text>
<text text-anchor="start" x="424.495" y="-74.4" font-family="Times,serif" font-size="14.00">picture :string</text>
<text text-anchor="start" x="424.495" y="-57.6" font-family="Times,serif" font-size="14.00">food_id :integer</text>
<text text-anchor="start" x="424.495" y="-40.8" font-family="Times,serif" font-size="14.00">created_at :datetime</text>
<text text-anchor="start" x="424.495" y="-24" font-family="Times,serif" font-size="14.00">updated_at :datetime</text>
<text text-anchor="start" x="424.495" y="-7.2" font-family="Times,serif" font-size="14.00">user_id :integer</text>
</g>
<!-- Food&#45;&gt;Post -->
<g id="edge4" class="edge"><title>Food&#45;&gt;Post</title>
<path fill="none" stroke="#8ae5b3" d="M398.75,-197.706C404.127,-190.512 409.564,-183.239 414.95,-176.033"/>
<ellipse fill="none" stroke="#8ae5b3" cx="396.248" cy="-201.052" rx="4.00002" ry="4.00002"/>
<polygon fill="#8ae5b3" stroke="#8ae5b3" points="415.256,-175.625 424.847,-170.31 418.249,-171.62 421.243,-167.615 421.243,-167.615 421.243,-167.615 418.249,-171.62 417.639,-164.921 415.256,-175.625 415.256,-175.625"/>
</g>
<!-- Price -->
<g id="node6" class="node"><title>Price</title>
<polyline fill="none" stroke="black" points="126.495,-25.6 235.505,-25.6 "/>
<path fill="none" stroke="black" d="M235.505,-25.6C241.505,-25.6 247.505,-31.6 247.505,-37.6"/>
<polyline fill="none" stroke="black" points="247.505,-37.6 247.505,-130.4 "/>
<path fill="none" stroke="black" d="M247.505,-130.4C247.505,-136.4 241.505,-142.4 235.505,-142.4"/>
<polyline fill="none" stroke="black" points="235.505,-142.4 126.495,-142.4 "/>
<path fill="none" stroke="black" d="M126.495,-142.4C120.495,-142.4 114.495,-136.4 114.495,-130.4"/>
<polyline fill="none" stroke="black" points="114.495,-130.4 114.495,-37.6 "/>
<path fill="none" stroke="black" d="M114.495,-37.6C114.495,-31.6 120.495,-25.6 126.495,-25.6"/>
<text text-anchor="middle" x="181" y="-124.4" font-family="Times,serif" font-size="14.00">Price</text>
<polyline fill="none" stroke="black" points="114.495,-117.6 247.505,-117.6 "/>
<text text-anchor="start" x="122.495" y="-99.6" font-family="Times,serif" font-size="14.00">id :integer</text>
<text text-anchor="start" x="122.495" y="-82.8" font-family="Times,serif" font-size="14.00">price :decimal</text>
<text text-anchor="start" x="122.495" y="-66" font-family="Times,serif" font-size="14.00">created_at :datetime</text>
<text text-anchor="start" x="122.495" y="-49.2" font-family="Times,serif" font-size="14.00">updated_at :datetime</text>
<text text-anchor="start" x="122.495" y="-32.4" font-family="Times,serif" font-size="14.00">food_id :integer</text>
</g>
<!-- Food&#45;&gt;Price -->
<g id="edge6" class="edge"><title>Food&#45;&gt;Price</title>
<path fill="none" stroke="#2311ec" d="M265.044,-197.43C253.31,-181.732 241.297,-165.662 230.158,-150.761"/>
<ellipse fill="none" stroke="#2311ec" cx="267.752" cy="-201.052" rx="4.00002" ry="4.00002"/>
<polygon fill="#2311ec" stroke="#2311ec" points="230.054,-150.622 227.671,-139.918 227.061,-146.617 224.067,-142.613 224.067,-142.613 224.067,-142.613 227.061,-146.617 220.463,-145.307 230.054,-150.622 230.054,-150.622"/>
</g>
<!-- Shop -->
<g id="node7" class="node"><title>Shop</title>
<polyline fill="none" stroke="black" points="277.495,-17.2 386.505,-17.2 "/>
<path fill="none" stroke="black" d="M386.505,-17.2C392.505,-17.2 398.505,-23.2 398.505,-29.2"/>
<polyline fill="none" stroke="black" points="398.505,-29.2 398.505,-138.8 "/>
<path fill="none" stroke="black" d="M398.505,-138.8C398.505,-144.8 392.505,-150.8 386.505,-150.8"/>
<polyline fill="none" stroke="black" points="386.505,-150.8 277.495,-150.8 "/>
<path fill="none" stroke="black" d="M277.495,-150.8C271.495,-150.8 265.495,-144.8 265.495,-138.8"/>
<polyline fill="none" stroke="black" points="265.495,-138.8 265.495,-29.2 "/>
<path fill="none" stroke="black" d="M265.495,-29.2C265.495,-23.2 271.495,-17.2 277.495,-17.2"/>
<text text-anchor="middle" x="332" y="-132.8" font-family="Times,serif" font-size="14.00">Shop</text>
<polyline fill="none" stroke="black" points="265.495,-126 398.505,-126 "/>
<text text-anchor="start" x="273.495" y="-108" font-family="Times,serif" font-size="14.00">id :integer</text>
<text text-anchor="start" x="273.495" y="-91.2" font-family="Times,serif" font-size="14.00">name :string</text>
<text text-anchor="start" x="273.495" y="-74.4" font-family="Times,serif" font-size="14.00">address :string</text>
<text text-anchor="start" x="273.495" y="-57.6" font-family="Times,serif" font-size="14.00">created_at :datetime</text>
<text text-anchor="start" x="273.495" y="-40.8" font-family="Times,serif" font-size="14.00">updated_at :datetime</text>
<text text-anchor="start" x="273.495" y="-24" font-family="Times,serif" font-size="14.00">user_id :integer</text>
</g>
<!-- Food&#45;&gt;Shop -->
<g id="edge8" class="edge"><title>Food&#45;&gt;Shop</title>
<path fill="none" stroke="#e21475" d="M332,-194.199C332,-183.134 332,-171.937 332,-161.143"/>
<polygon fill="#e21475" stroke="#e21475" points="332,-194.256 327.5,-204.256 332,-199.256 332,-204.256 332,-204.256 332,-204.256 332,-199.256 336.5,-204.256 332,-194.256 332,-194.256"/>
<polygon fill="#e21475" stroke="#e21475" points="332,-160.936 336.5,-150.936 332,-155.936 332,-150.936 332,-150.936 332,-150.936 332,-155.936 327.5,-150.936 332,-160.936 332,-160.936"/>
</g>
<!-- Location -->
<g id="node4" class="node"><title>Location</title>
<polyline fill="none" stroke="black" points="557.495,-442.6 666.505,-442.6 "/>
<path fill="none" stroke="black" d="M666.505,-442.6C672.505,-442.6 678.505,-448.6 678.505,-454.6"/>
<polyline fill="none" stroke="black" points="678.505,-454.6 678.505,-547.4 "/>
<path fill="none" stroke="black" d="M678.505,-547.4C678.505,-553.4 672.505,-559.4 666.505,-559.4"/>
<polyline fill="none" stroke="black" points="666.505,-559.4 557.495,-559.4 "/>
<path fill="none" stroke="black" d="M557.495,-559.4C551.495,-559.4 545.495,-553.4 545.495,-547.4"/>
<polyline fill="none" stroke="black" points="545.495,-547.4 545.495,-454.6 "/>
<path fill="none" stroke="black" d="M545.495,-454.6C545.495,-448.6 551.495,-442.6 557.495,-442.6"/>
<text text-anchor="middle" x="612" y="-541.4" font-family="Times,serif" font-size="14.00">Location</text>
<polyline fill="none" stroke="black" points="545.495,-534.6 678.505,-534.6 "/>
<text text-anchor="start" x="553.495" y="-516.6" font-family="Times,serif" font-size="14.00">id :integer</text>
<text text-anchor="start" x="553.495" y="-499.8" font-family="Times,serif" font-size="14.00">food_id :integer</text>
<text text-anchor="start" x="553.495" y="-483" font-family="Times,serif" font-size="14.00">shop_id :integer</text>
<text text-anchor="start" x="553.495" y="-466.2" font-family="Times,serif" font-size="14.00">created_at :datetime</text>
<text text-anchor="start" x="553.495" y="-449.4" font-family="Times,serif" font-size="14.00">updated_at :datetime</text>
</g>
<!-- User -->
<g id="node8" class="node"><title>User</title>
<polyline fill="none" stroke="black" points="390.698,-409 515.302,-409 "/>
<path fill="none" stroke="black" d="M515.302,-409C521.302,-409 527.302,-415 527.302,-421"/>
<polyline fill="none" stroke="black" points="527.302,-421 527.302,-581 "/>
<path fill="none" stroke="black" d="M527.302,-581C527.302,-587 521.302,-593 515.302,-593"/>
<polyline fill="none" stroke="black" points="515.302,-593 390.698,-593 "/>
<path fill="none" stroke="black" d="M390.698,-593C384.698,-593 378.698,-587 378.698,-581"/>
<polyline fill="none" stroke="black" points="378.698,-581 378.698,-421 "/>
<path fill="none" stroke="black" d="M378.698,-421C378.698,-415 384.698,-409 390.698,-409"/>
<text text-anchor="middle" x="453" y="-575" font-family="Times,serif" font-size="14.00">User</text>
<polyline fill="none" stroke="black" points="378.698,-568.2 527.302,-568.2 "/>
<text text-anchor="start" x="386.698" y="-550.2" font-family="Times,serif" font-size="14.00">id :integer</text>
<text text-anchor="start" x="386.698" y="-533.4" font-family="Times,serif" font-size="14.00">fname :string</text>
<text text-anchor="start" x="386.698" y="-516.6" font-family="Times,serif" font-size="14.00">lname :string</text>
<text text-anchor="start" x="386.698" y="-499.8" font-family="Times,serif" font-size="14.00">email :string</text>
<text text-anchor="start" x="386.698" y="-483" font-family="Times,serif" font-size="14.00">password_digest :string</text>
<text text-anchor="start" x="386.698" y="-466.2" font-family="Times,serif" font-size="14.00">created_at :datetime</text>
<text text-anchor="start" x="386.698" y="-449.4" font-family="Times,serif" font-size="14.00">updated_at :datetime</text>
<text text-anchor="start" x="386.698" y="-432.6" font-family="Times,serif" font-size="14.00">food_id :integer</text>
<text text-anchor="start" x="386.698" y="-415.8" font-family="Times,serif" font-size="14.00">shop_id :integer</text>
</g>
<!-- User&#45;&gt;Food -->
<g id="edge10" class="edge"><title>User&#45;&gt;Food</title>
<path fill="none" stroke="#ea9c7b" d="M396.8,-401.998C392.718,-394.881 388.611,-387.718 384.552,-380.64"/>
<ellipse fill="none" stroke="#ea9c7b" cx="398.817" cy="-405.516" rx="4.00002" ry="4.00002"/>
<polygon fill="#ea9c7b" stroke="#ea9c7b" points="384.417,-380.405 383.346,-369.491 381.93,-376.067 379.442,-371.73 379.442,-371.73 379.442,-371.73 381.93,-376.067 375.539,-373.968 384.417,-380.405 384.417,-380.405"/>
</g>
<!-- User&#45;&gt;Post -->
<g id="edge14" class="edge"><title>User&#45;&gt;Post</title>
<path fill="none" stroke="#313776" d="M460.171,-400.807C465.064,-333.117 471.502,-244.062 476.293,-177.781"/>
<ellipse fill="none" stroke="#313776" cx="459.872" cy="-404.937" rx="4" ry="4"/>
<polygon fill="#313776" stroke="#313776" points="476.296,-177.734 481.506,-168.084 476.657,-172.747 477.017,-167.76 477.017,-167.76 477.017,-167.76 476.657,-172.747 472.529,-167.435 476.296,-177.734 476.296,-177.734"/>
</g>
<!-- User&#45;&gt;Shop -->
<g id="edge12" class="edge"><title>User&#45;&gt;Shop</title>
<path fill="none" stroke="#f58daf" d="M447.692,-400.684C442.095,-341.976 430.6,-267.029 407,-204 401.398,-189.038 393.761,-173.952 385.495,-159.781"/>
<ellipse fill="none" stroke="#f58daf" cx="448.077" cy="-404.875" rx="4" ry="4"/>
<polygon fill="#f58daf" stroke="#f58daf" points="385.423,-159.662 384.139,-148.772 382.851,-155.374 380.28,-151.086 380.28,-151.086 380.28,-151.086 382.851,-155.374 376.421,-153.401 385.423,-159.662 385.423,-159.662"/>
</g>
</g>
</svg>
