<?xml version="1.0" encoding="UTF-8" standalone="no"?>
<!DOCTYPE svg PUBLIC "-//W3C//DTD SVG 1.1//EN"
 "http://www.w3.org/Graphics/SVG/1.1/DTD/svg11.dtd">
<!-- Generated by graphviz version 2.28.0 (20121111.0637)
 -->
<!-- Title: models_diagram Pages: 1 -->
<svg width="686pt" height="586pt"
 viewBox="0.00 0.00 686.00 586.00" xmlns="http://www.w3.org/2000/svg" xmlns:xlink="http://www.w3.org/1999/xlink">
<g id="graph1" class="graph" transform="scale(1 1) rotate(0) translate(4 582)">
<title>models_diagram</title>
<polygon fill="white" stroke="white" points="-4,5 -4,-582 683,-582 683,5 -4,5"/>
<!-- _diagram_info -->
<g id="node1" class="node"><title>_diagram_info</title>
<text text-anchor="start" x="7.55029" y="-511" font-family="Times,serif" font-size="13.00">Models diagram</text>
<text text-anchor="start" x="7.55029" y="-495.4" font-family="Times,serif" font-size="13.00">Date: Nov 26 2012 &#45; 18:09</text>
<text text-anchor="start" x="7.55029" y="-479.8" font-family="Times,serif" font-size="13.00">Migration version: 20121127000641</text>
<text text-anchor="start" x="7.55029" y="-464.2" font-family="Times,serif" font-size="13.00">Generated by RailRoady 1.1.0</text>
<text text-anchor="start" x="7.55029" y="-448.6" font-family="Times,serif" font-size="13.00">http://railroady.prestonlee.com</text>
</g>
<!-- Category -->
<g id="node2" class="node"><title>Category</title>
<polyline fill="none" stroke="black" points="236.933,-435 349.067,-435 "/>
<path fill="none" stroke="black" d="M349.067,-435C355.067,-435 361.067,-441 361.067,-447"/>
<polyline fill="none" stroke="black" points="361.067,-447 361.067,-523 "/>
<path fill="none" stroke="black" d="M361.067,-523C361.067,-529 355.067,-535 349.067,-535"/>
<polyline fill="none" stroke="black" points="349.067,-535 236.933,-535 "/>
<path fill="none" stroke="black" d="M236.933,-535C230.933,-535 224.933,-529 224.933,-523"/>
<polyline fill="none" stroke="black" points="224.933,-523 224.933,-447 "/>
<path fill="none" stroke="black" d="M224.933,-447C224.933,-441 230.933,-435 236.933,-435"/>
<text text-anchor="middle" x="293" y="-517" font-family="Times,serif" font-size="14.00">Category</text>
<polyline fill="none" stroke="black" points="224.933,-510.2 361.067,-510.2 "/>
<text text-anchor="start" x="232.933" y="-492.2" font-family="Times,serif" font-size="14.00">id :integer</text>
<text text-anchor="start" x="232.933" y="-475.4" font-family="Times,serif" font-size="14.00">food_category :string</text>
<text text-anchor="start" x="232.933" y="-458.6" font-family="Times,serif" font-size="14.00">created_at :datetime</text>
<text text-anchor="start" x="232.933" y="-441.8" font-family="Times,serif" font-size="14.00">updated_at :datetime</text>
</g>
<!-- Food -->
<g id="node3" class="node"><title>Food</title>
<polyline fill="none" stroke="black" points="247.495,-188.4 356.505,-188.4 "/>
<path fill="none" stroke="black" d="M356.505,-188.4C362.505,-188.4 368.505,-194.4 368.505,-200.4"/>
<polyline fill="none" stroke="black" points="368.505,-200.4 368.505,-343.6 "/>
<path fill="none" stroke="black" d="M368.505,-343.6C368.505,-349.6 362.505,-355.6 356.505,-355.6"/>
<polyline fill="none" stroke="black" points="356.505,-355.6 247.495,-355.6 "/>
<path fill="none" stroke="black" d="M247.495,-355.6C241.495,-355.6 235.495,-349.6 235.495,-343.6"/>
<polyline fill="none" stroke="black" points="235.495,-343.6 235.495,-200.4 "/>
<path fill="none" stroke="black" d="M235.495,-200.4C235.495,-194.4 241.495,-188.4 247.495,-188.4"/>
<text text-anchor="middle" x="302" y="-337.6" font-family="Times,serif" font-size="14.00">Food</text>
<polyline fill="none" stroke="black" points="235.495,-330.8 368.505,-330.8 "/>
<text text-anchor="start" x="243.495" y="-312.8" font-family="Times,serif" font-size="14.00">id :integer</text>
<text text-anchor="start" x="243.495" y="-296" font-family="Times,serif" font-size="14.00">name :string</text>
<text text-anchor="start" x="243.495" y="-279.2" font-family="Times,serif" font-size="14.00">picture :string</text>
<text text-anchor="start" x="243.495" y="-262.4" font-family="Times,serif" font-size="14.00">category_id :integer</text>
<text text-anchor="start" x="243.495" y="-245.6" font-family="Times,serif" font-size="14.00">created_at :datetime</text>
<text text-anchor="start" x="243.495" y="-228.8" font-family="Times,serif" font-size="14.00">updated_at :datetime</text>
<text text-anchor="start" x="243.495" y="-212" font-family="Times,serif" font-size="14.00">user_id :integer</text>
<text text-anchor="start" x="243.495" y="-195.2" font-family="Times,serif" font-size="14.00">price_id :integer</text>
</g>
<!-- Category&#45;&gt;Food -->
<g id="edge2" class="edge"><title>Category&#45;&gt;Food</title>
<path fill="none" stroke="#79454d" d="M295.448,-426.617C296.247,-407.869 297.157,-386.54 298.039,-365.869"/>
<ellipse fill="none" stroke="#79454d" cx="295.269" cy="-430.8" rx="4" ry="4"/>
<polygon fill="#79454d" stroke="#79454d" points="298.043,-365.779 302.965,-355.98 298.256,-360.783 298.469,-355.788 298.469,-355.788 298.469,-355.788 298.256,-360.783 293.973,-355.596 298.043,-365.779 298.043,-365.779"/>
</g>
<!-- Post -->
<g id="node5" class="node"><title>Post</title>
<polyline fill="none" stroke="black" points="96.4946,-0.8 205.505,-0.8 "/>
<path fill="none" stroke="black" d="M205.505,-0.8C211.505,-0.8 217.505,-6.8 217.505,-12.8"/>
<polyline fill="none" stroke="black" points="217.505,-12.8 217.505,-139.2 "/>
<path fill="none" stroke="black" d="M217.505,-139.2C217.505,-145.2 211.505,-151.2 205.505,-151.2"/>
<polyline fill="none" stroke="black" points="205.505,-151.2 96.4946,-151.2 "/>
<path fill="none" stroke="black" d="M96.4946,-151.2C90.4946,-151.2 84.4946,-145.2 84.4946,-139.2"/>
<polyline fill="none" stroke="black" points="84.4946,-139.2 84.4946,-12.8 "/>
<path fill="none" stroke="black" d="M84.4946,-12.8C84.4946,-6.8 90.4946,-0.8 96.4946,-0.8"/>
<text text-anchor="middle" x="151" y="-133.2" font-family="Times,serif" font-size="14.00">Post</text>
<polyline fill="none" stroke="black" points="84.4946,-126.4 217.505,-126.4 "/>
<text text-anchor="start" x="92.4946" y="-108.4" font-family="Times,serif" font-size="14.00">id :integer</text>
<text text-anchor="start" x="92.4946" y="-91.6" font-family="Times,serif" font-size="14.00">note :text</text>
<text text-anchor="start" x="92.4946" y="-74.8" font-family="Times,serif" font-size="14.00">rating :integer</text>
<text text-anchor="start" x="92.4946" y="-58" font-family="Times,serif" font-size="14.00">picture :string</text>
<text text-anchor="start" x="92.4946" y="-41.2" font-family="Times,serif" font-size="14.00">food_id :integer</text>
<text text-anchor="start" x="92.4946" y="-24.4" font-family="Times,serif" font-size="14.00">created_at :datetime</text>
<text text-anchor="start" x="92.4946" y="-7.6" font-family="Times,serif" font-size="14.00">updated_at :datetime</text>
</g>
<!-- Food&#45;&gt;Post -->
<g id="edge4" class="edge"><title>Food&#45;&gt;Post</title>
<path fill="none" stroke="#6bacfe" d="M232.588,-181.821C226.748,-174.318 220.859,-166.752 215.062,-159.305"/>
<ellipse fill="none" stroke="#6bacfe" cx="235.068" cy="-185.007" rx="4.00002" ry="4.00002"/>
<polygon fill="#6bacfe" stroke="#6bacfe" points="214.957,-159.17 212.366,-148.514 211.886,-155.224 208.815,-151.278 208.815,-151.278 208.815,-151.278 211.886,-155.224 205.264,-154.042 214.957,-159.17 214.957,-159.17"/>
</g>
<!-- Price -->
<g id="node6" class="node"><title>Price</title>
<polyline fill="none" stroke="black" points="247.495,-17.6 356.505,-17.6 "/>
<path fill="none" stroke="black" d="M356.505,-17.6C362.505,-17.6 368.505,-23.6 368.505,-29.6"/>
<polyline fill="none" stroke="black" points="368.505,-29.6 368.505,-122.4 "/>
<path fill="none" stroke="black" d="M368.505,-122.4C368.505,-128.4 362.505,-134.4 356.505,-134.4"/>
<polyline fill="none" stroke="black" points="356.505,-134.4 247.495,-134.4 "/>
<path fill="none" stroke="black" d="M247.495,-134.4C241.495,-134.4 235.495,-128.4 235.495,-122.4"/>
<polyline fill="none" stroke="black" points="235.495,-122.4 235.495,-29.6 "/>
<path fill="none" stroke="black" d="M235.495,-29.6C235.495,-23.6 241.495,-17.6 247.495,-17.6"/>
<text text-anchor="middle" x="302" y="-116.4" font-family="Times,serif" font-size="14.00">Price</text>
<polyline fill="none" stroke="black" points="235.495,-109.6 368.505,-109.6 "/>
<text text-anchor="start" x="243.495" y="-91.6" font-family="Times,serif" font-size="14.00">id :integer</text>
<text text-anchor="start" x="243.495" y="-74.8" font-family="Times,serif" font-size="14.00">price :decimal</text>
<text text-anchor="start" x="243.495" y="-58" font-family="Times,serif" font-size="14.00">created_at :datetime</text>
<text text-anchor="start" x="243.495" y="-41.2" font-family="Times,serif" font-size="14.00">updated_at :datetime</text>
<text text-anchor="start" x="243.495" y="-24.4" font-family="Times,serif" font-size="14.00">food_id :integer</text>
</g>
<!-- Food&#45;&gt;Price -->
<g id="edge6" class="edge"><title>Food&#45;&gt;Price</title>
<path fill="none" stroke="#258442" d="M302,-180.102C302,-168.26 302,-156.296 302,-144.919"/>
<ellipse fill="none" stroke="#258442" cx="302" cy="-184.164" rx="4" ry="4"/>
<polygon fill="#258442" stroke="#258442" points="302,-144.658 306.5,-134.658 302,-139.658 302,-134.658 302,-134.658 302,-134.658 302,-139.658 297.5,-134.658 302,-144.658 302,-144.658"/>
</g>
<!-- Shop -->
<g id="node7" class="node"><title>Shop</title>
<polyline fill="none" stroke="black" points="398.495,-9.2 507.505,-9.2 "/>
<path fill="none" stroke="black" d="M507.505,-9.2C513.505,-9.2 519.505,-15.2 519.505,-21.2"/>
<polyline fill="none" stroke="black" points="519.505,-21.2 519.505,-130.8 "/>
<path fill="none" stroke="black" d="M519.505,-130.8C519.505,-136.8 513.505,-142.8 507.505,-142.8"/>
<polyline fill="none" stroke="black" points="507.505,-142.8 398.495,-142.8 "/>
<path fill="none" stroke="black" d="M398.495,-142.8C392.495,-142.8 386.495,-136.8 386.495,-130.8"/>
<polyline fill="none" stroke="black" points="386.495,-130.8 386.495,-21.2 "/>
<path fill="none" stroke="black" d="M386.495,-21.2C386.495,-15.2 392.495,-9.2 398.495,-9.2"/>
<text text-anchor="middle" x="453" y="-124.8" font-family="Times,serif" font-size="14.00">Shop</text>
<polyline fill="none" stroke="black" points="386.495,-118 519.505,-118 "/>
<text text-anchor="start" x="394.495" y="-100" font-family="Times,serif" font-size="14.00">id :integer</text>
<text text-anchor="start" x="394.495" y="-83.2" font-family="Times,serif" font-size="14.00">name :string</text>
<text text-anchor="start" x="394.495" y="-66.4" font-family="Times,serif" font-size="14.00">address :string</text>
<text text-anchor="start" x="394.495" y="-49.6" font-family="Times,serif" font-size="14.00">created_at :datetime</text>
<text text-anchor="start" x="394.495" y="-32.8" font-family="Times,serif" font-size="14.00">updated_at :datetime</text>
<text text-anchor="start" x="394.495" y="-16" font-family="Times,serif" font-size="14.00">user_id :integer</text>
</g>
<!-- Food&#45;&gt;Shop -->
<g id="edge8" class="edge"><title>Food&#45;&gt;Shop</title>
<path fill="none" stroke="#533171" d="M372.856,-179.966C380.468,-170.187 388.142,-160.327 395.569,-150.785"/>
<polygon fill="#533171" stroke="#533171" points="372.618,-180.272 362.924,-185.4 369.547,-184.218 366.476,-188.164 366.476,-188.164 366.476,-188.164 369.547,-184.218 370.027,-190.928 372.618,-180.272 372.618,-180.272"/>
<polygon fill="#533171" stroke="#533171" points="395.6,-150.745 405.294,-145.618 398.671,-146.8 401.743,-142.854 401.743,-142.854 401.743,-142.854 398.671,-146.8 398.191,-140.09 395.6,-150.745 395.6,-150.745"/>
</g>
<!-- Location -->
<g id="node4" class="node"><title>Location</title>
<polyline fill="none" stroke="black" points="557.495,-426.6 666.505,-426.6 "/>
<path fill="none" stroke="black" d="M666.505,-426.6C672.505,-426.6 678.505,-432.6 678.505,-438.6"/>
<polyline fill="none" stroke="black" points="678.505,-438.6 678.505,-531.4 "/>
<path fill="none" stroke="black" d="M678.505,-531.4C678.505,-537.4 672.505,-543.4 666.505,-543.4"/>
<polyline fill="none" stroke="black" points="666.505,-543.4 557.495,-543.4 "/>
<path fill="none" stroke="black" d="M557.495,-543.4C551.495,-543.4 545.495,-537.4 545.495,-531.4"/>
<polyline fill="none" stroke="black" points="545.495,-531.4 545.495,-438.6 "/>
<path fill="none" stroke="black" d="M545.495,-438.6C545.495,-432.6 551.495,-426.6 557.495,-426.6"/>
<text text-anchor="middle" x="612" y="-525.4" font-family="Times,serif" font-size="14.00">Location</text>
<polyline fill="none" stroke="black" points="545.495,-518.6 678.505,-518.6 "/>
<text text-anchor="start" x="553.495" y="-500.6" font-family="Times,serif" font-size="14.00">id :integer</text>
<text text-anchor="start" x="553.495" y="-483.8" font-family="Times,serif" font-size="14.00">food_id :integer</text>
<text text-anchor="start" x="553.495" y="-467" font-family="Times,serif" font-size="14.00">shop_id :integer</text>
<text text-anchor="start" x="553.495" y="-450.2" font-family="Times,serif" font-size="14.00">created_at :datetime</text>
<text text-anchor="start" x="553.495" y="-433.4" font-family="Times,serif" font-size="14.00">updated_at :datetime</text>
</g>
<!-- User -->
<g id="node8" class="node"><title>User</title>
<polyline fill="none" stroke="black" points="390.698,-393 515.302,-393 "/>
<path fill="none" stroke="black" d="M515.302,-393C521.302,-393 527.302,-399 527.302,-405"/>
<polyline fill="none" stroke="black" points="527.302,-405 527.302,-565 "/>
<path fill="none" stroke="black" d="M527.302,-565C527.302,-571 521.302,-577 515.302,-577"/>
<polyline fill="none" stroke="black" points="515.302,-577 390.698,-577 "/>
<path fill="none" stroke="black" d="M390.698,-577C384.698,-577 378.698,-571 378.698,-565"/>
<polyline fill="none" stroke="black" points="378.698,-565 378.698,-405 "/>
<path fill="none" stroke="black" d="M378.698,-405C378.698,-399 384.698,-393 390.698,-393"/>
<text text-anchor="middle" x="453" y="-559" font-family="Times,serif" font-size="14.00">User</text>
<polyline fill="none" stroke="black" points="378.698,-552.2 527.302,-552.2 "/>
<text text-anchor="start" x="386.698" y="-534.2" font-family="Times,serif" font-size="14.00">id :integer</text>
<text text-anchor="start" x="386.698" y="-517.4" font-family="Times,serif" font-size="14.00">fname :string</text>
<text text-anchor="start" x="386.698" y="-500.6" font-family="Times,serif" font-size="14.00">lname :string</text>
<text text-anchor="start" x="386.698" y="-483.8" font-family="Times,serif" font-size="14.00">email :string</text>
<text text-anchor="start" x="386.698" y="-467" font-family="Times,serif" font-size="14.00">password_digest :string</text>
<text text-anchor="start" x="386.698" y="-450.2" font-family="Times,serif" font-size="14.00">created_at :datetime</text>
<text text-anchor="start" x="386.698" y="-433.4" font-family="Times,serif" font-size="14.00">updated_at :datetime</text>
<text text-anchor="start" x="386.698" y="-416.6" font-family="Times,serif" font-size="14.00">food_id :integer</text>
<text text-anchor="start" x="386.698" y="-399.8" font-family="Times,serif" font-size="14.00">shop_id :integer</text>
</g>
<!-- User&#45;&gt;Food -->
<g id="edge10" class="edge"><title>User&#45;&gt;Food</title>
<path fill="none" stroke="#6b93ad" d="M383.075,-386.29C377.819,-378.946 372.528,-371.552 367.302,-364.25"/>
<ellipse fill="none" stroke="#6b93ad" cx="385.539" cy="-389.733" rx="4.00002" ry="4.00002"/>
<polygon fill="#6b93ad" stroke="#6b93ad" points="367.024,-363.862 364.864,-353.111 364.115,-359.796 361.205,-355.73 361.205,-355.73 361.205,-355.73 364.115,-359.796 357.545,-358.349 367.024,-363.862 367.024,-363.862"/>
</g>
<!-- User&#45;&gt;Shop -->
<g id="edge12" class="edge"><title>User&#45;&gt;Shop</title>
<path fill="none" stroke="#85f705" d="M453,-384.81C453,-313.51 453,-218.794 453,-153.351"/>
<ellipse fill="none" stroke="#85f705" cx="453" cy="-388.915" rx="4" ry="4"/>
<polygon fill="#85f705" stroke="#85f705" points="453,-153.107 457.5,-143.107 453,-148.107 453,-143.107 453,-143.107 453,-143.107 453,-148.107 448.5,-143.107 453,-153.107 453,-153.107"/>
</g>
</g>
</svg>
